<?xml version="1.0" encoding="UTF-8" standalone="no"?>
<!-- Created with Inkscape (http://www.inkscape.org/) -->

<svg
   xmlns:dc="http://purl.org/dc/elements/1.1/"
   xmlns:cc="http://creativecommons.org/ns#"
   xmlns:rdf="http://www.w3.org/1999/02/22-rdf-syntax-ns#"
   xmlns:svg="http://www.w3.org/2000/svg"
   xmlns="http://www.w3.org/2000/svg"
   xmlns:sodipodi="http://sodipodi.sourceforge.net/DTD/sodipodi-0.dtd"
   xmlns:inkscape="http://www.inkscape.org/namespaces/inkscape"
   version="1.1"
   id="svg2"
   xml:space="preserve"
   width="545.33331"
   height="418.66666"
   viewBox="0 0 545.33331 418.66666"
   sodipodi:docname="vel_frr.svg"
   inkscape:version="0.92.3 (2405546, 2018-03-11)"><metadata
     id="metadata8"><rdf:RDF><cc:Work
         rdf:about=""><dc:format>image/svg+xml</dc:format><dc:type
           rdf:resource="http://purl.org/dc/dcmitype/StillImage" /><dc:title></dc:title></cc:Work></rdf:RDF></metadata><defs
     id="defs6"><clipPath
       clipPathUnits="userSpaceOnUse"
       id="clipPath32"><path
         d="M 73,59 H 472 V 358 H 73 Z"
         id="path30"
         inkscape:connector-curvature="0"
         style="clip-rule:evenodd" /></clipPath></defs><sodipodi:namedview
     pagecolor="#ffffff"
     bordercolor="#666666"
     borderopacity="1"
     objecttolerance="10"
     gridtolerance="10"
     guidetolerance="10"
     inkscape:pageopacity="0"
     inkscape:pageshadow="2"
     inkscape:window-width="1920"
     inkscape:window-height="1052"
     id="namedview4"
     showgrid="false"
     inkscape:zoom="1.1273886"
     inkscape:cx="257.04068"
     inkscape:cy="211.02634"
     inkscape:window-x="1440"
     inkscape:window-y="8"
     inkscape:window-maximized="1"
     inkscape:current-layer="g10" /><g
     id="g10"
     inkscape:groupmode="layer"
     inkscape:label="vel_frr"
     transform="matrix(1.3333333,0,0,-1.3333333,0,418.66667)"><g
       id="g12"
       transform="matrix(0.75,0,0,-0.75,0,314)"><g
         id="g14"><g
           id="g16" /></g><g
         id="g18"><g
           id="g20" /><g
           id="g22" /><g
           id="g24" /></g><g
         id="g26"><g
           id="g28"
           clip-path="url(#clipPath32)"><g
             id="g34"><path
               d="m 120.69546,133.20911 0.0632,0.0383 0.0594,0.0362 0.0563,0.0341 0.0531,0.032 0.0499,0.0302 0.0473,0.0287 0.0445,0.0269 0.0419,0.0254 0.0397,0.0239 0.0373,0.0227 0.0353,0.0215 0.0333,0.02 0.0313,0.0191 0.0297,0.0179 0.0279,0.0167 0.0263,0.0162 0.0249,0.0149 0.0236,0.0143 0.0221,0.0135 0.0209,0.0126 0.0198,0.012 0.0187,0.0114 0.0176,0.0108 0.0166,0.01 0.0158,0.01 0.015,0.009 0.014,0.009 0.0132,0.008 0.0126,0.007 0.0118,0.007 0.0112,0.007 0.0106,0.006 0.01,0.006 0.009,0.006 0.009,0.005 0.008,0.005 0.008,0.005 0.008,0.004 0.007,0.004 0.007,0.004 0.006,0.004 0.006,0.004 0.006,0.004 0.005,0.003 0.005,0.003 0.005,0.003 0.005,0.003 0.004,0.002 0.004,0.003 0.004,0.002 0.004,0.002 0.004,0.002 0.003,0.002 0.003,0.002 0.003,0.002 0.003,0.002 0.003,0.002 0.003,0.002 0.003,0.001 0.002,10e-4 0.002,0.001 0.002,0.001 0.002,0.001 0.002,0.001 0.002,0.001 0.002,9e-4 0.002,10e-4 0.002,8.9e-4 0.002,9e-4 10e-4,0.001 0.002,6e-4 10e-4,8.9e-4 0.001,9e-4 0.001,9e-4 10e-4,6e-4 0.001,8.9e-4 0.001,6e-4 9.9e-4,6e-4 10e-4,6e-4 0.001,5.9e-4 0.001,6e-4 9.9e-4,6e-4 8e-4,6e-4 10e-4,6e-4 8e-4,5.9e-4 9.9e-4,6e-4 8e-4,3e-4 8e-4,6e-4 8e-4,6e-4 8e-4,3e-4 6e-4,5.9e-4 7.9e-4,3e-4 8e-4,6e-4 6e-4,3e-4 6e-4,3e-4 8e-4,6e-4 5.9e-4,3e-4 6e-4,2.9e-4 6e-4,6e-4 8e-4,3e-4 6e-4,3e-4 6e-4,3e-4 5.9e-4,3e-4 4e-4,6e-4 6e-4,3e-4 6e-4,2.9e-4 6e-4,3e-4 6e-4,3e-4 4e-4,3e-4 6e-4,3e-4 5.9e-4,3e-4 4e-4,3e-4 6e-4,3e-4 4e-4,6e-4 6e-4,2.9e-4 6e-4,3e-4 4e-4,3e-4 4e-4,3e-4 5.9e-4,3e-4 4e-4,3e-4 6e-4,3e-4 4e-4,3e-4 h 6e-4 l -0.41177,-0.24937 -0.0598,-0.0362 -0.0816,-0.0493 -0.0381,-0.0233 -0.0255,-0.0153 -0.0148,-0.009 -0.009,-0.005 -0.005,-0.003 -0.003,-0.001 -0.001,-9e-4 -6e-4,-3e-4 h 2e-4 l 4e-4,3e-4 4e-4,3e-4 5.9e-4,3e-4 4e-4,3e-4 6e-4,3e-4 6e-4,3e-4 6e-4,3e-4 6e-4,5.9e-4 6e-4,3e-4 3.9e-4,3e-4 6e-4,3e-4 6e-4,3e-4 6e-4,3e-4 4e-4,3e-4 6e-4,3e-4 4e-4,3e-4 6e-4,3e-4 5.9e-4,2.9e-4 4e-4,3e-4 6e-4,3e-4 4e-4,3e-4 6e-4,3e-4 4e-4,3e-4 4e-4,3e-4 5.9e-4,3e-4 4e-4,3e-4 6e-4,3e-4 4e-4,2.9e-4 4e-4,3e-4 6e-4,3e-4 4e-4,3e-4 4e-4,3e-4 4e-4,3e-4 6e-4,3e-4 3.9e-4,3e-4 4e-4,3e-4 4e-4,3e-4 h 6e-4 l 4e-4,2.9e-4 4e-4,3e-4 4e-4,3e-4 6e-4,3e-4 3.9e-4,3e-4 4e-4,3e-4 4e-4,3e-4 4e-4,3e-4 h 6e-4 l 4e-4,3e-4 4e-4,3e-4 4e-4,2.9e-4 4e-4,3e-4 4e-4,3e-4 5.9e-4,3e-4 4e-4,3e-4 h 4e-4 l 4e-4,3e-4 4e-4,3e-4 4e-4,3e-4 4e-4,3e-4 6e-4,3e-4 4e-4,2.9e-4 h 3.9e-4 l 4e-4,3e-4 4e-4,3e-4 4e-4,3e-4 4e-4,3e-4 4e-4,3e-4 6e-4,3e-4 4e-4,3e-4 h 3.9e-4 l 4e-4,3e-4 4e-4,3e-4 4e-4,3e-4 4e-4,2.9e-4 4e-4,3e-4 h 6e-4 l 4e-4,3e-4 4e-4,3e-4 4e-4,3e-4 4e-4,3e-4 3.9e-4,3e-4 4e-4,3e-4 h 4e-4 l 4e-4,3e-4 4e-4,2.9e-4 6e-4,3e-4 4e-4,3e-4 4e-4,3e-4 4e-4,3e-4 h 3.9e-4 l 4e-4,3e-4 4e-4,3e-4 4e-4,3e-4 4e-4,3e-4 4e-4,3e-4 h 4e-4 l 6e-4,2.9e-4 4e-4,3e-4 4e-4,3e-4 3.9e-4,3e-4 4e-4,3e-4 4e-4,3e-4 h 4e-4 l 4e-4,3e-4 4e-4,3e-4 4e-4,3e-4 4e-4,3e-4 6e-4,2.9e-4 h 3.9e-4 l 4e-4,3e-4 4e-4,3e-4 4e-4,3e-4 4e-4,3e-4 4e-4,3e-4 h 4e-4 l 4e-4,3e-4 4e-4,3e-4 4e-4,3e-4 4e-4,3e-4 5.9e-4,2.9e-4 4e-4,3e-4 h 4e-4 l -0.42054,-0.25474 -0.0589,-0.0356 -0.0822,-0.0496 -0.0379,-0.023 -0.0255,-0.0155 -0.0144,-0.009 -0.4383,-0.26551 -0.0628,-0.038 -0.0854,-0.0517 -0.0393,-0.0239 -0.0259,-0.0159 -0.0144,-0.009 -0.44767,-0.27119 -0.061,-0.0368 -0.0852,-0.0517 -0.0385,-0.0233 -0.0251,-0.0152 -0.0134,-0.008 -0.008,-0.004 -0.004,-0.002 -0.001,-9e-4 -0.44948,-0.27239 -0.0545,-0.0329 -0.0824,-0.0499 -0.0357,-0.0215 -0.0236,-0.0144 -0.0122,-0.007 -0.46683,-0.28316 -0.056,-0.0338 -0.0846,-0.0514 -0.0361,-0.0218 -0.0233,-0.014 -0.0116,-0.007 -0.006,-0.004 -0.002,-0.001 10e-4,5.9e-4 0.002,0.001 0.002,0.001 -0.46982,-0.28495 -0.0487,-0.0296 -0.0818,-0.0493 -0.0337,-0.0206 -0.0217,-0.0131 -0.0108,-0.006 -0.005,-0.003 -0.002,-9e-4 4e-4,3e-4 -0.48319,-0.29272 -0.0471,-0.0284 -0.082,-0.0499 -0.0329,-0.0197 -0.0209,-0.0129 -0.01,-0.006 -0.50234,-0.30438 -0.0473,-0.0287 -0.0838,-0.0505 -0.0323,-0.0197 -0.0203,-0.0123 -0.009,-0.005 -0.5151,-0.31216 -0.0437,-0.0266 -0.083,-0.0502 -0.0307,-0.0185 -0.0187,-0.0114 -0.008,-0.005 -0.002,-10e-4 0.001,9e-4 0.003,0.002 -0.52249,-0.31694 -0.0367,-0.0221 -0.0808,-0.049 -0.0281,-0.0171 -0.0174,-0.0105 -0.006,-0.004 -10e-4,-8.9e-4 0.002,0.001 0.003,0.002 0.004,0.003 0.005,0.003 0.005,0.003 -0.53765,-0.32621 -0.0333,-0.02 -0.081,-0.049 -0.0275,-0.0167 -0.0172,-0.0105 -0.006,-0.004 -0.55999,-0.33966 -0.0325,-0.0197 -0.0822,-0.0499 -0.0265,-0.0158 -0.016,-0.01 -0.005,-0.003 -0.57556,-0.34894 -0.0275,-0.0167 -0.081,-0.049 -0.0241,-0.0146 -0.014,-0.009 -0.003,-0.002 0.002,8.9e-4 0.004,0.003 0.006,0.003 -0.58733,-0.3561 -0.0203,-0.0123 -0.0792,-0.0481 -0.0217,-0.0132 -0.013,-0.008 -0.002,-0.001 0.002,0.001 0.005,0.003 0.006,0.004 0.006,0.004 0.006,0.004 0.007,0.004 -0.60648,-0.36777 -0.0168,-0.0102 -0.0798,-0.0481 -0.0212,-0.0132 -0.013,-0.008 -0.002,-0.001 -0.62982,-0.38212 -0.0142,-0.009 -0.0778,-0.0472 -0.019,-0.0114 -0.0106,-0.007 h -4e-4 l 0.004,0.002 0.006,0.004 0.007,0.004 -0.64478,-0.39109 -0.007,-0.004 -0.0756,-0.0457 -0.0168,-0.0105 -0.009,-0.005 4e-4,3e-4 -0.66813,-0.40574 -0.004,-0.002 -0.0742,-0.0451 -0.0152,-0.009 -0.008,-0.005 0.002,0.001 -0.68787,-0.41771 9.9e-4,6e-4 -0.0722,-0.0439 -0.013,-0.008 -0.006,-0.004 0.003,0.002 0.006,0.004 0.008,0.005 0.008,0.005 0.009,0.005 0.008,0.005 0.008,0.005 0.008,0.004 0.007,0.004 0.007,0.004 -0.70902,-0.43086 0.004,0.003 -0.073,-0.0443 -0.014,-0.009 -0.007,-0.004 10e-4,8.9e-4 -0.73276,-0.44551 0.008,0.004 -0.071,-0.0431 -0.0118,-0.007 -0.005,-0.003 0.003,0.002 -0.75271,-0.45807 0.0124,0.007 -0.0678,-0.0413 -0.009,-0.006 -0.003,-0.002 0.005,0.003 -0.77307,-0.47122 0.0162,0.01 -0.0646,-0.0392 -0.007,-0.005 -0.002,-9e-4 0.006,0.004 0.008,0.005 0.009,0.006 0.01,0.006 -0.79302,-0.48379 0.019,0.0114 -0.0623,-0.038 -0.007,-0.004 -0.001,-6e-4 0.006,0.004 0.008,0.005 0.009,0.006 0.009,0.005 0.009,0.006 0.009,0.005 0.008,0.005 -0.81696,-0.49933 0.0184,0.0114 -0.0609,-0.0374 -0.007,-0.004 -0.002,-9e-4 0.005,0.003 -0.8387,-0.51339 0.0189,0.0114 -0.0565,-0.0347 -0.005,-0.003 6e-4,6e-4 0.007,0.004 0.009,0.005 0.009,0.006 0.009,0.006 -0.85745,-0.52654 0.0187,0.0114 -0.0527,-0.0323 -0.005,-0.003 10e-4,9e-4 0.007,0.004 -0.8774,-0.5403 0.0165,0.0102 -0.0477,-0.0296 -0.003,-0.002 0.003,0.002 0.008,0.005 -0.894554,-0.55345 0.01357,0.008 -0.04249,-0.0263 -0.0016,-10e-4 0.0048,0.003 0.0092,0.006 0.01077,0.007 0.01097,0.007 0.01097,0.007 0.01057,0.007 0.01,0.006 0.0098,0.006 0.0092,0.006 0.009,0.006 0.0084,0.005 0.008,0.005 0.0076,0.005 0.0074,0.004 0.007,0.004 0.0066,0.004 0.0064,0.004 0.006,0.004 0.0058,0.004 0.0056,0.003 0.0052,0.003 0.0052,0.003 0.0048,0.003 0.0046,0.003 0.0044,0.003 0.0042,0.003 0.004,0.002 0.0038,0.002 0.0036,0.002 0.0034,0.002 0.0034,0.002 0.0032,0.002 0.0032,0.002 0.0028,0.002 0.0028,0.002 0.0028,0.002 0.0024,0.001 0.0026,0.002 0.0024,0.001 0.0022,10e-4 0.0022,0.001 0.002,0.002 0.002,0.001 0.002,0.001 0.0018,10e-4 0.0018,8.9e-4 0.0016,10e-4 0.0016,9e-4 0.0016,8.9e-4 0.0014,9e-4 0.0016,9e-4 0.0014,8.9e-4 0.0012,9e-4 0.0014,9e-4 0.0012,6e-4 0.0012,8.9e-4 0.0012,6e-4 9.97e-4,9e-4 0.0012,6e-4 9.98e-4,5.9e-4 9.97e-4,6e-4 9.98e-4,6e-4 9.97e-4,6e-4 7.99e-4,6e-4 9.97e-4,5.9e-4 7.98e-4,3e-4 7.98e-4,6e-4 7.98e-4,6e-4 7.98e-4,3e-4 7.98e-4,6e-4 5.98e-4,2.9e-4 7.98e-4,6e-4 5.99e-4,3e-4 7.98e-4,6e-4 5.98e-4,3e-4 5.99e-4,3e-4 5.98e-4,6e-4 7.98e-4,3e-4 3.99e-4,3e-4 5.99e-4,2.9e-4 5.98e-4,6e-4 5.99e-4,3e-4 5.98e-4,3e-4 3.99e-4,3e-4 5.99e-4,3e-4 5.98e-4,3e-4 3.99e-4,3e-4 5.99e-4,2.9e-4 3.99e-4,3e-4 5.98e-4,3e-4 3.99e-4,3e-4 4e-4,3e-4 3.99e-4,3e-4 5.98e-4,3e-4 3.99e-4,3e-4 3.99e-4,3e-4 3.99e-4,3e-4 3.99e-4,2.9e-4 5.98e-4,3e-4 h 4e-4 l 3.98e-4,3e-4 4e-4,3e-4 3.98e-4,3e-4 3.99e-4,3e-4 3.99e-4,3e-4 h 3.99e-4 l 2e-4,3e-4 3.99e-4,3e-4 3.99e-4,2.9e-4 h 3.99e-4 l 3.99e-4,3e-4 3.99e-4,3e-4 3.99e-4,3e-4 1.99e-4,3e-4 h 3.99e-4 l 3.99e-4,3e-4 3.99e-4,3e-4 h 4e-4 l 1.99e-4,3e-4 3.99e-4,3e-4 3.99e-4,3e-4 h 3.99e-4 l 1.99e-4,3e-4 4e-4,2.9e-4 h 3.98e-4 l 2e-4,3e-4 3.99e-4,3e-4 3.99e-4,3e-4 h 3.99e-4 l 2e-4,3e-4 3.98e-4,3e-4 h 3.99e-4 l 2e-4,3e-4 3.99e-4,3e-4 h 1.99e-4 l 3.99e-4,3e-4 3.99e-4,3e-4 h 2e-4 l 3.99e-4,2.9e-4 3.99e-4,3e-4 h 2e-4 l 3.99e-4,3e-4 3.98e-4,3e-4 h 2e-4 l 3.99e-4,3e-4 1.99e-4,3e-4 h 3.99e-4 l 3.99e-4,3e-4 2e-4,3e-4 h 3.99e-4 l 1.99e-4,3e-4 3.99e-4,3e-4 h 3.99e-4 l 2e-4,2.9e-4 3.99e-4,3e-4 h 1.99e-4 l 3.99e-4,3e-4 2e-4,3e-4 h 3.99e-4 l 3.99e-4,3e-4 1.99e-4,3e-4 h 4e-4 l 1.99e-4,3e-4 3.99e-4,3e-4 h 3.99e-4 l 1.99e-4,3e-4 3.99e-4,2.9e-4 h 2e-4 l 3.99e-4,3e-4 h 1.99e-4 l 3.99e-4,3e-4 2e-4,3e-4 h 3.99e-4 l 3.99e-4,3e-4 2e-4,3e-4 h 3.98e-4 l 2e-4,3e-4 3.99e-4,3e-4 h 1.99e-4 l 3.99e-4,3e-4 3.99e-4,3e-4 h 2e-4 l 3.99e-4,2.9e-4 h 1.99e-4 l 3.99e-4,3e-4 2e-4,3e-4 h 3.99e-4 l 1.99e-4,3e-4 3.99e-4,3e-4 h 2e-4 l 3.99e-4,3e-4 3.99e-4,3e-4 h 1.99e-4 l 3.99e-4,3e-4 2e-4,3e-4 h 3.99e-4 l 2e-4,3e-4 h 3.99e-4 l 1.99e-4,3e-4 3.99e-4,2.9e-4 h 3.99e-4 l 1.99e-4,3e-4 3.99e-4,3e-4 h 2e-4 l 3.99e-4,3e-4 1.99e-4,3e-4 h 3.99e-4 l 2e-4,3e-4 h 3.99e-4 l 1.99e-4,3e-4 3.99e-4,3e-4 h 2e-4 l 3.99e-4,3e-4 3.99e-4,3e-4 h 1.99e-4 l 3.99e-4,2.9e-4 2e-4,3e-4 h 3.99e-4 l 1.99e-4,3e-4 h 3.99e-4 l 2e-4,3e-4 3.99e-4,3e-4 h 1.99e-4 l 3.99e-4,3e-4 2e-4,3e-4 h 3.99e-4 l 3.99e-4,3e-4 1.99e-4,3e-4 h 3.99e-4 l 2e-4,3e-4 h 3.99e-4 l 1.99e-4,2.9e-4 3.99e-4,3e-4 h 2e-4 l 3.99e-4,3e-4 1.99e-4,3e-4 h 3.99e-4 l 2e-4,3e-4 3.99e-4,3e-4 h 1.99e-4 l 3.99e-4,3e-4 h 3.99e-4 l 2e-4,3e-4 3.99e-4,3e-4 h 2e-4 l 3.98e-4,3e-4 2e-4,2.9e-4 h 3.99e-4 l 1.99e-4,3e-4 h 3.99e-4 l 2e-4,3e-4 3.99e-4,3e-4 h 1.99e-4 l 4e-4,3e-4 1.99e-4,3e-4 h 3.99e-4 l 2e-4,3e-4 3.98e-4,3e-4 h 3.99e-4 l 2e-4,3e-4 h 3.99e-4 l 1.99e-4,2.9e-4 3.99e-4,3e-4 h 2e-4 l 3.99e-4,3e-4 2e-4,3e-4 h 3.99e-4 l 1.99e-4,3e-4 h 3.99e-4 l 1.99e-4,3e-4 3.99e-4,3e-4 h 2e-4 l 3.99e-4,3e-4 1.99e-4,3e-4 h 3.99e-4 l 2e-4,3e-4 h 3.99e-4 l 3.99e-4,2.9e-4 0.824734,0.5098 0.54204,0.33368 0.45326,0.27867 0.40399,0.24817 0.37307,0.22874 0.34972,0.21408 0.33057,0.20242 0.31341,0.19166 0.29766,0.1818 0.28289,0.17252 0.26893,0.16415 0.25575,0.15608 0.24339,0.1483 0.23142,0.14113 0.22005,0.13425 0.20948,0.12767 0.1993,0.1211 0.18972,0.11571 0.18035,0.10973 0.17177,0.10436 0.16319,0.0996 0.15561,0.0945 0.14783,0.09 0.14085,0.0858 0.13406,0.0813 0.12768,0.0777 0.1213,0.0735 0.11571,0.0703 0.10992,0.067 0.10474,0.0637 0.0998,0.0607 0.095,0.0577 0.0904,0.0547 0.086,0.0523 0.082,0.0496 0.078,0.0475 0.0742,0.0452 0.0706,0.0428 0.0674,0.041 0.064,0.0389 0.061,0.0371 0.0581,0.0353 0.0555,0.0338 0.0527,0.032 0.0501,0.0305 0.0479,0.029 0.0455,0.0275 0.0435,0.0263 0.0413,0.0251 0.0393,0.0239 0.0375,0.0227 0.0357,0.0218 0.0339,0.0206 0.0323,0.0194 0.0309,0.0188 0.0293,0.0179 0.0281,0.017 0.0265,0.0161 0.0255,0.0152 0.0241,0.0149 0.0232,0.0138 0.0219,0.0135 0.0209,0.0129 0.0199,0.012 0.0191,0.0117 0.018,0.0111 0.85306,0.51756 0.5572,0.33787 0.46823,0.28435 0.41675,0.25266 0.38464,0.23322 0.3605,0.21857 0.34074,0.20661 0.32339,0.19614 0.30703,0.18598 0.29207,0.17701 0.2777,0.16863 0.26434,0.15997 0.25137,0.15249 0.2394,0.14501 0.22763,0.13814 0.21686,0.13126 0.20628,0.12498 0.19631,0.119 0.18693,0.11333 0.17795,0.10793 0.16918,0.10256 0.1612,0.0975 0.15361,0.093 0.14603,0.0888 0.13906,0.084 0.13246,0.0804 0.12609,0.0762 0.1199,0.0727 0.11431,0.0694 0.10893,0.0661 0.10354,0.0628 0.0988,0.0598 0.094,0.0568 0.0894,0.0541 0.0852,0.0517 0.0812,0.049 0.0772,0.0469 0.0736,0.0445 0.07,0.0425 0.0668,0.0404 0.0636,0.0386 0.0605,0.0368 0.0577,0.035 0.0551,0.0332 0.0523,0.0317 0.0499,0.0302 0.0475,0.0287 0.0451,0.0275 0.0431,0.026 0.0411,0.0248 0.0391,0.0239 0.0373,0.0224 0.0355,0.0215 0.0339,0.0206 0.0321,0.0194 0.0307,0.0185 0.0293,0.0179 0.0279,0.0167 0.0265,0.0161 0.0253,0.0153 0.0241,0.0146 0.0232,0.0141 0.0219,0.0132 0.86364,0.52355 0.56019,0.33906 0.47142,0.28585 0.41855,0.25355 0.38603,0.23382 0.3617,0.21916 0.34174,0.20691 0.32439,0.19644 0.30823,0.18688 0.29306,0.1776 0.2789,0.16894 0.26534,0.16056 0.25256,0.15309 0.2404,0.14561 0.22883,0.13874 0.21785,0.13186 0.20728,0.12558 0.19751,0.1196 0.18793,0.11392 0.17895,0.10853 0.17037,0.10316 0.1622,0.0981 0.15441,0.0936 0.14703,0.0891 0.14005,0.0849 0.13346,0.0807 0.12689,0.0768 0.12089,0.0733 0.11512,0.0697 0.10972,0.0664 0.10434,0.0634 0.0994,0.0601 0.0948,0.0574 0.0902,0.0547 0.086,0.052 0.0818,0.0496 0.0778,0.0472 0.0742,0.0448 0.0708,0.0428 0.0672,0.041 0.0642,0.0389 0.061,0.0371 0.0583,0.035 0.0555,0.0338 0.0529,0.032 0.0503,0.0305 0.0481,0.029 0.0457,0.0278 0.0435,0.0263 0.0415,0.0251 0.0395,0.0239 0.88499,0.53611 0.57575,0.34863 0.48658,0.29481 0.43232,0.26193 0.3986,0.24129 0.37366,0.22664 0.35332,0.21379 0.33516,0.20302 0.3186,0.19315 0.30304,0.18359 0.28828,0.17461 0.27451,0.16625 0.26115,0.15817 0.24877,0.1507 0.23661,0.14352 0.22543,0.13634 0.21467,0.13006 0.20428,0.12379 0.19452,0.11781 0.18513,0.11212 0.17636,0.10675 0.16798,0.10165 0.1598,0.0969 0.15222,0.0924 0.14503,0.0879 0.13806,0.0834 0.13147,0.0798 0.12528,0.0756 0.11911,0.0724 0.11371,0.0688 0.10813,0.0655 0.10294,0.0625 0.0982,0.0595 0.0934,0.0565 0.0892,0.0538 0.0848,0.0514 0.0806,0.049 0.077,0.0463 0.0732,0.0445 0.0698,0.0422 0.0666,0.0404 0.0632,0.0386 0.0604,0.0365 0.0575,0.0347 0.0549,0.0332 0.0523,0.0317 0.0497,0.0302 0.0475,0.0287 0.0451,0.0275 0.0431,0.026 0.0411,0.0248 0.0391,0.0236 0.0373,0.0227 0.0355,0.0215 0.0339,0.0203 0.0323,0.0197 0.0307,0.0185 0.0293,0.0179 0.0279,0.0167 0.0267,0.0161 0.0255,0.0156 0.0241,0.0146 0.0231,0.014 0.0221,0.0135 0.0209,0.0126 0.0202,0.0123 0.0191,0.0117 0.0184,0.0111 0.0174,0.0105 0.0168,0.0102 0.0158,0.01 0.0152,0.009 0.0146,0.009 0.0138,0.008 0.0132,0.008 0.0128,0.007 0.012,0.007 0.0116,0.007 0.011,0.007 0.0104,0.007 0.0102,0.006 0.01,0.006 0.009,0.006 0.009,0.005 0.008,0.005 0.008,0.005 0.008,0.005 0.007,0.004 0.007,0.004 0.007,0.004 0.007,0.004 0.006,0.004 0.006,0.004 0.006,0.004 0.005,0.003 0.005,0.003 0.005,0.003 0.005,0.003 0.005,0.003 0.004,0.003 0.004,0.003 0.004,0.002 0.004,0.002 0.004,0.002 0.004,0.002 0.004,0.002 0.003,0.002 0.003,0.002 0.003,0.002 0.003,0.002 0.003,0.002 0.003,0.002 0.003,0.001 0.003,0.001 0.003,0.001 0.002,0.001 0.002,0.001 0.002,10e-4 0.002,0.001 0.002,0.001 0.002,0.001 0.002,0.001 0.002,0.001 0.002,10e-4 0.002,0.001 0.002,9e-4 0.002,0.001 0.002,8.9e-4 0.002,9e-4 0.002,0.001 0.002,8.9e-4 0.001,9e-4 0.002,9e-4 0.001,8.9e-4 0.001,9e-4 0.85307,0.51667 0.54084,0.32771 0.45386,0.27478 0.4,0.24249 0.36788,0.22275 0.34414,0.20841 1.17286,0.71042 0.84847,0.51398 0.74434,0.45089 0.6781,0.41083 0.63281,0.38332 0.5967,0.36149 0.96838,0.58664 0.84528,0.51188 0.82553,0.50023 0.81157,0.49156 0.80438,0.48707 0.7994,0.48438 0.7956,0.48199 0.79222,0.47989 0.78902,0.4778 0.78583,0.47601 0.78284,0.47421 0.77984,0.47242 0.77686,0.47063 0.77386,0.46883 0.77087,0.46704 0.76787,0.46495 0.76488,0.46345 0.7619,0.46135 0.75909,0.45987 0.75611,0.45806 0.75311,0.45628 0.75012,0.45448 0.74733,0.45268 0.74453,0.4509 0.74154,0.44909 0.73855,0.44731 0.73576,0.44581 0.73296,0.44401 0.72997,0.44222 0.72738,0.44043 0.72418,0.43893 0.72159,0.43684 0.7188,0.43564 0.71581,0.43355 0.71321,0.43206 0.71022,0.43026 0.70763,0.42847 0.70483,0.42697 0.70184,0.42518 0.69925,0.42368 0.69665,0.42189 0.69366,0.42009 0.69107,0.4186 0.68828,0.41711 0.68548,0.41531 0.68289,0.41352 0.68009,0.41202 0.67751,0.41023 0.6749,0.40903 0.67212,0.40694 0.66932,0.40544 0.66693,0.40395 0.66414,0.40245 0.66134,0.40066 0.65895,0.39917 0.65615,0.39737 0.65376,0.39588 0.65097,0.39438 0.64838,0.39288 0.64578,0.3911 0.64319,0.38959 0.64079,0.3881 0.638,0.38661 0.63561,0.38511 0.63281,0.38332 0.63042,0.38182 0.62803,0.38033 0.62523,0.37883 0.62284,0.37734 0.62045,0.37585 0.61765,0.37404 0.61546,0.37286 0.61266,0.37106 0.61047,0.36986 0.60788,0.36807 0.60528,0.36687 0.60309,0.36508 0.60049,0.36388 0.5979,0.36209 0.59571,0.3609 0.59311,0.35939 0.59072,0.35791 0.58833,0.35641 0.58593,0.35491 0.58354,0.35342 0.58134,0.35192 0.57875,0.35073 0.57636,0.34923 0.57396,0.34773 0.57177,0.34625 0.56937,0.34474 0.56698,0.34356 0.56458,0.34205 0.56239,0.34056 0.56,0.33907 0.5576,0.33787 0.55541,0.33637 0.55301,0.33518 0.55082,0.33369 0.54843,0.33218 0.54643,0.331 0.52169,0.31604 0.48299,0.29242 0.45486,0.27568 0.43092,0.26103 0.40918,0.24787 0.38882,0.23561 0.37007,0.22395 0.35232,0.21349 0.33516,0.20302 0.319,0.19315 0.30384,0.18419 0.28908,0.17521 0.27531,0.16654 0.26214,0.15877 0.24937,0.1513 0.23761,0.14382 0.22603,0.13694 0.21546,0.13036 0.20489,0.12439 0.19531,0.1181 0.18593,0.11272 0.17696,0.10705 0.16858,0.10225 0.1604,0.0972 0.15281,0.0927 0.14564,0.0879 0.13865,0.084 0.13207,0.0801 0.12568,0.0762 0.1199,0.0724 0.11412,0.0691 0.10852,0.0661 0.10355,0.0625 0.0987,0.0598 0.094,0.0571 0.0896,0.0541 0.0854,0.0517 0.0812,0.0493 0.0776,0.0469 0.0738,0.0445 0.0702,0.0428 0.0672,0.0407 0.0638,0.0386 0.061,0.0371 0.0581,0.035 0.0553,0.0338 0.0529,0.032 0.0505,0.0305 0.0481,0.029 0.0457,0.0278 0.0437,0.0263 0.0417,0.0254 0.0399,0.0239 0.0379,0.023 0.0363,0.0221 0.0345,0.0209 0.0329,0.02 0.0315,0.0188 0.0301,0.0182 0.0287,0.0176 0.0275,0.0164 0.0261,0.0159 0.0251,0.0153 0.0239,0.0146 0.0227,0.0138 0.0219,0.0132 0.0209,0.0129 0.02,0.012 0.0191,0.0117 0.0183,0.0111 0.0176,0.0108 0.0168,0.0102 0.016,0.01 0.0154,0.009 0.0148,0.009 0.0142,0.009 0.0136,0.008 0.013,0.008 0.0126,0.007 0.012,0.007 0.0114,0.007 0.011,0.007 0.0106,0.006 0.0102,0.006 0.01,0.006 0.01,0.006 0.009,0.005 0.009,0.005 0.008,0.005 0.008,0.005 0.008,0.005 0.008,0.004 0.007,0.004 0.007,0.004 0.007,0.004 0.007,0.004 0.006,0.004 0.006,0.004 0.006,0.004 0.006,0.003 0.006,0.003 0.005,0.003 0.005,0.003 0.005,0.003 0.005,0.003 0.005,0.003 0.005,0.003 0.004,0.003 0.004,0.003 0.004,0.003 0.004,0.002 0.004,0.002 0.004,0.002 0.004,0.002 0.004,0.002 0.004,0.002 0.004,0.002 0.004,0.002 0.003,0.002 0.003,0.002 0.003,0.002 0.003,0.002 0.003,0.002 0.003,0.002 0.003,0.002 0.003,0.002 0.003,0.002 0.003,0.002 0.003,0.002 0.003,0.002 0.003,0.001 0.003,0.002 0.003,0.001 0.003,0.002 0.003,0.001 0.003,0.002 0.003,0.001 0.003,0.001 0.003,0.002 0.003,0.001 0.002,10e-4 0.002,0.001 0.003,0.001 0.002,0.001 0.002,0.001 0.002,0.001 0.002,10e-4 0.002,0.001 0.002,0.001 0.002,0.001 0.002,0.001 0.002,0.001 0.002,10e-4 0.002,0.001 0.002,0.001 0.002,0.001 0.002,0.001 0.002,0.001 0.002,10e-4 0.002,0.001 0.002,0.001 0.002,0.001 0.002,0.001 0.002,0.001 0.002,10e-4 0.002,0.001 0.002,0.002 0.002,0.001 0.002,0.001 0.002,10e-4 0.002,0.001 0.002,0.001 0.002,0.001 0.002,0.001 0.002,0.001 0.002,10e-4 0.002,0.001 0.002,0.001 0.002,0.001 0.002,0.001 0.002,0.001 0.002,10e-4 0.002,0.001 0.002,0.001 0.002,0.001 0.002,0.001 0.002,0.001 0.002,10e-4 0.002,0.001 0.002,0.001 0.002,0.001 0.002,0.001 0.002,0.001 0.002,10e-4 0.002,0.001 0.002,0.001 0.002,0.001 0.002,0.001 0.002,0.001 0.002,10e-4 0.002,0.001 0.002,0.001 0.002,0.001 0.002,0.001 0.002,10e-4 0.002,0.001 0.002,0.001 0.002,0.001 0.002,0.001 0.002,0.001 0.002,10e-4 0.002,0.001 0.002,0.001 0.002,0.001 0.002,0.001 0.002,0.001 0.002,10e-4 0.002,0.001 0.002,9e-4 0.002,0.001 0.002,0.001 0.002,0.001 0.002,0.001 0.002,10e-4 0.002,0.001 0.002,0.001 0.002,0.001 0.002,0.001 0.002,0.001 0.002,10e-4 0.002,0.001 0.002,0.001 0.002,0.001 0.002,0.001 0.002,0.001 0.002,10e-4 0.002,0.001 0.002,0.001 0.002,0.001 0.002,0.001 0.002,0.001 0.002,10e-4 0.002,0.001 0.002,0.001 0.002,0.001 0.002,0.001 0.002,0.001 0.002,10e-4 0.002,0.001 0.002,0.001 0.002,0.001 0.002,0.001 0.002,0.001 0.002,10e-4 0.002,9e-4 0.002,0.001 0.002,0.001 0.002,0.001 0.002,0.001 0.002,10e-4 0.002,0.001 0.002,0.001 0.002,0.001 0.002,0.001 0.002,0.001 0.002,10e-4 0.002,0.001 0.002,0.001 0.002,0.001 0.002,0.001 0.002,0.001 0.002,10e-4 0.002,0.001 0.002,0.001 0.002,0.001 0.002,0.001 0.002,0.001 0.002,10e-4 0.002,0.001 0.002,0.001 0.002,0.001 0.002,0.001 0.002,0.001 0.002,10e-4 0.002,0.001 0.002,0.001 0.002,9e-4 0.002,0.001 0.002,0.001 0.002,0.001 0.002,10e-4 0.002,0.001 0.002,0.001 0.002,0.001 0.002,0.001 0.002,0.001 0.002,10e-4 0.002,0.001 0.002,0.001 0.002,0.001 0.002,0.001 0.002,0.001 0.002,10e-4 0.002,0.001 0.002,0.001 0.002,0.001 0.002,0.001 0.002,9e-4 0.002,10e-4 0.002,0.001 0.002,0.001 0.002,0.001 0.002,0.001 0.002,0.001 0.002,10e-4 0.002,0.001 0.002,0.001 0.002,0.001 0.002,0.001 0.002,0.001 0.002,10e-4 0.002,0.001 0.002,0.001 0.002,0.001 0.002,8.9e-4 0.002,0.001 0.002,0.001 0.002,0.001 0.002,10e-4 0.002,0.001 0.002,0.001 0.002,0.001 0.002,0.001 0.002,0.001 0.002,10e-4 0.002,0.001 0.002,0.001 0.002,8.9e-4 0.002,0.001 0.002,0.001 0.002,0.001 0.002,10e-4 0.002,0.001 0.002,0.001 0.002,0.001 0.002,0.001 0.002,0.001 0.002,10e-4 0.002,0.001 0.002,0.001 0.002,8.9e-4 0.002,0.001 0.002,0.001 0.002,0.001 0.002,10e-4 0.002,0.001 0.002,0.001 0.002,0.001 0.002,0.001 0.002,0.001 0.002,10e-4 0.002,9e-4 0.002,0.001 0.002,0.001 0.002,0.001 0.002,0.001 0.002,0.001 0.002,10e-4 0.002,0.001 0.002,0.001 0.002,0.001 0.002,0.001 0.002,9e-4 0.002,10e-4 0.002,0.001 0.002,0.001 0.002,0.001 0.002,0.001 0.002,0.001 0.002,10e-4 0.002,0.001 0.002,0.001 0.002,9e-4 0.002,0.001 0.002,0.001 0.002,0.001 0.002,10e-4 0.002,0.001 0.002,0.001 0.002,0.001 0.002,0.001 0.002,8.9e-4 0.002,0.001 0.002,10e-4 0.002,0.001 0.002,0.001 0.002,0.001 0.002,0.001 0.002,0.001 0.002,10e-4 0.002,9e-4 0.002,0.001 0.002,0.001 0.002,0.001 0.002,0.001 0.002,0.001 0.002,10e-4 0.002,0.001 0.002,0.001 0.002,8.9e-4 0.002,0.001 0.002,0.001 0.002,0.001 0.002,10e-4 0.002,0.001 0.002,0.001 0.002,0.001 0.002,8.9e-4 0.002,0.001 0.002,0.001 0.002,0.001 0.002,10e-4 0.002,0.001 0.002,0.001 0.002,9e-4 0.002,0.001 0.002,0.001 0.002,10e-4 0.002,0.001 0.002,0.001 0.002,0.001 0.002,0.001 0.002,8.9e-4 0.002,0.001 0.002,0.001 0.002,10e-4 0.002,0.001 0.002,0.001 0.002,0.001 0.002,9e-4 0.002,0.001 0.002,10e-4 0.002,0.001 0.002,0.001 0.002,0.001 0.002,0.001 0.002,9e-4 0.002,0.001 0.002,10e-4 0.002,0.001 0.002,0.001 0.002,0.001 0.002,0.001 0.002,8.9e-4 0.002,0.001 0.002,10e-4 0.002,0.001 0.002,0.001 0.002,0.001 0.002,9e-4 0.002,0.001 0.002,0.001 0.002,10e-4 0.002,0.001 0.002,0.001 0.002,0.001 0.002,8.9e-4 0.002,0.001 0.002,0.001 0.002,10e-4 0.002,0.001 0.002,0.001 0.002,9e-4 0.002,0.001 0.002,0.001 0.002,0.001 0.002,10e-4 0.002,0.001 0.002,9e-4 0.002,0.001 0.002,0.001 0.002,0.001 0.002,10e-4 0.002,0.001 0.002,8.9e-4 0.002,0.001 0.002,0.001 0.002,0.001 0.002,0.001 0.002,0.001 0.002,9e-4 0.002,0.001 0.002,0.001 0.002,0.001 0.002,0.001 0.002,0.001 0.002,9e-4 0.002,10e-4 0.002,0.001 0.002,0.001 0.002,0.001 0.002,9e-4 0.002,0.001 0.002,0.001 0.002,10e-4 0.002,0.001 0.002,0.001 0.002,9e-4 0.002,0.001 0.002,0.001 0.002,10e-4 0.002,0.001 0.002,9e-4 0.002,0.001 0.002,0.001 0.002,0.001 0.002,0.001 0.002,9e-4 0.002,10e-4 0.002,0.001 0.002,0.001 0.002,0.001 0.002,0.001 0.002,8.9e-4 0.002,0.001 0.002,10e-4 0.002,0.001 0.002,0.001 0.002,9e-4 0.002,0.001 0.002,0.001 0.002,0.001 0.002,10e-4 0.002,9e-4 0.002,0.001 0.002,0.001 0.002,0.001 0.002,0.001 0.002,9e-4 0.002,10e-4 0.002,0.001 0.002,0.001 0.002,0.001 0.002,9e-4 0.002,0.001 0.002,0.001 0.002,10e-4 0.002,8.9e-4 0.002,0.001 0.002,0.001 0.002,0.001 0.002,0.001 0.002,8.9e-4 0.002,0.001 0.002,10e-4 0.002,0.001 0.002,0.001 0.002,9e-4 0.002,0.001 0.002,0.001 0.002,0.001 0.002,10e-4 0.002,9e-4 0.002,0.001 0.002,0.001 0.002,0.001 0.002,9e-4 0.002,0.001 0.002,10e-4 0.002,0.001 0.002,0.001 0.002,8.9e-4 0.002,0.001 0.002,0.001 0.002,0.001 0.002,9e-4 0.002,10e-4 0.002,0.001 0.002,0.001 0.002,8.9e-4 0.002,0.001 0.002,0.001 0.002,0.001 0.002,0.001 0.002,8.9e-4 0.002,10e-4 0.002,0.001 0.002,0.001 0.002,9e-4 0.002,0.001 0.002,0.001 0.002,0.001 0.002,8.9e-4 0.002,10e-4 0.002,0.001 0.002,0.001 0.002,0.001 0.002,8.9e-4 0.002,0.001 0.002,0.001 0.002,10e-4 0.002,9e-4 0.002,0.001 0.002,0.001 0.002,0.001 0.002,8.9e-4 0.002,0.001 0.002,0.001 0.002,10e-4 0.002,9e-4 0.002,0.001 0.002,0.001 0.002,0.001 0.002,9e-4 0.002,0.001 0.002,0.001 0.002,10e-4 0.002,9e-4 0.002,0.001 0.002,0.001 0.002,0.001 0.002,8.9e-4 0.002,0.001 0.002,0.001 0.002,10e-4 0.002,9e-4 0.002,0.001 0.002,0.001 0.002,0.001 0.002,8.9e-4 0.002,0.001 0.002,0.001 0.002,8.9e-4 0.002,10e-4 0.002,0.001 0.002,0.001 0.002,9e-4 0.002,0.001 0.002,0.001 0.002,0.001 0.002,8.9e-4 0.002,10e-4 0.002,0.001 0.002,0.001 0.002,9e-4 0.002,0.001 0.002,0.001 0.002,9e-4 0.002,10e-4 0.002,0.001 0.002,0.001 0.002,8.9e-4 0.002,0.001 0.002,0.001 0.002,0.001 0.002,9e-4 0.002,10e-4 0.002,0.001 0.002,9e-4 0.002,0.001 0.002,0.001 0.002,0.001 0.002,9e-4 0.002,0.001 0.002,10e-4 0.002,0.001 0.002,9e-4 0.002,0.001 0.002,0.001 0.002,9e-4 0.002,0.001 0.002,10e-4 0.002,0.001 0.002,9e-4 0.002,0.001 0.002,0.001 0.002,9e-4 0.002,0.001 0.002,10e-4 0.002,0.001 0.002,8.9e-4 0.002,0.001 0.002,0.001 0.002,8.9e-4 0.002,0.001 0.002,0.001 0.002,8.9e-4 0.002,0.001 0.002,10e-4 0.002,0.001 0.002,9e-4 0.002,0.001 0.002,0.001 0.002,9e-4 0.002,0.001 0.002,0.001 0.002,9e-4 0.002,0.001 0.002,0.001 0.002,0.001 0.002,9e-4 0.002,0.001 0.002,0.001 0.002,9e-4 0.002,10e-4 0.002,0.001 0.002,9e-4 0.002,0.001 0.002,0.001 0.002,0.001 0.002,8.9e-4 0.002,0.001 0.002,10e-4 0.002,8.9e-4 0.002,0.001 0.002,0.001 0.002,8.9e-4 0.002,0.001 0.002,0.001 0.002,9e-4 0.002,0.001 0.002,10e-4 0.002,9e-4 0.002,0.001 0.002,0.001 0.002,9e-4 0.002,0.001 0.002,0.001 0.002,0.001 0.002,8.9e-4 0.002,10e-4 0.002,0.001 0.002,8.9e-4 0.002,0.001 0.002,0.001 0.002,8.9e-4 0.002,0.001 0.002,0.001 0.002,9e-4 0.002,10e-4 0.002,0.001 0.002,9e-4 0.002,0.001 0.002,0.001 0.002,9e-4 0.002,0.001 0.002,0.001 0.002,9e-4 0.002,0.001 0.002,0.001 0.002,9e-4 0.002,0.001 0.002,0.001 0.002,9e-4 0.002,0.001 0.002,10e-4 0.002,9e-4 0.002,0.001 0.002,0.001 0.002,8.9e-4 0.002,0.001 0.002,0.001 0.002,8.9e-4 0.002,0.001 0.002,10e-4 0.002,8.9e-4 0.002,0.001 0.002,0.001 0.002,9e-4 0.002,0.001 0.002,0.001 0.002,9e-4 0.002,0.001 0.002,8.9e-4 0.002,10e-4 0.002,0.001 0.002,9e-4 0.002,0.001 0.002,0.001 0.002,9e-4 0.002,0.001 0.002,10e-4 0.002,9e-4 0.002,0.001 0.002,0.001 0.002,9e-4 0.002,0.001 0.002,0.001 0.002,9e-4 0.002,10e-4 0.002,9e-4 0.002,0.001 0.002,0.001 0.002,9e-4 0.002,0.001 0.002,0.001 0.002,9e-4 0.002,0.001 0.002,10e-4 0.002,9e-4 0.002,0.001 0.002,0.001 0.002,9e-4 0.002,0.001 0.002,9e-4 0.002,0.001 0.002,10e-4 0.002,9e-4 0.002,0.001 0.002,0.001 0.002,9e-4 0.002,0.001 0.002,9e-4 0.002,0.001 0.002,10e-4 0.002,9e-4 0.002,0.001 0.002,0.001 0.002,9e-4 0.002,0.001 0.002,9e-4 0.002,0.001 0.002,10e-4 0.002,9e-4 0.002,0.001 0.002,0.001 0.002,9e-4 0.002,0.001 0.002,8.9e-4 0.002,0.001 0.002,10e-4 0.002,9e-4 0.002,0.001 0.002,0.001 0.002,9e-4 0.002,0.001 0.002,8.9e-4 0.002,0.001 0.002,0.001 0.002,8.9e-4 0.002,10e-4 0.002,9e-4 0.002,0.001 0.002,0.001 0.002,9e-4 0.002,0.001 0.002,0.001 0.002,8.9e-4 0.002,0.001 0.002,9e-4 0.002,10e-4 0.002,0.001 0.002,9e-4 0.002,0.001 0.002,9e-4 0.002,0.001 0.002,0.001 0.002,9e-4 0.002,10e-4 0.002,9e-4 0.002,0.001 0.002,0.001 0.002,9e-4 0.002,0.001 0.002,8.9e-4 0.002,0.001 0.002,0.001 0.002,9e-4 0.002,0.001 0.002,8.9e-4 0.002,0.001 0.002,0.001 0.002,8.9e-4 0.002,0.001 0.002,9e-4 0.002,0.001 0.002,0.001 0.002,9e-4 0.002,0.001 0.002,9e-4 0.002,0.001 0.002,9e-4 0.002,0.001 0.002,0.001 0.002,9e-4 0.002,10e-4 0.002,8.9e-4 0.002,10e-4 0.002,0.001 0.002,8.9e-4 0.002,0.001 0.002,9e-4 0.002,0.001 0.002,9e-4 0.002,0.001 0.002,10e-4 0.002,9e-4 0.002,0.001 0.002,9e-4 0.002,0.001 0.002,0.001 0.002,9e-4 0.002,0.001 0.002,8.9e-4 0.002,0.001 0.002,9e-4 0.002,0.001 0.002,0.001 0.002,8.9e-4 0.002,0.001 0.002,9e-4 0.002,0.001 0.002,9e-4 0.002,0.001 0.002,10e-4 0.002,9e-4 0.002,0.001 0.002,8.9e-4 0.002,0.001 0.002,9e-4 0.002,0.001 0.002,0.001 0.002,8.9e-4 0.002,0.001 0.002,9e-4 0.002,10e-4 0.002,9e-4 0.002,0.001 0.002,8.9e-4 0.002,0.001 0.002,0.001 0.002,8.9e-4 0.002,0.001 0.002,9e-4 0.002,0.001 0.002,9e-4 0.002,10e-4 0.002,0.001 0.002,9e-4 0.002,0.001 0.002,9e-4 0.002,0.001 0.002,8.9e-4 0.002,0.001 0.002,9e-4 0.002,10e-4 0.002,9e-4 0.002,0.001 0.002,0.001 0.002,9e-4 0.002,0.001 0.002,9e-4 0.002,0.001 0.002,9e-4 0.002,10e-4 0.002,9e-4 0.002,0.001 0.002,0.001 0.002,9e-4 0.002,0.001 0.002,9e-4 0.002,0.001 0.002,8.9e-4 0.002,10e-4 0.002,9e-4 0.002,0.001 0.002,9e-4 0.002,0.001 0.002,9e-4 0.002,0.001 0.002,0.001 0.002,9e-4 0.002,10e-4 0.002,8.9e-4 0.002,0.001 0.002,9e-4 0.002,0.001 0.002,9e-4 0.002,0.001 0.002,8.9e-4 0.002,0.001 0.002,9e-4 0.002,0.001 0.002,9e-4 0.002,0.001 0.002,9e-4 0.002,0.001 0.002,0.001 0.002,9e-4 0.002,0.001 0.002,8.9e-4 0.002,0.001 0.002,9e-4 0.002,10e-4 0.002,9e-4 0.002,0.001 0.002,8.9e-4 0.002,0.001 0.002,9e-4 0.002,0.001 0.002,9e-4 0.002,0.001 0.002,9e-4 0.002,10e-4 0.002,9e-4 0.002,0.001 0.002,9e-4 0.002,0.001 0.002,9e-4 0.002,0.001 0.002,8.9e-4 0.002,0.001 0.002,9e-4 0.002,10e-4 0.002,9e-4 0.002,0.001 0.002,8.9e-4 0.002,0.001 0.002,0.001 0.002,9e-4 0.002,0.001 0.002,8.9e-4 0.002,0.001 0.002,9e-4 0.002,10e-4 0.002,9e-4 0.002,0.001 0.002,8.9e-4 0.002,0.001 0.002,9e-4 0.002,0.001 0.002,9e-4 0.002,0.001 0.002,8.9e-4 0.002,0.001 0.002,9e-4 0.002,0.001 0.002,9e-4 0.002,0.001 0.002,9e-4 0.002,0.001 0.002,8.9e-4 0.002,0.001 0.002,9e-4 0.002,0.001 0.002,9e-4 0.002,0.001 0.002,8.9e-4 0.002,0.001 0.002,9e-4 0.002,0.001 0.002,9e-4 0.002,9e-4 0.002,0.001 0.002,9e-4 0.002,10e-4 0.002,8.9e-4 0.002,10e-4 0.002,9e-4 0.002,0.001 0.002,9e-4 0.002,0.001 0.002,9e-4 0.002,0.001 0.002,8.9e-4 0.002,0.001 0.002,9e-4 0.002,10e-4 0.002,9e-4 0.002,0.001 0.002,8.9e-4 0.002,0.001 0.002,9e-4 0.002,0.001 0.002,9e-4 0.002,0.001 0.002,8.9e-4 0.002,0.001 0.002,9e-4 0.002,0.001 0.002,9e-4 0.002,9e-4 0.002,0.001 0.002,9e-4 0.002,0.001 0.002,8.9e-4 0.002,0.001 0.002,8.9e-4 0.002,0.001 0.002,9e-4 0.002,10e-4 0.002,9e-4 0.002,0.001 0.002,8.9e-4 0.002,0.001 0.002,9e-4 0.002,8.9e-4 0.002,0.001 0.002,9e-4 0.002,0.001 0.002,9e-4 0.002,10e-4 0.002,8.9e-4 0.002,10e-4 0.002,9e-4 0.002,0.001 0.002,9e-4 0.002,0.001 0.002,8.9e-4 0.002,9e-4 0.002,0.001 0.002,9e-4 0.002,0.001 0.002,8.9e-4 0.002,10e-4 0.002,9e-4 0.002,0.001 0.002,9e-4 0.002,0.001 0.002,8.9e-4 0.002,9e-4 0.002,0.001 0.002,8.9e-4 0.002,0.001 0.002,9e-4 0.002,10e-4 0.002,9e-4 0.002,9e-4 0.002,0.001 0.002,9e-4 0.002,0.001 0.002,8.9e-4 0.002,0.001 0.002,9e-4 0.002,0.001 0.002,9e-4 0.002,9e-4 0.002,10e-4 0.002,9e-4 0.002,0.001 0.002,8.9e-4 0.002,0.001 0.002,8.9e-4 0.002,0.001 0.002,9e-4 0.002,9e-4 0.002,0.001 0.002,9e-4 0.002,10e-4 0.002,9e-4 0.002,0.001 0.002,8.9e-4 0.002,9e-4 0.002,0.001 0.002,8.9e-4 0.002,0.001 0.002,9e-4 0.002,0.001 0.002,9e-4 0.002,0.001 0.002,8.9e-4 0.002,9e-4 0.002,10e-4 0.002,8.9e-4 0.002,0.001 0.002,9e-4 0.002,8.9e-4 0.002,0.001 0.002,9e-4 0.002,0.001 0.002,9e-4 0.002,0.001 0.002,9e-4 0.002,9e-4 0.002,10e-4 0.002,9e-4 0.002,0.001 0.002,8.9e-4 0.002,0.001 0.002,9e-4 0.002,9e-4 0.002,0.001 0.002,9e-4 0.002,0.001 0.002,9e-4 0.002,9e-4 0.002,10e-4 0.002,9e-4 0.002,0.001 0.002,8.9e-4 0.002,0.001 0.002,9e-4 0.002,8.9e-4 0.002,0.001 0.002,9e-4 0.002,8.9e-4 0.002,0.001 0.002,9e-4 0.002,10e-4 0.002,9e-4 0.002,0.001 0.002,8.9e-4 0.002,9e-4 0.002,0.001 0.002,8.9e-4 0.002,0.001 0.002,9e-4 0.002,8.9e-4 0.002,0.001 0.002,9e-4 0.002,0.001 0.002,9e-4 0.002,9e-4 0.002,10e-4 0.002,9e-4 0.002,0.001 0.002,9e-4 0.002,9e-4 0.002,0.001 0.002,9e-4 0.002,0.001 0.002,8.9e-4 0.002,9e-4 0.002,10e-4 0.002,8.9e-4 0.002,9e-4 0.002,0.001 0.002,9e-4 0.002,0.001 0.002,9e-4 0.002,8.9e-4 0.002,0.001 0.002,9e-4 0.002,0.001 0.002,9e-4 0.002,9e-4 0.002,10e-4 0.002,9e-4 0.002,9e-4 0.002,0.001 0.002,9e-4 0.002,0.001 0.002,8.9e-4 0.002,9e-4 0.002,0.001 0.002,8.9e-4 0.002,0.001 0.002,9e-4 0.002,8.9e-4 0.002,0.001 0.002,9e-4 0.002,8.9e-4 0.002,10e-4 0.002,9e-4 0.002,0.001 0.002,9e-4 0.002,9e-4 0.002,0.001 0.002,9e-4 0.002,9e-4 0.002,0.001 0.002,9e-4 0.002,10e-4 0.002,8.9e-4 0.002,9e-4 0.002,0.001 0.002,8.9e-4 0.002,9e-4 0.002,0.001 0.002,8.9e-4 0.002,9e-4 0.002,0.001 0.002,8.9e-4 0.002,0.001 0.002,9e-4 0.002,8.9e-4 0.002,0.001 0.002,9e-4 0.002,8.9e-4 0.002,10e-4 0.002,9e-4 0.002,8.9e-4 5.21453,3.15894 -0.0331,-0.02 0.33616,0.20362 0.0788,0.0475 0.0379,0.023 0.006,0.004 -0.005,-0.003 -0.0106,-0.007 -0.0126,-0.007 -0.013,-0.008 -0.0128,-0.007 -0.0124,-0.007 -0.0118,-0.007 -0.0112,-0.007 -0.0106,-0.006 -0.01,-0.006 -0.009,-0.006 -0.009,-0.005 -0.008,-0.005 -0.008,-0.005 -0.008,-0.004 -0.007,-0.004 -0.006,-0.004 -0.006,-0.004 -0.006,-0.004 -0.005,-0.003 -0.005,-0.003 -0.005,-0.003 -0.004,-0.003 -0.004,-0.003 -0.004,-0.002 -0.004,-0.002 -0.003,-0.002 -0.003,-0.002 -0.003,-10e-4 -0.003,-0.002 -0.002,-0.001 -0.002,-0.001 -0.002,-0.001 -0.002,-10e-4 -0.002,-9e-4 -0.002,-9e-4 -0.001,-8.9e-4 -0.001,-9e-4 -9.9e-4,-6e-4 -0.001,-5.9e-4 -8e-4,-3e-4 -8e-4,-6e-4 -5.9e-4,-3e-4 -4e-4,-3e-4 -4e-4,-3e-4 h -2e-4 l -2e-4,-3e-4 h -2e-4 2e-4 l 2e-4,3e-4 h 2e-4 l 2e-4,3e-4 h 4e-4 l 4e-4,3e-4 3.9e-4,3e-4 6e-4,3e-4 6e-4,3e-4 6e-4,5.9e-4 6e-4,3e-4 8e-4,6e-4 7.9e-4,3e-4 8e-4,6e-4 8e-4,3e-4 0.001,5.9e-4 10e-4,6e-4 7.9e-4,6e-4 10e-4,6e-4 0.001,6e-4 0.001,5.9e-4 0.001,6e-4 0.001,9e-4 0.001,6e-4 10e-4,6e-4 0.001,8.9e-4 0.001,6e-4 0.001,9e-4 0.001,6e-4 0.001,8.9e-4 10e-4,6e-4 0.001,9e-4 0.001,8.9e-4 0.001,6e-4 0.001,9e-4 0.001,9e-4 10e-4,5.9e-4 0.001,9e-4 0.001,9e-4 0.001,9e-4 0.001,8.9e-4 0.001,9e-4 10e-4,9e-4 0.001,6e-4 0.002,8.9e-4 0.001,9e-4 0.001,9e-4 0.002,8.9e-4 0.001,9e-4 0.001,9e-4 0.002,8.9e-4 0.002,9e-4 0.001,9e-4 0.002,9e-4 0.001,8.9e-4 0.002,0.001 0.002,8.9e-4 0.001,9e-4 0.002,9e-4 0.001,9e-4 0.002,8.9e-4 0.002,9e-4 10e-4,9e-4 0.002,8.9e-4 0.002,9e-4 0.002,0.001 0.002,8.9e-4 0.001,9e-4 0.002,9e-4 0.002,8.9e-4 0.002,9e-4 0.002,0.001 0.002,8.9e-4 0.002,9e-4 0.002,9e-4 10e-4,9e-4 0.002,0.001 5.10441,3.09166 -0.0475,-0.0287 0.3605,0.21857 0.0828,0.0499 0.0429,0.0263 0.008,0.005 4.9873,3.02109 -0.066,-0.0398 0.36967,0.22396 0.0722,0.0436 0.0335,0.0203 -0.004,-0.002 -0.0166,-0.01 -0.0225,-0.0137 -0.0245,-0.0149 -0.0247,-0.0149 -0.0241,-0.0147 -0.0231,-0.0141 -0.0219,-0.0135 -0.0209,-0.0126 -0.02,-0.012 4.84925,2.93738 -0.0734,-0.0446 0.38504,0.23322 0.0738,0.0448 0.0367,0.0221 -0.003,-0.002 4.72955,2.86502 -0.0722,-0.044 0.39461,0.2392 0.069,0.0419 0.0323,0.0194 -0.0108,-0.006 4.59608,2.78399 -0.0692,-0.0419 0.4018,0.24338 0.0666,0.0404 0.0297,0.0179 -0.0156,-0.01 4.46301,2.70356 -0.0595,-0.0362 0.40917,0.24817 0.0668,0.0404 0.0297,0.0179 -0.0181,-0.0111 4.33114,2.62373 -0.0441,-0.0266 0.41636,0.25205 0.0696,0.0422 0.0313,0.0191 -0.0188,-0.0114 -0.0351,-0.0212 -0.0437,-0.0266 -0.0465,-0.0281 -0.0465,-0.0281 -0.0453,-0.0275 -0.0435,-0.0263 -0.0415,-0.0251 -0.0393,-0.0239 -0.0373,-0.0224 4.19329,2.54001 -0.014,-0.008 0.4361,0.26461 0.0918,0.0553 0.0519,0.0311 v -3e-4 l 4.08377,2.47453 0.016,0.009 0.44289,0.2691 0.0958,0.0577 0.0519,0.0317 -0.002,-0.001 3.95808,2.39768 0.0359,0.0212 0.44688,0.2703 0.0978,0.0598 0.0539,0.0323 -0.002,-0.001 3.83439,2.32323 0.0578,0.035 0.44888,0.27149 0.10374,0.0628 0.0559,0.0341 -0.002,-9e-4 -0.0219,-0.0138 -0.0359,-0.0209 -0.0379,-0.0239 3.69674,2.23921 0.0738,0.0457 0.45087,0.27269 0.11372,0.0688 0.0638,0.0389 0.006,0.004 -0.014,-0.01 -0.0299,-0.017 -0.0339,-0.0206 -0.0359,-0.0218 -0.0359,-0.0218 -0.0339,-0.0212 3.58502,2.17194 0.10773,0.0658 0.46084,0.27927 0.12968,0.0783 0.0778,0.0472 0.02,0.0114 3.50323,2.1223 0.14563,0.0882 0.47481,0.28734 0.13965,0.0846 0.0818,0.0502 0.022,0.0126 3.39748,2.05802 0.16559,0.10046 0.4788,0.29033 0.14563,0.0882 0.0878,0.0529 0.022,0.0135 -0.006,-0.003 -0.02,-0.0132 -0.0299,-0.0176 3.26581,1.97878 0.17357,0.10495 0.47481,0.28764 0.15162,0.0915 0.0918,0.0556 0.0279,0.0168 -0.0179,-0.0105 -0.0259,-0.0155 -0.0279,-0.0176 -0.0319,-0.0185 -0.0299,-0.0188 3.17006,1.92018 0.1975,0.12049 0.4808,0.29063 0.16359,0.0993 0.10374,0.0625 0.0379,0.023 3.11619,1.88759 0.23741,0.14412 0.48877,0.29571 0.17357,0.10555 0.10773,0.0649 0.0399,0.0245 0.01,0.006 -0.01,-0.005 -0.018,-0.0117 2.9945,1.81374 0.2374,0.14382 0.47681,0.28943 0.17556,0.10644 0.10972,0.0664 0.0439,0.0266 2.94861,1.78563 0.27332,0.16565 0.48678,0.29541 0.18753,0.11272 0.11571,0.07 0.0479,0.0293 2.8708,1.73898 0.28928,0.17492 0.48478,0.29422 0.19152,0.11571 0.11771,0.0715 0.0519,0.0311 0.0179,0.0108 -0.004,-0.002 -0.012,-0.008 -0.0199,-0.012 -0.0219,-0.0134 -0.0239,-0.0141 2.75509,1.66932 0.28329,0.17133 0.47681,0.28853 0.19351,0.11781 0.12369,0.075 0.0598,0.0359 0.0259,0.0158 0.006,0.004 -0.004,-0.003 2.69724,1.63344 0.30125,0.18358 0.48079,0.29063 0.2015,0.12229 0.13167,0.0789 0.0638,0.0392 2.6733,1.61908 0.33715,0.20482 0.49277,0.2981 0.21346,0.12947 0.13766,0.0831 0.0678,0.0419 2.61544,1.5841 0.34913,0.21139 0.49276,0.29781 0.21546,0.13156 0.13965,0.0846 0.0738,0.0437 2.55958,1.55031 0.35911,0.21768 0.49076,0.2975 0.21946,0.13365 0.14363,0.0867 0.0758,0.0457 0.0399,0.0239 0.018,0.0108 0.004,0.003 -0.002,-0.002 -0.008,-0.004 -0.008,-0.006 -0.01,-0.006 -0.012,-0.006 -0.01,-0.007 2.45784,1.48902 0.34115,0.20691 0.4768,0.28913 0.21945,0.13246 0.14564,0.0879 0.0798,0.049 2.46582,1.49261 0.38104,0.23112 0.49476,0.3002 0.23342,0.14143 0.15561,0.0936 0.0858,0.0529 2.42393,1.46749 0.38902,0.23651 0.49676,0.30049 0.2374,0.14322 0.15761,0.0951 0.0898,0.0547 2.38202,1.44327 0.39701,0.2407 0.49675,0.30049 0.2394,0.14502 0.1596,0.0969 0.0938,0.0565 2.34612,1.42144 0.40299,0.24429 0.49676,0.30109 0.24339,0.14681 0.16358,0.099 0.0958,0.0583 0.0598,0.0368 0.0379,0.023 0.0239,0.0147 0.016,0.009 0.01,0.006 0.008,0.004 0.006,0.003 0.004,0.003 0.004,0.002 2.25435,1.36643 0.37506,0.22694 0.4768,0.28853 0.23342,0.14083 0.1576,0.0957 0.0938,0.0577 2.28028,1.38138 0.41496,0.25026 0.49676,0.3014 0.24738,0.14979 0.16957,0.10226 0.10374,0.0628 2.25435,1.36673 0.42095,0.25445 0.50074,0.30289 0.25137,0.15219 0.17157,0.10435 0.10773,0.0652 2.23241,1.35208 0.42493,0.25774 0.50075,0.30378 0.25536,0.15399 0.17556,0.10674 0.11172,0.0673 0.0758,0.046 0.0539,0.0326 0.0399,0.0242 0.0299,0.0188 0.0259,0.0152 0.022,0.0132 0.0199,0.0117 0.016,0.0105 0.016,0.01 2.15061,1.30244 0.39102,0.23651 0.47681,0.28883 0.2374,0.14442 0.16558,0.10046 0.10574,0.0634 2.18253,1.32218 0.42693,0.25864 0.49875,0.30199 0.25336,0.15398 0.17756,0.10764 0.11371,0.0691 2.17056,1.3141 0.43491,0.26312 0.50075,0.30439 0.25935,0.15667 0.18354,0.11063 0.1197,0.0724 2.1546,1.30573 0.4389,0.26582 0.50673,0.30647 0.26134,0.15877 0.18753,0.11332 0.12369,0.0756 0.0918,0.0553 0.0698,0.0422 0.0559,0.0341 2.09874,1.27135 0.41695,0.25175 0.48878,0.29691 0.25336,0.15279 0.18155,0.11003 0.12169,0.0736 0.0898,0.0547 0.0698,0.0422 0.0559,0.0344 0.0499,0.0296 0.0419,0.0257 0.0399,0.0236 2.07081,1.25431 0.40499,0.24637 0.48079,0.29093 0.24539,0.1486 0.17556,0.10645 0.1177,0.0712 2.10672,1.27583 0.4389,0.26581 0.50075,0.30379 0.26134,0.15757 0.18753,0.11452 0.12968,0.078 2.10073,1.27254 0.44689,0.27119 0.50872,0.30737 0.26533,0.16176 0.19751,0.11871 0.13566,0.0828 0.10573,0.064 0.0858,0.052 0.0738,0.044 2.05286,1.24384 0.42693,0.25893 0.49276,0.2987 0.25935,0.15638 0.18953,0.11511 0.13366,0.0807 0.10374,0.0628 0.0838,0.0511 0.0738,0.0442 0.0638,0.0392 0.0599,0.0356 0.0539,0.0332 1.997,1.20946 0.4389,0.26581 0.46882,0.28435 0.24539,0.1483 0.17556,0.10704 0.12369,0.0747 1.97904,1.19899 0.50473,0.30498 0.4788,0.29093 0.25935,0.15697 0.18554,0.11243 0.13167,0.0798 0.10374,0.0628 0.0858,0.052 0.0758,0.0452 1.89924,1.15115 0.51471,0.31155 0.46484,0.28196 0.25536,0.15399 0.18154,0.10973 0.12768,0.078 1.87131,1.13351 0.57456,0.34773 0.47681,0.28884 0.26932,0.16355 0.19152,0.11601 0.13965,0.0846 1.82343,1.10391 0.61447,0.37225 0.48079,0.29123 0.2793,0.16983 0.1995,0.1205 0.14763,0.0894 0.1197,0.073 0.10374,0.0622 0.0918,0.0556 0.0838,0.0511 0.0778,0.0472 0.0738,0.0446 1.72767,1.0465 0.61246,0.37106 0.45486,0.27508 0.26334,0.15907 0.18155,0.11093 0.13566,0.0813 0.10773,0.0655 0.0918,0.0562 0.0838,0.0499 1.6738,1.01421 0.64838,0.39319 0.45286,0.27418 0.26733,0.16236 0.18554,0.11212 0.13765,0.0834 1.64588,0.99717 0.70822,0.42876 0.46883,0.28376 0.28528,0.17342 0.2015,0.12109 0.15162,0.0918 1.59799,0.96876 0.75012,0.45448 0.47681,0.28854 0.29925,0.18119 0.21147,0.12767 0.16159,0.0987 1.55211,0.93915 0.78803,0.47781 0.48279,0.29272 0.31122,0.18777 0.21945,0.13365 0.17356,0.10495 0.14763,0.0891 0.13167,0.0795 0.1197,0.0733 0.11172,0.0682 0.10574,0.064 0.10175,0.0607 0.0938,0.0574 0.0898,0.0547 0.0858,0.0517 1.44039,0.87218 0.77007,0.46644 0.44289,0.2685 0.2773,0.16834 0.19153,0.11512 0.14563,0.0882 1.41445,0.85694 0.82593,0.50112 0.46683,0.28196 0.29925,0.18179 0.20948,0.12707 0.16558,0.10017 1.37057,0.83002 0.86782,0.52564 0.4808,0.29123 0.3172,0.19196 0.22544,0.13664 0.18154,0.10944 0.15561,0.0948 0.14165,0.0858 0.13167,0.0795 0.12369,0.0748 0.11571,0.0709 0.11172,0.067 0.10374,0.064 0.10174,0.0607 0.0958,0.0577 0.0898,0.055 0.0858,0.0523 0.0838,0.0499 0.0778,0.0475 0.0758,0.0455 0.0698,0.043 0.0678,0.0413 0.0658,0.0392 0.0618,0.0374 0.0578,0.0356 0.0559,0.0341 0.0539,0.0323 0.0519,0.0308 0.0479,0.0296 0.0459,0.0281 0.0459,0.0266 0.0419,0.0257 0.0399,0.0245 0.0379,0.0233 0.0379,0.0221 0.0339,0.0215 0.0339,0.0203 0.0319,0.0194 0.0319,0.0185 0.0279,0.0176 0.0279,0.017 0.0279,0.0161 0.0259,0.0155 0.0239,0.015 0.0239,0.0144 0.022,0.0138 0.0219,0.0132 0.0199,0.0125 0.0199,0.012 0.0199,0.0117 0.018,0.0111 0.0179,0.0105 0.016,0.0102 0.016,0.01 0.016,0.01 0.016,0.009 0.014,0.009 0.014,0.009 0.014,0.008 0.012,0.008 0.012,0.007 0.012,0.007 0.012,0.007 0.012,0.007 0.01,0.007 0.01,0.006 -0.88977,-0.5397 -1.02543,-0.62042 -1.03142,-0.62581 -1.01346,-0.61385 -0.97755,-0.59172 -0.93565,-0.5666 -0.89177,-0.5403 -0.84987,-0.51458 -0.80797,-0.48916 -0.76807,-0.46524 -0.73018,-0.44223 -0.69226,-0.42039 -0.66035,-0.39946 -0.62643,-0.37943 -0.5965,-0.3609 -0.56459,-0.34265 -0.53865,-0.32591 -0.51072,-0.30947 -0.48478,-0.29391 -0.46085,-0.27957 -0.4389,-0.26551 -0.41695,-0.25236 -0.39501,-0.23979 -0.37705,-0.22784 -0.35711,-0.21618 -0.33915,-0.20571 -0.32319,-0.19525 -0.30524,-0.18568 -0.29127,-0.17641 -0.2773,-0.16744 -0.26135,-0.15907 -0.24937,-0.15099 -0.23741,-0.14352 -0.22543,-0.13634 -0.21347,-0.12947 -0.20348,-0.12319 -0.19352,-0.11661 -0.18155,-0.11093 -0.17556,-0.10555 -0.16359,-0.0999 -0.1576,-0.0951 -0.14963,-0.0903 -0.14164,-0.0855 -0.13367,-0.0813 -0.12768,-0.0771 -0.1197,-0.0733 -0.11571,-0.0697 -0.10773,-0.0661 -0.10374,-0.0625 -0.0977,-0.0595 -0.0938,-0.0565 -0.0878,-0.0535 -0.0858,-0.0508 -0.0778,-0.0481 -0.0758,-0.0457 -0.0718,-0.0434 -0.0678,-0.041 -0.0638,-0.0389 -0.0618,-0.0371 -0.0579,-0.035 -0.0539,-0.0332 -0.0519,-0.0314 -0.0499,-0.0299 -0.0459,-0.0284 -0.0459,-0.0266 -0.0399,-0.0254 -0.0399,-0.0239 -0.0379,-0.0227 -0.0359,-0.0215 -0.0339,-0.0203 -0.0319,-0.0191 -0.0299,-0.0182 -0.0279,-0.017 -0.0259,-0.0162 -0.0259,-0.0155 -0.0239,-0.0144 -0.022,-0.0138 -0.0219,-0.0129 -0.0199,-0.0123 -0.018,-0.0114 -0.0179,-0.0108 -0.018,-0.0102 -0.016,-0.01 -0.014,-0.009 -0.014,-0.008 -0.014,-0.008 -0.012,-0.007 -0.012,-0.007 -0.01,-0.007 -0.01,-0.006 -0.01,-0.006 -0.008,-0.005 -0.01,-0.005 -0.006,-0.004 -0.008,-0.004 -0.006,-0.004 -0.006,-0.004 -0.006,-0.003 -0.006,-0.003 -0.004,-0.003 -0.006,-0.003 -0.004,-0.002 -0.002,-0.002 -0.004,-0.002 -0.004,-0.002 -0.002,-0.002 -0.002,-0.002 -0.002,-0.001 -0.002,-10e-4 -0.002,-0.001 -0.002,-6e-4 v -8.9e-4 l -0.002,-6e-4 v -3e-4 l -0.002,-6e-4 v -3e-4 3e-4 3e-4 l 0.002,3e-4 v 3e-4 6e-4 l 0.002,3e-4 v 5.9e-4 l 0.002,9e-4 0.002,6e-4 v 9e-4 l 0.002,8.9e-4 0.002,9e-4 -0.90174,-0.54538 -1.03141,-0.62551 -1.04139,-0.63058 -1.02144,-0.61834 -0.98354,-0.5962 -0.94164,-0.57079 -1.79949,-1.08926 -1.88727,-1.14398 -1.85535,-1.12334 -1.7935,-1.08716 -1.72169,-1.04202 -1.64188,-0.99477 -1.56408,-0.94783 -1.49027,-0.90208 -1.41445,-0.85754 -2.24438,-1.35985 -2.3142,-1.40081 -2.25634,-1.36673 -2.17655,-1.31859 -2.08278,-1.26208 -1.98901,-1.20437 -2.78901,-1.68995 -2.8329,-1.71626 -2.7511,-1.66663 -2.64937,-1.60383 -2.53165,-1.53387 -2.41395,-1.46301 -2.30024,-1.39304 -2.18851,-1.32547 -2.08079,-1.26088 -1.97903,-1.19899 -1.88329,-1.14009 -1.78951,-1.08417 -2.59948,-1.57484 -2.65136,-1.60532 -2.57554,-1.56079 -2.48179,-1.50337 -2.37405,-1.43789 -2.26432,-1.37181 -3.05435,-1.84962 -3.08427,-1.86785 -2.98851,-1.81074 -2.87479,-1.74138 -2.74712,-1.66453 -2.62143,-1.58769 -2.49574,-1.51175 -2.37605,-1.43878 -2.25834,-1.36912 -3.04636,-1.84513 -3.07629,-1.86337 -2.98053,-1.80566 -2.86682,-1.7363 -2.74113,-1.66004 -2.61345,-1.58321 -3.38551,-2.05054 -3.39948,-2.05981 -3.28976,-1.99224 -3.16008,-1.91449 -3.02043,-1.82959 -2.88078,-1.74496 -2.74312,-1.66214 -3.35758,-2.0338 -3.4354,-2.08074 -3.3875,-2.05204 -3.26582,-1.97848 -3.12617,-1.89357 -2.98252,-1.80715 -2.84288,-1.72194 -2.70721,-1.63972 -2.57554,-1.56018 -2.45186,-1.48484 -2.33196,-1.41277 -2.21884,-1.34401 -3.00965,-1.823 -3.04098,-1.84214 -2.94542,-1.78413 -2.8331,-1.71626 -2.70961,-1.64151 -2.58532,-1.56586 -3.18083,-1.92676 -3.25604,-1.9725 -3.25005,-1.96862 -3.14093,-1.90284 -3.00866,-1.8224 -2.8732,-1.74048 -3.1912,-1.93303 -3.22452,-1.95307 -3.22611,-1.95427 -3.22392,-1.95306 -3.21674,-1.94859 -3.1132,-1.88579 -3.18422,-1.92885 -3.18402,-1.92855 -3.17544,-1.92347 -3.16666,-1.91838 -3.15689,-1.91211 -3.14711,-1.90642 -3.13694,-1.90014 -3.12676,-1.89417 -3.11679,-1.88789 -3.10662,-1.8819 -3.09663,-1.87593 -3.08687,-1.86964 -3.07689,-1.86397 -3.06731,-1.85798 -3.05734,-1.85201 -3.04796,-1.84633 -3.03838,-1.84064 -3.02901,-1.83467 -3.01943,-1.82898 -3.01026,-1.8236 -3.00108,-1.81792 -2.9921,-1.81254 -2.98312,-1.80685 -2.97395,-1.80148 -2.92686,-1.77307 -2.81076,-1.70251 -2.68607,-1.62715 -2.56377,-1.55301 -2.44427,-1.48095 -2.32957,-1.41098 -2.21923,-1.3446 -2.11371,-1.28062 -2.01295,-1.21992 -1.9168,-1.16191 -1.82502,-1.1066 -1.73745,-1.05427 -1.65365,-1.00405 -1.57386,-0.9571 -1.49785,-0.91224 -1.42482,-0.87009 -1.35561,-0.83033 -1.28917,-0.79294 -1.225723,-0.75857 -1.16508,-0.72627 -1.107424,-0.69667 -1.052163,-0.66946 -0.999295,-0.64494 -0.948823,-0.62252 -0.900742,-0.60308 -0.854498,-0.58515 -0.810549,-0.57019 -0.768514,-0.55704 -0.728374,-0.54567 -0.690031,-0.53611 -0.653442,-0.52833 -0.61849,-0.52176 -0.585174,-0.51607 -0.553373,-0.51159 -0.523069,-0.5077 -0.494201,-0.50412 -0.46667,-0.50082 -0.440497,-0.49754 -0.415558,-0.49394 -0.391838,-0.48977 -0.369314,-0.48587 -0.347889,-0.48049 -0.327558,-0.47512 -0.308248,-0.46883 -0.289973,-0.46135 -0.272617,-0.45359 -0.256198,-0.44461 -0.240657,-0.43505 -0.225934,-0.42517 -0.212048,-0.41382 -0.198902,-0.40275 -0.186512,-0.3905 -0.174802,-0.37823 -0.16379,-0.36508 -0.153395,-0.35222 -0.1436,-0.33907 -0.134403,-0.32561 -0.125745,-0.31216 -0.117605,-0.2987 -0.109945,-0.28554 -0.102782,-0.27269 -0.09604,-0.259531 -0.08973,-0.246675 -0.08381,-0.234715 -0.07824,-0.222456 -0.07308,-0.210795 -0.06821,-0.199732 -0.06364,-0.188968 -0.05941,-0.178204 -0.05542,-0.168337 -0.05171,-0.158769"
               style="fill:none;stroke:#000000;stroke-width:1;stroke-linecap:square;stroke-linejoin:miter;stroke-miterlimit:10;stroke-dasharray:none;stroke-opacity:1"
               id="path36"
               inkscape:connector-curvature="0" /></g></g></g><g
         id="g38"><g
           id="g40"><g
             id="g42"><text
               transform="translate(155.53125,21)"
               style="font-variant:normal;font-weight:bold;font-size:17.32999992px;font-family:Ubuntu;-inkscape-font-specification:Ubuntu-Bold;writing-mode:lr-tb;fill:#3c3c3c;fill-opacity:1;fill-rule:nonzero;stroke:none"
               id="text46"><tspan
                 x="0 11.265625 21.1875 26.546875 36.859375 45.34375 50.25 57.796875 67.09375 71.171875 80.515625 88.75 92.828125 100 110.3125 115.67188 121.03125 125.9375 135.9375 146.03125 150.10938 157.28125 167.20312 175.4375 180.34375 188.57812 196.125 205.51562 215.51562 224"
                 y="0"
                 sodipodi:role="line"
                 id="tspan44">Velocity vs rolling resistance</tspan></text>
</g></g><g
           id="g48"
           transform="rotate(-90,185.5,180.5)"><g
             id="g50"><text
               transform="translate(93.90625,14)"
               style="font-variant:normal;font-weight:bold;font-size:14.67000008px;font-family:Ubuntu;-inkscape-font-specification:Ubuntu-Bold;writing-mode:lr-tb;fill:#000000;fill-opacity:1;fill-rule:nonzero;stroke:none"
               id="text54"><tspan
                 x="0 10 19.09375 23.828125 28.5625 32.890625 41.71875 50.625 54.21875 60.546875 69.296875 76.5625 80.890625 88.15625 94.8125 103.09375 111.92188 119.42188"
                 y="0"
                 sodipodi:role="line"
                 id="tspan52">Rolling resistance</tspan></text>
</g></g><g
           id="g56" /><g
           id="g58"
           transform="translate(25,349)"><g
             id="g60"><text
               transform="translate(0,14)"
               style="font-variant:normal;font-weight:normal;font-size:14.67000008px;font-family:Ubuntu;-inkscape-font-specification:Ubuntu;writing-mode:lr-tb;fill:#3c3c3c;fill-opacity:1;fill-rule:nonzero;stroke:none"
               id="text64"><tspan
                 x="0 8.453125 16.90625 25.359375"
                 y="0"
                 sodipodi:role="line"
                 id="tspan62">100</tspan></text>
</g></g><g
           id="g66" /><g
           id="g68"
           transform="translate(33,289)"><g
             id="g70"><text
               transform="translate(0,14)"
               style="font-variant:normal;font-weight:normal;font-size:14.67000008px;font-family:Ubuntu;-inkscape-font-specification:Ubuntu;writing-mode:lr-tb;fill:#3c3c3c;fill-opacity:1;fill-rule:nonzero;stroke:none"
               id="text74"><tspan
                 x="0 8.453125 16.90625"
                 y="0"
                 sodipodi:role="line"
                 id="tspan72">80</tspan></text>
</g></g><g
           id="g76" /><g
           id="g78"
           transform="translate(33,229)"><g
             id="g80"><text
               transform="translate(0,14)"
               style="font-variant:normal;font-weight:normal;font-size:14.67000008px;font-family:Ubuntu;-inkscape-font-specification:Ubuntu;writing-mode:lr-tb;fill:#3c3c3c;fill-opacity:1;fill-rule:nonzero;stroke:none"
               id="text84"><tspan
                 x="0 8.453125 16.90625"
                 y="0"
                 sodipodi:role="line"
                 id="tspan82">60</tspan></text>
</g></g><g
           id="g86" /><g
           id="g88"
           transform="translate(33,170)"><g
             id="g90"><text
               transform="translate(0,14)"
               style="font-variant:normal;font-weight:normal;font-size:14.67000008px;font-family:Ubuntu;-inkscape-font-specification:Ubuntu;writing-mode:lr-tb;fill:#3c3c3c;fill-opacity:1;fill-rule:nonzero;stroke:none"
               id="text94"><tspan
                 x="0 8.453125 16.90625"
                 y="0"
                 sodipodi:role="line"
                 id="tspan92">40</tspan></text>
</g></g><g
           id="g96" /><g
           id="g98"
           transform="translate(33,110)"><g
             id="g100"><text
               transform="translate(0,14)"
               style="font-variant:normal;font-weight:normal;font-size:14.67000008px;font-family:Ubuntu;-inkscape-font-specification:Ubuntu;writing-mode:lr-tb;fill:#3c3c3c;fill-opacity:1;fill-rule:nonzero;stroke:none"
               id="text104"><tspan
                 x="0 8.453125 16.90625"
                 y="0"
                 sodipodi:role="line"
                 id="tspan102">20</tspan></text>
</g></g><g
           id="g106" /><g
           id="g108"
           transform="translate(50,50)"><g
             id="g110"><text
               transform="translate(0,14)"
               style="font-variant:normal;font-weight:normal;font-size:14.67000008px;font-family:Ubuntu;-inkscape-font-specification:Ubuntu;writing-mode:lr-tb;fill:#3c3c3c;fill-opacity:1;fill-rule:nonzero;stroke:none"
               id="text114"><tspan
                 x="0"
                 y="0"
                 id="tspan112">0</tspan></text>
</g></g><g
           id="g116"><path
             d="M 73,343 H 68"
             style="fill:none;stroke:#000000;stroke-width:1;stroke-linecap:square;stroke-linejoin:bevel;stroke-miterlimit:10;stroke-dasharray:none;stroke-opacity:1"
             id="path118"
             inkscape:connector-curvature="0" /><path
             d="M 73,313 H 68"
             style="fill:none;stroke:#000000;stroke-width:1;stroke-linecap:square;stroke-linejoin:bevel;stroke-miterlimit:10;stroke-dasharray:none;stroke-opacity:1"
             id="path120"
             inkscape:connector-curvature="0" /><path
             d="M 73,283 H 68"
             style="fill:none;stroke:#000000;stroke-width:1;stroke-linecap:square;stroke-linejoin:bevel;stroke-miterlimit:10;stroke-dasharray:none;stroke-opacity:1"
             id="path122"
             inkscape:connector-curvature="0" /><path
             d="M 73,253 H 68"
             style="fill:none;stroke:#000000;stroke-width:1;stroke-linecap:square;stroke-linejoin:bevel;stroke-miterlimit:10;stroke-dasharray:none;stroke-opacity:1"
             id="path124"
             inkscape:connector-curvature="0" /><path
             d="M 73,223 H 68"
             style="fill:none;stroke:#000000;stroke-width:1;stroke-linecap:square;stroke-linejoin:bevel;stroke-miterlimit:10;stroke-dasharray:none;stroke-opacity:1"
             id="path126"
             inkscape:connector-curvature="0" /><path
             d="M 73,194 H 68"
             style="fill:none;stroke:#000000;stroke-width:1;stroke-linecap:square;stroke-linejoin:bevel;stroke-miterlimit:10;stroke-dasharray:none;stroke-opacity:1"
             id="path128"
             inkscape:connector-curvature="0" /><path
             d="M 73,164 H 68"
             style="fill:none;stroke:#000000;stroke-width:1;stroke-linecap:square;stroke-linejoin:bevel;stroke-miterlimit:10;stroke-dasharray:none;stroke-opacity:1"
             id="path130"
             inkscape:connector-curvature="0" /><path
             d="M 73,134 H 68"
             style="fill:none;stroke:#000000;stroke-width:1;stroke-linecap:square;stroke-linejoin:bevel;stroke-miterlimit:10;stroke-dasharray:none;stroke-opacity:1"
             id="path132"
             inkscape:connector-curvature="0" /><path
             d="M 73,104 H 68"
             style="fill:none;stroke:#000000;stroke-width:1;stroke-linecap:square;stroke-linejoin:bevel;stroke-miterlimit:10;stroke-dasharray:none;stroke-opacity:1"
             id="path134"
             inkscape:connector-curvature="0" /><path
             d="M 73,74 H 68"
             style="fill:none;stroke:#000000;stroke-width:1;stroke-linecap:square;stroke-linejoin:bevel;stroke-miterlimit:10;stroke-dasharray:none;stroke-opacity:1"
             id="path136"
             inkscape:connector-curvature="0" /><path
             d="M 73,328 H 68"
             style="fill:none;stroke:#000000;stroke-width:1;stroke-linecap:square;stroke-linejoin:bevel;stroke-miterlimit:10;stroke-dasharray:none;stroke-opacity:1"
             id="path138"
             inkscape:connector-curvature="0" /><path
             d="M 73,268 H 68"
             style="fill:none;stroke:#000000;stroke-width:1;stroke-linecap:square;stroke-linejoin:bevel;stroke-miterlimit:10;stroke-dasharray:none;stroke-opacity:1"
             id="path140"
             inkscape:connector-curvature="0" /><path
             d="M 73,209 H 68"
             style="fill:none;stroke:#000000;stroke-width:1;stroke-linecap:square;stroke-linejoin:bevel;stroke-miterlimit:10;stroke-dasharray:none;stroke-opacity:1"
             id="path142"
             inkscape:connector-curvature="0" /><path
             d="M 73,149 H 68"
             style="fill:none;stroke:#000000;stroke-width:1;stroke-linecap:square;stroke-linejoin:bevel;stroke-miterlimit:10;stroke-dasharray:none;stroke-opacity:1"
             id="path144"
             inkscape:connector-curvature="0" /><path
             d="M 73,89 H 68"
             style="fill:none;stroke:#000000;stroke-width:1;stroke-linecap:square;stroke-linejoin:bevel;stroke-miterlimit:10;stroke-dasharray:none;stroke-opacity:1"
             id="path146"
             inkscape:connector-curvature="0" /><path
             d="M 73,358 H 64"
             style="fill:none;stroke:#000000;stroke-width:1;stroke-linecap:square;stroke-linejoin:bevel;stroke-miterlimit:10;stroke-dasharray:none;stroke-opacity:1"
             id="path148"
             inkscape:connector-curvature="0" /><path
             d="M 73,298 H 64"
             style="fill:none;stroke:#000000;stroke-width:1;stroke-linecap:square;stroke-linejoin:bevel;stroke-miterlimit:10;stroke-dasharray:none;stroke-opacity:1"
             id="path150"
             inkscape:connector-curvature="0" /><path
             d="M 73,238 H 64"
             style="fill:none;stroke:#000000;stroke-width:1;stroke-linecap:square;stroke-linejoin:bevel;stroke-miterlimit:10;stroke-dasharray:none;stroke-opacity:1"
             id="path152"
             inkscape:connector-curvature="0" /><path
             d="M 73,179 H 64"
             style="fill:none;stroke:#000000;stroke-width:1;stroke-linecap:square;stroke-linejoin:bevel;stroke-miterlimit:10;stroke-dasharray:none;stroke-opacity:1"
             id="path154"
             inkscape:connector-curvature="0" /><path
             d="M 73,119 H 64"
             style="fill:none;stroke:#000000;stroke-width:1;stroke-linecap:square;stroke-linejoin:bevel;stroke-miterlimit:10;stroke-dasharray:none;stroke-opacity:1"
             id="path156"
             inkscape:connector-curvature="0" /><path
             d="M 73,59 H 64"
             style="fill:none;stroke:#000000;stroke-width:1;stroke-linecap:square;stroke-linejoin:bevel;stroke-miterlimit:10;stroke-dasharray:none;stroke-opacity:1"
             id="path158"
             inkscape:connector-curvature="0" /><path
             d="M 73,59 V 358"
             style="fill:none;stroke:#000000;stroke-width:1;stroke-linecap:square;stroke-linejoin:bevel;stroke-miterlimit:10;stroke-dasharray:none;stroke-opacity:1"
             id="path160"
             inkscape:connector-curvature="0" /></g><g
           id="g162"
           transform="rotate(-90,444,-78)"><g
             id="g164" /></g><g
           id="g166" /><g
           id="g168"
           transform="translate(485,349)"><g
             id="g170"><text
               transform="translate(0,14)"
               style="font-variant:normal;font-weight:normal;font-size:14.67000008px;font-family:Ubuntu;-inkscape-font-specification:Ubuntu;writing-mode:lr-tb;fill:#3c3c3c;fill-opacity:1;fill-rule:nonzero;stroke:none"
               id="text174"><tspan
                 x="0 8.453125 16.90625 25.359375"
                 y="0"
                 sodipodi:role="line"
                 id="tspan172">100</tspan></text>
</g></g><g
           id="g176" /><g
           id="g178"
           transform="translate(485,289)"><g
             id="g180"><text
               transform="translate(0,14)"
               style="font-variant:normal;font-weight:normal;font-size:14.67000008px;font-family:Ubuntu;-inkscape-font-specification:Ubuntu;writing-mode:lr-tb;fill:#3c3c3c;fill-opacity:1;fill-rule:nonzero;stroke:none"
               id="text184"><tspan
                 x="0 8.453125 16.90625"
                 y="0"
                 sodipodi:role="line"
                 id="tspan182">80</tspan></text>
</g></g><g
           id="g186" /><g
           id="g188"
           transform="translate(485,229)"><g
             id="g190"><text
               transform="translate(0,14)"
               style="font-variant:normal;font-weight:normal;font-size:14.67000008px;font-family:Ubuntu;-inkscape-font-specification:Ubuntu;writing-mode:lr-tb;fill:#3c3c3c;fill-opacity:1;fill-rule:nonzero;stroke:none"
               id="text194"><tspan
                 x="0 8.453125 16.90625"
                 y="0"
                 sodipodi:role="line"
                 id="tspan192">60</tspan></text>
</g></g><g
           id="g196" /><g
           id="g198"
           transform="translate(485,170)"><g
             id="g200"><text
               transform="translate(0,14)"
               style="font-variant:normal;font-weight:normal;font-size:14.67000008px;font-family:Ubuntu;-inkscape-font-specification:Ubuntu;writing-mode:lr-tb;fill:#3c3c3c;fill-opacity:1;fill-rule:nonzero;stroke:none"
               id="text204"><tspan
                 x="0 8.453125 16.90625"
                 y="0"
                 sodipodi:role="line"
                 id="tspan202">40</tspan></text>
</g></g><g
           id="g206" /><g
           id="g208"
           transform="translate(485,110)"><g
             id="g210"><text
               transform="translate(0,14)"
               style="font-variant:normal;font-weight:normal;font-size:14.67000008px;font-family:Ubuntu;-inkscape-font-specification:Ubuntu;writing-mode:lr-tb;fill:#3c3c3c;fill-opacity:1;fill-rule:nonzero;stroke:none"
               id="text214"><tspan
                 x="0 8.453125 16.90625"
                 y="0"
                 sodipodi:role="line"
                 id="tspan212">20</tspan></text>
</g></g><g
           id="g216" /><g
           id="g218"
           transform="translate(486,50)"><g
             id="g220"><text
               transform="translate(0,14)"
               style="font-variant:normal;font-weight:normal;font-size:14.67000008px;font-family:Ubuntu;-inkscape-font-specification:Ubuntu;writing-mode:lr-tb;fill:#3c3c3c;fill-opacity:1;fill-rule:nonzero;stroke:none"
               id="text224"><tspan
                 x="0"
                 y="0"
                 id="tspan222">0</tspan></text>
</g></g><g
           id="g226"><path
             d="m 472,343 h 4"
             style="fill:none;stroke:#000000;stroke-width:1;stroke-linecap:square;stroke-linejoin:bevel;stroke-miterlimit:10;stroke-dasharray:none;stroke-opacity:1"
             id="path228"
             inkscape:connector-curvature="0" /><path
             d="m 472,313 h 4"
             style="fill:none;stroke:#000000;stroke-width:1;stroke-linecap:square;stroke-linejoin:bevel;stroke-miterlimit:10;stroke-dasharray:none;stroke-opacity:1"
             id="path230"
             inkscape:connector-curvature="0" /><path
             d="m 472,283 h 4"
             style="fill:none;stroke:#000000;stroke-width:1;stroke-linecap:square;stroke-linejoin:bevel;stroke-miterlimit:10;stroke-dasharray:none;stroke-opacity:1"
             id="path232"
             inkscape:connector-curvature="0" /><path
             d="m 472,253 h 4"
             style="fill:none;stroke:#000000;stroke-width:1;stroke-linecap:square;stroke-linejoin:bevel;stroke-miterlimit:10;stroke-dasharray:none;stroke-opacity:1"
             id="path234"
             inkscape:connector-curvature="0" /><path
             d="m 472,223 h 4"
             style="fill:none;stroke:#000000;stroke-width:1;stroke-linecap:square;stroke-linejoin:bevel;stroke-miterlimit:10;stroke-dasharray:none;stroke-opacity:1"
             id="path236"
             inkscape:connector-curvature="0" /><path
             d="m 472,194 h 4"
             style="fill:none;stroke:#000000;stroke-width:1;stroke-linecap:square;stroke-linejoin:bevel;stroke-miterlimit:10;stroke-dasharray:none;stroke-opacity:1"
             id="path238"
             inkscape:connector-curvature="0" /><path
             d="m 472,164 h 4"
             style="fill:none;stroke:#000000;stroke-width:1;stroke-linecap:square;stroke-linejoin:bevel;stroke-miterlimit:10;stroke-dasharray:none;stroke-opacity:1"
             id="path240"
             inkscape:connector-curvature="0" /><path
             d="m 472,134 h 4"
             style="fill:none;stroke:#000000;stroke-width:1;stroke-linecap:square;stroke-linejoin:bevel;stroke-miterlimit:10;stroke-dasharray:none;stroke-opacity:1"
             id="path242"
             inkscape:connector-curvature="0" /><path
             d="m 472,104 h 4"
             style="fill:none;stroke:#000000;stroke-width:1;stroke-linecap:square;stroke-linejoin:bevel;stroke-miterlimit:10;stroke-dasharray:none;stroke-opacity:1"
             id="path244"
             inkscape:connector-curvature="0" /><path
             d="m 472,74 h 4"
             style="fill:none;stroke:#000000;stroke-width:1;stroke-linecap:square;stroke-linejoin:bevel;stroke-miterlimit:10;stroke-dasharray:none;stroke-opacity:1"
             id="path246"
             inkscape:connector-curvature="0" /><path
             d="m 472,328 h 6"
             style="fill:none;stroke:#000000;stroke-width:1;stroke-linecap:square;stroke-linejoin:bevel;stroke-miterlimit:10;stroke-dasharray:none;stroke-opacity:1"
             id="path248"
             inkscape:connector-curvature="0" /><path
             d="m 472,268 h 6"
             style="fill:none;stroke:#000000;stroke-width:1;stroke-linecap:square;stroke-linejoin:bevel;stroke-miterlimit:10;stroke-dasharray:none;stroke-opacity:1"
             id="path250"
             inkscape:connector-curvature="0" /><path
             d="m 472,209 h 6"
             style="fill:none;stroke:#000000;stroke-width:1;stroke-linecap:square;stroke-linejoin:bevel;stroke-miterlimit:10;stroke-dasharray:none;stroke-opacity:1"
             id="path252"
             inkscape:connector-curvature="0" /><path
             d="m 472,149 h 6"
             style="fill:none;stroke:#000000;stroke-width:1;stroke-linecap:square;stroke-linejoin:bevel;stroke-miterlimit:10;stroke-dasharray:none;stroke-opacity:1"
             id="path254"
             inkscape:connector-curvature="0" /><path
             d="m 472,89 h 6"
             style="fill:none;stroke:#000000;stroke-width:1;stroke-linecap:square;stroke-linejoin:bevel;stroke-miterlimit:10;stroke-dasharray:none;stroke-opacity:1"
             id="path256"
             inkscape:connector-curvature="0" /><path
             d="m 472,358 h 8"
             style="fill:none;stroke:#000000;stroke-width:1;stroke-linecap:square;stroke-linejoin:bevel;stroke-miterlimit:10;stroke-dasharray:none;stroke-opacity:1"
             id="path258"
             inkscape:connector-curvature="0" /><path
             d="m 472,298 h 8"
             style="fill:none;stroke:#000000;stroke-width:1;stroke-linecap:square;stroke-linejoin:bevel;stroke-miterlimit:10;stroke-dasharray:none;stroke-opacity:1"
             id="path260"
             inkscape:connector-curvature="0" /><path
             d="m 472,238 h 8"
             style="fill:none;stroke:#000000;stroke-width:1;stroke-linecap:square;stroke-linejoin:bevel;stroke-miterlimit:10;stroke-dasharray:none;stroke-opacity:1"
             id="path262"
             inkscape:connector-curvature="0" /><path
             d="m 472,179 h 8"
             style="fill:none;stroke:#000000;stroke-width:1;stroke-linecap:square;stroke-linejoin:bevel;stroke-miterlimit:10;stroke-dasharray:none;stroke-opacity:1"
             id="path264"
             inkscape:connector-curvature="0" /><path
             d="m 472,119 h 8"
             style="fill:none;stroke:#000000;stroke-width:1;stroke-linecap:square;stroke-linejoin:bevel;stroke-miterlimit:10;stroke-dasharray:none;stroke-opacity:1"
             id="path266"
             inkscape:connector-curvature="0" /><path
             d="m 472,59 h 8"
             style="fill:none;stroke:#000000;stroke-width:1;stroke-linecap:square;stroke-linejoin:bevel;stroke-miterlimit:10;stroke-dasharray:none;stroke-opacity:1"
             id="path268"
             inkscape:connector-curvature="0" /><path
             d="M 472,59 V 358"
             style="fill:none;stroke:#000000;stroke-width:1;stroke-linecap:square;stroke-linejoin:bevel;stroke-miterlimit:10;stroke-dasharray:none;stroke-opacity:1"
             id="path270"
             inkscape:connector-curvature="0" /></g><g
           id="g272"
           transform="translate(68,391)"><g
             id="g274"><text
               transform="translate(174.95312,15)"
               style="font-variant:normal;font-weight:bold;font-size:14.67000008px;font-family:Ubuntu;-inkscape-font-specification:Ubuntu-Bold;writing-mode:lr-tb;fill:#000000;fill-opacity:1;fill-rule:nonzero;stroke:none"
               id="text278"><tspan
                 x="0 9.828125 18.578125 23.3125 32.40625 39.90625 44.234375 50.890625"
                 y="0"
                 sodipodi:role="line"
                 id="tspan276">Velocity</tspan></text>
</g></g><g
           id="g280" /><g
           id="g282"
           transform="translate(68,372)"><g
             id="g284"><text
               transform="translate(0,14)"
               style="font-variant:normal;font-weight:normal;font-size:14.67000008px;font-family:Ubuntu;-inkscape-font-specification:Ubuntu;writing-mode:lr-tb;fill:#3c3c3c;fill-opacity:1;fill-rule:nonzero;stroke:none"
               id="text288"><tspan
                 x="0"
                 y="0"
                 id="tspan286">0</tspan></text>
</g></g><g
           id="g290" /><g
           id="g292"
           transform="translate(162,372)"><g
             id="g294"><text
               transform="translate(0,14)"
               style="font-variant:normal;font-weight:normal;font-size:14.67000008px;font-family:Ubuntu;-inkscape-font-specification:Ubuntu;writing-mode:lr-tb;fill:#3c3c3c;fill-opacity:1;fill-rule:nonzero;stroke:none"
               id="text298"><tspan
                 x="0 8.453125 12.140625"
                 y="0"
                 sodipodi:role="line"
                 id="tspan296">0.5</tspan></text>
</g></g><g
           id="g300" /><g
           id="g302"
           transform="translate(269,372)"><g
             id="g304"><text
               transform="translate(0,14)"
               style="font-variant:normal;font-weight:normal;font-size:14.67000008px;font-family:Ubuntu;-inkscape-font-specification:Ubuntu;writing-mode:lr-tb;fill:#3c3c3c;fill-opacity:1;fill-rule:nonzero;stroke:none"
               id="text308"><tspan
                 x="0"
                 y="0"
                 id="tspan306">1</tspan></text>
</g></g><g
           id="g310" /><g
           id="g312"
           transform="translate(361,372)"><g
             id="g314"><text
               transform="translate(0,14)"
               style="font-variant:normal;font-weight:normal;font-size:14.67000008px;font-family:Ubuntu;-inkscape-font-specification:Ubuntu;writing-mode:lr-tb;fill:#3c3c3c;fill-opacity:1;fill-rule:nonzero;stroke:none"
               id="text318"><tspan
                 x="0 8.453125 12.140625"
                 y="0"
                 sodipodi:role="line"
                 id="tspan316">1.5</tspan></text>
</g></g><g
           id="g320" /><g
           id="g322"
           transform="translate(467,372)"><g
             id="g324"><text
               transform="translate(0,14)"
               style="font-variant:normal;font-weight:normal;font-size:14.67000008px;font-family:Ubuntu;-inkscape-font-specification:Ubuntu;writing-mode:lr-tb;fill:#3c3c3c;fill-opacity:1;fill-rule:nonzero;stroke:none"
               id="text328"><tspan
                 x="0"
                 y="0"
                 id="tspan326">2</tspan></text>
</g></g><g
           id="g330"><path
             d="m 93,358 v 5"
             style="fill:none;stroke:#000000;stroke-width:1;stroke-linecap:square;stroke-linejoin:bevel;stroke-miterlimit:10;stroke-dasharray:none;stroke-opacity:1"
             id="path332"
             inkscape:connector-curvature="0" /><path
             d="m 113,358 v 5"
             style="fill:none;stroke:#000000;stroke-width:1;stroke-linecap:square;stroke-linejoin:bevel;stroke-miterlimit:10;stroke-dasharray:none;stroke-opacity:1"
             id="path334"
             inkscape:connector-curvature="0" /><path
             d="m 133,358 v 5"
             style="fill:none;stroke:#000000;stroke-width:1;stroke-linecap:square;stroke-linejoin:bevel;stroke-miterlimit:10;stroke-dasharray:none;stroke-opacity:1"
             id="path336"
             inkscape:connector-curvature="0" /><path
             d="m 153,358 v 5"
             style="fill:none;stroke:#000000;stroke-width:1;stroke-linecap:square;stroke-linejoin:bevel;stroke-miterlimit:10;stroke-dasharray:none;stroke-opacity:1"
             id="path338"
             inkscape:connector-curvature="0" /><path
             d="m 193,358 v 5"
             style="fill:none;stroke:#000000;stroke-width:1;stroke-linecap:square;stroke-linejoin:bevel;stroke-miterlimit:10;stroke-dasharray:none;stroke-opacity:1"
             id="path340"
             inkscape:connector-curvature="0" /><path
             d="m 213,358 v 5"
             style="fill:none;stroke:#000000;stroke-width:1;stroke-linecap:square;stroke-linejoin:bevel;stroke-miterlimit:10;stroke-dasharray:none;stroke-opacity:1"
             id="path342"
             inkscape:connector-curvature="0" /><path
             d="m 233,358 v 5"
             style="fill:none;stroke:#000000;stroke-width:1;stroke-linecap:square;stroke-linejoin:bevel;stroke-miterlimit:10;stroke-dasharray:none;stroke-opacity:1"
             id="path344"
             inkscape:connector-curvature="0" /><path
             d="m 253,358 v 5"
             style="fill:none;stroke:#000000;stroke-width:1;stroke-linecap:square;stroke-linejoin:bevel;stroke-miterlimit:10;stroke-dasharray:none;stroke-opacity:1"
             id="path346"
             inkscape:connector-curvature="0" /><path
             d="m 292,358 v 5"
             style="fill:none;stroke:#000000;stroke-width:1;stroke-linecap:square;stroke-linejoin:bevel;stroke-miterlimit:10;stroke-dasharray:none;stroke-opacity:1"
             id="path348"
             inkscape:connector-curvature="0" /><path
             d="m 312,358 v 5"
             style="fill:none;stroke:#000000;stroke-width:1;stroke-linecap:square;stroke-linejoin:bevel;stroke-miterlimit:10;stroke-dasharray:none;stroke-opacity:1"
             id="path350"
             inkscape:connector-curvature="0" /><path
             d="m 332,358 v 5"
             style="fill:none;stroke:#000000;stroke-width:1;stroke-linecap:square;stroke-linejoin:bevel;stroke-miterlimit:10;stroke-dasharray:none;stroke-opacity:1"
             id="path352"
             inkscape:connector-curvature="0" /><path
             d="m 352,358 v 5"
             style="fill:none;stroke:#000000;stroke-width:1;stroke-linecap:square;stroke-linejoin:bevel;stroke-miterlimit:10;stroke-dasharray:none;stroke-opacity:1"
             id="path354"
             inkscape:connector-curvature="0" /><path
             d="m 392,358 v 5"
             style="fill:none;stroke:#000000;stroke-width:1;stroke-linecap:square;stroke-linejoin:bevel;stroke-miterlimit:10;stroke-dasharray:none;stroke-opacity:1"
             id="path356"
             inkscape:connector-curvature="0" /><path
             d="m 412,358 v 5"
             style="fill:none;stroke:#000000;stroke-width:1;stroke-linecap:square;stroke-linejoin:bevel;stroke-miterlimit:10;stroke-dasharray:none;stroke-opacity:1"
             id="path358"
             inkscape:connector-curvature="0" /><path
             d="m 432,358 v 5"
             style="fill:none;stroke:#000000;stroke-width:1;stroke-linecap:square;stroke-linejoin:bevel;stroke-miterlimit:10;stroke-dasharray:none;stroke-opacity:1"
             id="path360"
             inkscape:connector-curvature="0" /><path
             d="m 452,358 v 5"
             style="fill:none;stroke:#000000;stroke-width:1;stroke-linecap:square;stroke-linejoin:bevel;stroke-miterlimit:10;stroke-dasharray:none;stroke-opacity:1"
             id="path362"
             inkscape:connector-curvature="0" /><path
             d="m 73,358 v 9"
             style="fill:none;stroke:#000000;stroke-width:1;stroke-linecap:square;stroke-linejoin:bevel;stroke-miterlimit:10;stroke-dasharray:none;stroke-opacity:1"
             id="path364"
             inkscape:connector-curvature="0" /><path
             d="m 173,358 v 9"
             style="fill:none;stroke:#000000;stroke-width:1;stroke-linecap:square;stroke-linejoin:bevel;stroke-miterlimit:10;stroke-dasharray:none;stroke-opacity:1"
             id="path366"
             inkscape:connector-curvature="0" /><path
             d="m 273,358 v 9"
             style="fill:none;stroke:#000000;stroke-width:1;stroke-linecap:square;stroke-linejoin:bevel;stroke-miterlimit:10;stroke-dasharray:none;stroke-opacity:1"
             id="path368"
             inkscape:connector-curvature="0" /><path
             d="m 372,358 v 9"
             style="fill:none;stroke:#000000;stroke-width:1;stroke-linecap:square;stroke-linejoin:bevel;stroke-miterlimit:10;stroke-dasharray:none;stroke-opacity:1"
             id="path370"
             inkscape:connector-curvature="0" /><path
             d="m 472,358 v 9"
             style="fill:none;stroke:#000000;stroke-width:1;stroke-linecap:square;stroke-linejoin:bevel;stroke-miterlimit:10;stroke-dasharray:none;stroke-opacity:1"
             id="path372"
             inkscape:connector-curvature="0" /><path
             d="M 73,358 H 472"
             style="fill:none;stroke:#000000;stroke-width:1;stroke-linecap:square;stroke-linejoin:bevel;stroke-miterlimit:10;stroke-dasharray:none;stroke-opacity:1"
             id="path374"
             inkscape:connector-curvature="0" /></g><g
           id="g376"
           transform="translate(68,29)" /><g
           id="g378" /><g
           id="g380"
           transform="translate(68,29)"><g
             id="g382"><text
               transform="translate(0,14)"
               style="font-variant:normal;font-weight:normal;font-size:14.67000008px;font-family:Ubuntu;-inkscape-font-specification:Ubuntu;writing-mode:lr-tb;fill:#3c3c3c;fill-opacity:1;fill-rule:nonzero;stroke:none"
               id="text386"><tspan
                 x="0"
                 y="0"
                 id="tspan384">0</tspan></text>
</g></g><g
           id="g388" /><g
           id="g390"
           transform="translate(162,29)"><g
             id="g392"><text
               transform="translate(0,14)"
               style="font-variant:normal;font-weight:normal;font-size:14.67000008px;font-family:Ubuntu;-inkscape-font-specification:Ubuntu;writing-mode:lr-tb;fill:#3c3c3c;fill-opacity:1;fill-rule:nonzero;stroke:none"
               id="text396"><tspan
                 x="0 8.453125 12.140625"
                 y="0"
                 sodipodi:role="line"
                 id="tspan394">0.5</tspan></text>
</g></g><g
           id="g398" /><g
           id="g400"
           transform="translate(269,29)"><g
             id="g402"><text
               transform="translate(0,14)"
               style="font-variant:normal;font-weight:normal;font-size:14.67000008px;font-family:Ubuntu;-inkscape-font-specification:Ubuntu;writing-mode:lr-tb;fill:#3c3c3c;fill-opacity:1;fill-rule:nonzero;stroke:none"
               id="text406"><tspan
                 x="0"
                 y="0"
                 id="tspan404">1</tspan></text>
</g></g><g
           id="g408" /><g
           id="g410"
           transform="translate(361,29)"><g
             id="g412"><text
               transform="translate(0,14)"
               style="font-variant:normal;font-weight:normal;font-size:14.67000008px;font-family:Ubuntu;-inkscape-font-specification:Ubuntu;writing-mode:lr-tb;fill:#3c3c3c;fill-opacity:1;fill-rule:nonzero;stroke:none"
               id="text416"><tspan
                 x="0 8.453125 12.140625"
                 y="0"
                 sodipodi:role="line"
                 id="tspan414">1.5</tspan></text>
</g></g><g
           id="g418" /><g
           id="g420"
           transform="translate(467,29)"><g
             id="g422"><text
               transform="translate(0,14)"
               style="font-variant:normal;font-weight:normal;font-size:14.67000008px;font-family:Ubuntu;-inkscape-font-specification:Ubuntu;writing-mode:lr-tb;fill:#3c3c3c;fill-opacity:1;fill-rule:nonzero;stroke:none"
               id="text426"><tspan
                 x="0"
                 y="0"
                 id="tspan424">2</tspan></text>
</g></g><g
           id="g428"><path
             d="M 93,59 V 55"
             style="fill:none;stroke:#000000;stroke-width:1;stroke-linecap:square;stroke-linejoin:bevel;stroke-miterlimit:10;stroke-dasharray:none;stroke-opacity:1"
             id="path430"
             inkscape:connector-curvature="0" /><path
             d="M 113,59 V 55"
             style="fill:none;stroke:#000000;stroke-width:1;stroke-linecap:square;stroke-linejoin:bevel;stroke-miterlimit:10;stroke-dasharray:none;stroke-opacity:1"
             id="path432"
             inkscape:connector-curvature="0" /><path
             d="M 133,59 V 55"
             style="fill:none;stroke:#000000;stroke-width:1;stroke-linecap:square;stroke-linejoin:bevel;stroke-miterlimit:10;stroke-dasharray:none;stroke-opacity:1"
             id="path434"
             inkscape:connector-curvature="0" /><path
             d="M 153,59 V 55"
             style="fill:none;stroke:#000000;stroke-width:1;stroke-linecap:square;stroke-linejoin:bevel;stroke-miterlimit:10;stroke-dasharray:none;stroke-opacity:1"
             id="path436"
             inkscape:connector-curvature="0" /><path
             d="M 193,59 V 55"
             style="fill:none;stroke:#000000;stroke-width:1;stroke-linecap:square;stroke-linejoin:bevel;stroke-miterlimit:10;stroke-dasharray:none;stroke-opacity:1"
             id="path438"
             inkscape:connector-curvature="0" /><path
             d="M 213,59 V 55"
             style="fill:none;stroke:#000000;stroke-width:1;stroke-linecap:square;stroke-linejoin:bevel;stroke-miterlimit:10;stroke-dasharray:none;stroke-opacity:1"
             id="path440"
             inkscape:connector-curvature="0" /><path
             d="M 233,59 V 55"
             style="fill:none;stroke:#000000;stroke-width:1;stroke-linecap:square;stroke-linejoin:bevel;stroke-miterlimit:10;stroke-dasharray:none;stroke-opacity:1"
             id="path442"
             inkscape:connector-curvature="0" /><path
             d="M 253,59 V 55"
             style="fill:none;stroke:#000000;stroke-width:1;stroke-linecap:square;stroke-linejoin:bevel;stroke-miterlimit:10;stroke-dasharray:none;stroke-opacity:1"
             id="path444"
             inkscape:connector-curvature="0" /><path
             d="M 292,59 V 55"
             style="fill:none;stroke:#000000;stroke-width:1;stroke-linecap:square;stroke-linejoin:bevel;stroke-miterlimit:10;stroke-dasharray:none;stroke-opacity:1"
             id="path446"
             inkscape:connector-curvature="0" /><path
             d="M 312,59 V 55"
             style="fill:none;stroke:#000000;stroke-width:1;stroke-linecap:square;stroke-linejoin:bevel;stroke-miterlimit:10;stroke-dasharray:none;stroke-opacity:1"
             id="path448"
             inkscape:connector-curvature="0" /><path
             d="M 332,59 V 55"
             style="fill:none;stroke:#000000;stroke-width:1;stroke-linecap:square;stroke-linejoin:bevel;stroke-miterlimit:10;stroke-dasharray:none;stroke-opacity:1"
             id="path450"
             inkscape:connector-curvature="0" /><path
             d="M 352,59 V 55"
             style="fill:none;stroke:#000000;stroke-width:1;stroke-linecap:square;stroke-linejoin:bevel;stroke-miterlimit:10;stroke-dasharray:none;stroke-opacity:1"
             id="path452"
             inkscape:connector-curvature="0" /><path
             d="M 392,59 V 55"
             style="fill:none;stroke:#000000;stroke-width:1;stroke-linecap:square;stroke-linejoin:bevel;stroke-miterlimit:10;stroke-dasharray:none;stroke-opacity:1"
             id="path454"
             inkscape:connector-curvature="0" /><path
             d="M 412,59 V 55"
             style="fill:none;stroke:#000000;stroke-width:1;stroke-linecap:square;stroke-linejoin:bevel;stroke-miterlimit:10;stroke-dasharray:none;stroke-opacity:1"
             id="path456"
             inkscape:connector-curvature="0" /><path
             d="M 432,59 V 55"
             style="fill:none;stroke:#000000;stroke-width:1;stroke-linecap:square;stroke-linejoin:bevel;stroke-miterlimit:10;stroke-dasharray:none;stroke-opacity:1"
             id="path458"
             inkscape:connector-curvature="0" /><path
             d="M 452,59 V 55"
             style="fill:none;stroke:#000000;stroke-width:1;stroke-linecap:square;stroke-linejoin:bevel;stroke-miterlimit:10;stroke-dasharray:none;stroke-opacity:1"
             id="path460"
             inkscape:connector-curvature="0" /><path
             d="M 73,59 V 51"
             style="fill:none;stroke:#000000;stroke-width:1;stroke-linecap:square;stroke-linejoin:bevel;stroke-miterlimit:10;stroke-dasharray:none;stroke-opacity:1"
             id="path462"
             inkscape:connector-curvature="0" /><path
             d="M 173,59 V 51"
             style="fill:none;stroke:#000000;stroke-width:1;stroke-linecap:square;stroke-linejoin:bevel;stroke-miterlimit:10;stroke-dasharray:none;stroke-opacity:1"
             id="path464"
             inkscape:connector-curvature="0" /><path
             d="M 273,59 V 51"
             style="fill:none;stroke:#000000;stroke-width:1;stroke-linecap:square;stroke-linejoin:bevel;stroke-miterlimit:10;stroke-dasharray:none;stroke-opacity:1"
             id="path466"
             inkscape:connector-curvature="0" /><path
             d="M 372,59 V 51"
             style="fill:none;stroke:#000000;stroke-width:1;stroke-linecap:square;stroke-linejoin:bevel;stroke-miterlimit:10;stroke-dasharray:none;stroke-opacity:1"
             id="path468"
             inkscape:connector-curvature="0" /><path
             d="M 472,59 V 51"
             style="fill:none;stroke:#000000;stroke-width:1;stroke-linecap:square;stroke-linejoin:bevel;stroke-miterlimit:10;stroke-dasharray:none;stroke-opacity:1"
             id="path470"
             inkscape:connector-curvature="0" /><path
             d="M 73,59 H 472"
             style="fill:none;stroke:#000000;stroke-width:1;stroke-linecap:square;stroke-linejoin:bevel;stroke-miterlimit:10;stroke-dasharray:none;stroke-opacity:1"
             id="path472"
             inkscape:connector-curvature="0" /><path
             d="m 83,69 h 91 V 97 H 83 Z"
             style="fill:none;stroke:#000000;stroke-width:1;stroke-linecap:square;stroke-linejoin:miter;stroke-miterlimit:10;stroke-dasharray:none;stroke-opacity:1"
             id="path474"
             inkscape:connector-curvature="0" /></g><g
           id="g476"
           transform="translate(83,69)"><path
             d="M 11,14 H 43"
             style="fill:none;stroke:#000000;stroke-width:1;stroke-linecap:square;stroke-linejoin:miter;stroke-miterlimit:10;stroke-dasharray:none;stroke-opacity:1"
             id="path478"
             inkscape:connector-curvature="0" /><g
             id="g480"><text
               transform="translate(53,20)"
               style="font-variant:normal;font-weight:normal;font-size:14.67000008px;font-family:Ubuntu;-inkscape-font-specification:Ubuntu;writing-mode:lr-tb;fill:#000000;fill-opacity:1;fill-rule:nonzero;stroke:none"
               id="text484"><tspan
                 x="0 8.046875 15.421875 21.203125"
                 y="0"
                 sodipodi:role="line"
                 id="tspan482">F_rr</tspan></text>
</g></g><g
           id="g486" /></g></g></g></svg>