<?xml version="1.0" encoding="UTF-8" standalone="no"?>
<!-- Created with Inkscape (http://www.inkscape.org/) -->

<svg
   xmlns:dc="http://purl.org/dc/elements/1.1/"
   xmlns:cc="http://creativecommons.org/ns#"
   xmlns:rdf="http://www.w3.org/1999/02/22-rdf-syntax-ns#"
   xmlns:svg="http://www.w3.org/2000/svg"
   xmlns="http://www.w3.org/2000/svg"
   xmlns:sodipodi="http://sodipodi.sourceforge.net/DTD/sodipodi-0.dtd"
   xmlns:inkscape="http://www.inkscape.org/namespaces/inkscape"
   version="1.1"
   id="svg2"
   xml:space="preserve"
   width="805.33331"
   height="509.33334"
   viewBox="0 0 805.33331 509.33334"
   sodipodi:docname="wheel_forces.svg"
   inkscape:version="0.92.3 (2405546, 2018-03-11)"><metadata
     id="metadata8"><rdf:RDF><cc:Work
         rdf:about=""><dc:format>image/svg+xml</dc:format><dc:type
           rdf:resource="http://purl.org/dc/dcmitype/StillImage" /><dc:title></dc:title></cc:Work></rdf:RDF></metadata><defs
     id="defs6"><clipPath
       clipPathUnits="userSpaceOnUse"
       id="clipPath30"><path
         d="M 0,0 H 604 V 382 H 0 Z"
         id="path28"
         inkscape:connector-curvature="0"
         style="clip-rule:evenodd" /></clipPath><clipPath
       clipPathUnits="userSpaceOnUse"
       id="clipPath46"><path
         d="M 0,0 H 604 V 382 H 0 Z"
         id="path44"
         inkscape:connector-curvature="0"
         style="clip-rule:evenodd" /></clipPath><clipPath
       clipPathUnits="userSpaceOnUse"
       id="clipPath52"><path
         d="M 0,0 H 604 V 381 H 0 Z"
         id="path50"
         inkscape:connector-curvature="0"
         style="clip-rule:evenodd" /></clipPath><clipPath
       clipPathUnits="userSpaceOnUse"
       id="clipPath906"><path
         d="M 0,0 H 604 V 382 H 0 Z"
         id="path904"
         inkscape:connector-curvature="0"
         style="clip-rule:evenodd" /></clipPath><clipPath
       clipPathUnits="userSpaceOnUse"
       id="clipPath918"><path
         d="M 0,0 H 604 V 382 H 0 Z"
         id="path916"
         inkscape:connector-curvature="0"
         style="clip-rule:evenodd" /></clipPath><clipPath
       clipPathUnits="userSpaceOnUse"
       id="clipPath924"><path
         d="M 0,0 H 604 V 381 H 0 Z"
         id="path922"
         inkscape:connector-curvature="0"
         style="clip-rule:evenodd" /></clipPath><clipPath
       clipPathUnits="userSpaceOnUse"
       id="clipPath938"><path
         d="M 0,0 H 604 V 382 H 0 Z"
         id="path936"
         inkscape:connector-curvature="0"
         style="clip-rule:evenodd" /></clipPath></defs><sodipodi:namedview
     pagecolor="#ffffff"
     bordercolor="#666666"
     borderopacity="1"
     objecttolerance="10"
     gridtolerance="10"
     guidetolerance="10"
     inkscape:pageopacity="0"
     inkscape:pageshadow="2"
     inkscape:window-width="710"
     inkscape:window-height="480"
     id="namedview4"
     showgrid="false"
     inkscape:zoom="0.42466888"
     inkscape:cx="402.66666"
     inkscape:cy="254.66667"
     inkscape:window-x="67"
     inkscape:window-y="27"
     inkscape:window-maximized="0"
     inkscape:current-layer="g10" /><g
     id="g10"
     inkscape:groupmode="layer"
     inkscape:label="wheel_forces"
     transform="matrix(1.3333333,0,0,-1.3333333,0,509.33333)"><g
       id="g12"
       transform="matrix(1,0,0,-1,0,382)"><g
         id="g14"><g
           id="g16" /></g><g
         id="g18"><g
           id="g20" /><g
           id="g22" /></g><g
         id="g24"><g
           id="g26"
           clip-path="url(#clipPath30)"><g
             id="g32" /><g
             id="g34"><path
               d="M 0,0 H 604 V 381 H 0 Z"
               style="fill:#ffffff;fill-opacity:1;fill-rule:nonzero;stroke:none"
               id="path36"
               inkscape:connector-curvature="0" /></g><g
             id="g38" /></g></g><g
         id="g40"><g
           id="g42"
           clip-path="url(#clipPath46)"><g
             id="g48"
             clip-path="url(#clipPath52)"><g
               id="g54" /><g
               id="g56"
               transform="translate(0.5,0.5)"><path
                 d="M 280,220 C 280,286.27417 226.27417,340 160,340 93.72583,340 40,286.27417 40,220 40,153.72583 93.72583,100 160,100 c 66.27417,0 120,53.72583 120,120 z"
                 style="fill:none;stroke:#000000;stroke-width:1;stroke-linecap:butt;stroke-linejoin:miter;stroke-miterlimit:10;stroke-dasharray:none;stroke-opacity:1"
                 id="path58"
                 inkscape:connector-curvature="0" /></g><g
               id="g60" /><g
               id="g62"
               transform="translate(0.5,0.5)"><path
                 d="m 160,223 v 30.63"
                 style="fill:none;stroke:#000000;stroke-width:1;stroke-linecap:butt;stroke-linejoin:miter;stroke-miterlimit:10;stroke-dasharray:none;stroke-opacity:1"
                 id="path64"
                 inkscape:connector-curvature="0" /></g><g
               id="g66"><path
                 d="m 163.5,220.5 c 0,1.65685 -1.34315,3 -3,3 -1.65686,0 -3,-1.34315 -3,-3 0,-1.65686 1.34314,-3 3,-3 1.65685,0 3,1.34314 3,3 z"
                 style="fill:#000000;fill-opacity:1;fill-rule:nonzero;stroke:none"
                 id="path68"
                 inkscape:connector-curvature="0" /></g><g
               id="g70"
               transform="translate(0.5,0.5)"><path
                 d="m 163,220 c 0,1.65685 -1.34315,3 -3,3 -1.65686,0 -3,-1.34315 -3,-3 0,-1.65686 1.34314,-3 3,-3 1.65685,0 3,1.34314 3,3 z"
                 style="fill:none;stroke:#000000;stroke-width:1;stroke-linecap:butt;stroke-linejoin:miter;stroke-miterlimit:10;stroke-dasharray:none;stroke-opacity:1"
                 id="path72"
                 inkscape:connector-curvature="0" /></g><g
               id="g74"><path
                 d="m 160.5,259.38 -3.5,-7 3.5,1.75 3.5,-1.75 z"
                 style="fill:#000000;fill-opacity:1;fill-rule:nonzero;stroke:none"
                 id="path76"
                 inkscape:connector-curvature="0" /></g><g
               id="g78"
               transform="translate(0.5,0.5)"><path
                 d="m 160,258.88 -3.5,-7 3.5,1.75 3.5,-1.75 z"
                 style="fill:none;stroke:#000000;stroke-width:1;stroke-linecap:butt;stroke-linejoin:miter;stroke-miterlimit:10;stroke-dasharray:none;stroke-opacity:1"
                 id="path80"
                 inkscape:connector-curvature="0" /></g><g
               id="g82" /><g
               id="g84"
               transform="translate(0.5,0.5)"><path
                 d="M 40,20 H 280"
                 style="fill:none;stroke:#000000;stroke-width:1;stroke-linecap:butt;stroke-linejoin:miter;stroke-miterlimit:10;stroke-dasharray:none;stroke-opacity:1"
                 id="path86"
                 inkscape:connector-curvature="0" /></g><g
               id="g88" /><g
               id="g90"
               transform="translate(0.5,0.5)"><path
                 d="M 280,220 V 20"
                 style="fill:none;stroke:#000000;stroke-width:1;stroke-linecap:butt;stroke-linejoin:miter;stroke-miterlimit:10;stroke-dasharray:3, 3;stroke-dashoffset:0;stroke-opacity:1"
                 id="path92"
                 inkscape:connector-curvature="0" /></g><g
               id="g94" /><g
               id="g96"
               transform="translate(0.5,0.5)" /><g
               id="g98" /><g
               id="g100"
               transform="translate(162,3)"><g
                 id="g102" /></g><g
               id="g104"><path
                 d="m 163.86914,11.623047 c 0.28516,0.453125 0.74219,0.679687 1.37109,0.679687 0.48828,0 0.88965,-0.209961 1.2041,-0.629882 0.31446,-0.419922 0.47168,-1.022461 0.47168,-1.8076176 0,-0.7929688 -0.1621,-1.3798828 -0.48632,-1.7607422 -0.32422,-0.3808594 -0.72461,-0.5712891 -1.20118,-0.5712891 -0.53125,0 -0.96191,0.203125 -1.29199,0.609375 -0.33008,0.40625 -0.49511,1.0039063 -0.49511,1.7929688 0,0.6718751 0.14257,1.2343751 0.42773,1.6875001 z m 2.36719,-4.7050783 c 0.1875,0.1171875 0.40039,0.3222657 0.63867,0.6152344 V 4.3632812 h 1.01367 V 13 h -0.94922 v -0.873047 c -0.24609,0.386719 -0.53711,0.666016 -0.87304,0.837891 -0.33594,0.171875 -0.72071,0.257812 -1.1543,0.257812 -0.69922,0 -1.30469,-0.293945 -1.81641,-0.881836 -0.51172,-0.58789 -0.76757,-1.370117 -0.76757,-2.3466794 0,-0.9140625 0.23339,-1.7060547 0.70019,-2.3759765 0.4668,-0.6699219 1.13379,-1.0048829 2.00098,-1.0048829 0.48046,0 0.88281,0.1015625 1.20703,0.3046875 z"
                 style="fill:#000000;fill-opacity:1;fill-rule:nonzero;stroke:none"
                 id="path106"
                 inkscape:connector-curvature="0" /></g><g
               id="g108"
               transform="translate(162,3)"><g
                 id="g110" /></g><g
               id="g112" /><g
               id="g114"
               transform="translate(0.5,0.5)"><path
                 d="m 400,100 h 80 v 240 h -80 z"
                 style="fill:none;stroke:#000000;stroke-width:1;stroke-linecap:butt;stroke-linejoin:miter;stroke-miterlimit:10;stroke-dasharray:none;stroke-opacity:1"
                 id="path116"
                 inkscape:connector-curvature="0" /></g><g
               id="g118" /><g
               id="g120"
               transform="translate(0.5,0.5)"><path
                 d="M 400,100 V 20"
                 style="fill:none;stroke:#000000;stroke-width:1;stroke-linecap:butt;stroke-linejoin:miter;stroke-miterlimit:10;stroke-dasharray:3, 3;stroke-dashoffset:0;stroke-opacity:1"
                 id="path122"
                 inkscape:connector-curvature="0" /></g><g
               id="g124" /><g
               id="g126"
               transform="translate(0.5,0.5)"><path
                 d="m 400,20 h 80"
                 style="fill:none;stroke:#000000;stroke-width:1;stroke-linecap:butt;stroke-linejoin:miter;stroke-miterlimit:10;stroke-dasharray:none;stroke-opacity:1"
                 id="path128"
                 inkscape:connector-curvature="0" /></g><g
               id="g130" /><g
               id="g132"
               transform="translate(0.5,0.5)" /><g
               id="g134" /><g
               id="g136"
               transform="translate(442,3)"><g
                 id="g138" /></g><g
               id="g140"><path
                 d="m 443.25977,6.7246094 1.20703,4.9453126 1.22461,-4.9453126 h 1.18359 l 1.23047,4.9160156 1.2832,-4.9160156 h 1.05469 L 448.62109,13 h -1.0957 L 446.24805,8.1425781 445.01172,13 h -1.09571 l -1.81054,-6.2753906 z"
                 style="fill:#000000;fill-opacity:1;fill-rule:nonzero;stroke:none"
                 id="path142"
                 inkscape:connector-curvature="0" /></g><g
               id="g144"
               transform="translate(442,3)"><g
                 id="g146" /></g><g
               id="g148" /><g
               id="g150"
               transform="translate(0.5,0.5)"><path
                 d="m 440,223 v 30.63"
                 style="fill:none;stroke:#000000;stroke-width:1;stroke-linecap:butt;stroke-linejoin:miter;stroke-miterlimit:10;stroke-dasharray:none;stroke-opacity:1"
                 id="path152"
                 inkscape:connector-curvature="0" /></g><g
               id="g154"><path
                 d="m 443.5,220.5 c 0,1.65685 -1.34315,3 -3,3 -1.65686,0 -3,-1.34315 -3,-3 0,-1.65686 1.34314,-3 3,-3 1.65685,0 3,1.34314 3,3 z"
                 style="fill:#000000;fill-opacity:1;fill-rule:nonzero;stroke:none"
                 id="path156"
                 inkscape:connector-curvature="0" /></g><g
               id="g158"
               transform="translate(0.5,0.5)"><path
                 d="m 443,220 c 0,1.65685 -1.34315,3 -3,3 -1.65686,0 -3,-1.34315 -3,-3 0,-1.65686 1.34314,-3 3,-3 1.65685,0 3,1.34314 3,3 z"
                 style="fill:none;stroke:#000000;stroke-width:1;stroke-linecap:butt;stroke-linejoin:miter;stroke-miterlimit:10;stroke-dasharray:none;stroke-opacity:1"
                 id="path160"
                 inkscape:connector-curvature="0" /></g><g
               id="g162"><path
                 d="m 440.5,259.38 -3.5,-7 3.5,1.75 3.5,-1.75 z"
                 style="fill:#000000;fill-opacity:1;fill-rule:nonzero;stroke:none"
                 id="path164"
                 inkscape:connector-curvature="0" /></g><g
               id="g166"
               transform="translate(0.5,0.5)"><path
                 d="m 440,258.88 -3.5,-7 3.5,1.75 3.5,-1.75 z"
                 style="fill:none;stroke:#000000;stroke-width:1;stroke-linecap:butt;stroke-linejoin:miter;stroke-miterlimit:10;stroke-dasharray:none;stroke-opacity:1"
                 id="path168"
                 inkscape:connector-curvature="0" /></g><g
               id="g170" /><g
               id="g172"
               transform="translate(0.5,0.5)"><path
                 d="M 40,220 V 20"
                 style="fill:none;stroke:#000000;stroke-width:1;stroke-linecap:butt;stroke-linejoin:miter;stroke-miterlimit:10;stroke-dasharray:3, 3;stroke-dashoffset:0;stroke-opacity:1"
                 id="path174"
                 inkscape:connector-curvature="0" /></g><g
               id="g176" /><g
               id="g178"
               transform="translate(0.5,0.5)"><path
                 d="M 480.01999,100.6 480,20"
                 style="fill:none;stroke:#000000;stroke-width:1;stroke-linecap:butt;stroke-linejoin:miter;stroke-miterlimit:10;stroke-dasharray:3, 3;stroke-dashoffset:0;stroke-opacity:1"
                 id="path180"
                 inkscape:connector-curvature="0" /></g><g
               id="g182" /><g
               id="g184"
               transform="translate(0.5,0.5)"><path
                 d="M 0,340 H 601.59998"
                 style="fill:none;stroke:#000000;stroke-width:1;stroke-linecap:butt;stroke-linejoin:miter;stroke-miterlimit:10;stroke-dasharray:none;stroke-opacity:1"
                 id="path186"
                 inkscape:connector-curvature="0" /></g><g
               id="g188" /><g
               id="g190"
               transform="translate(0.5,0.5)"><path
                 d="M 0,360 20,340"
                 style="fill:none;stroke:#000000;stroke-width:1;stroke-linecap:butt;stroke-linejoin:miter;stroke-miterlimit:10;stroke-dasharray:none;stroke-opacity:1"
                 id="path192"
                 inkscape:connector-curvature="0" /></g><g
               id="g194" /><g
               id="g196"
               transform="translate(0.5,0.5)"><path
                 d="M 20,360 40,340"
                 style="fill:none;stroke:#000000;stroke-width:1;stroke-linecap:butt;stroke-linejoin:miter;stroke-miterlimit:10;stroke-dasharray:none;stroke-opacity:1"
                 id="path198"
                 inkscape:connector-curvature="0" /></g><g
               id="g200" /><g
               id="g202"
               transform="translate(0.5,0.5)"><path
                 d="M 40,360 60,340"
                 style="fill:none;stroke:#000000;stroke-width:1;stroke-linecap:butt;stroke-linejoin:miter;stroke-miterlimit:10;stroke-dasharray:none;stroke-opacity:1"
                 id="path204"
                 inkscape:connector-curvature="0" /></g><g
               id="g206" /><g
               id="g208"
               transform="translate(0.5,0.5)"><path
                 d="M 60,360 80,340"
                 style="fill:none;stroke:#000000;stroke-width:1;stroke-linecap:butt;stroke-linejoin:miter;stroke-miterlimit:10;stroke-dasharray:none;stroke-opacity:1"
                 id="path210"
                 inkscape:connector-curvature="0" /></g><g
               id="g212" /><g
               id="g214"
               transform="translate(0.5,0.5)"><path
                 d="m 80,360 20,-20"
                 style="fill:none;stroke:#000000;stroke-width:1;stroke-linecap:butt;stroke-linejoin:miter;stroke-miterlimit:10;stroke-dasharray:none;stroke-opacity:1"
                 id="path216"
                 inkscape:connector-curvature="0" /></g><g
               id="g218" /><g
               id="g220"
               transform="translate(0.5,0.5)"><path
                 d="m 100,360 20,-20"
                 style="fill:none;stroke:#000000;stroke-width:1;stroke-linecap:butt;stroke-linejoin:miter;stroke-miterlimit:10;stroke-dasharray:none;stroke-opacity:1"
                 id="path222"
                 inkscape:connector-curvature="0" /></g><g
               id="g224" /><g
               id="g226"
               transform="translate(0.5,0.5)"><path
                 d="m 120,360 20,-20"
                 style="fill:none;stroke:#000000;stroke-width:1;stroke-linecap:butt;stroke-linejoin:miter;stroke-miterlimit:10;stroke-dasharray:none;stroke-opacity:1"
                 id="path228"
                 inkscape:connector-curvature="0" /></g><g
               id="g230" /><g
               id="g232"
               transform="translate(0.5,0.5)"><path
                 d="m 140,360 20,-20"
                 style="fill:none;stroke:#000000;stroke-width:1;stroke-linecap:butt;stroke-linejoin:miter;stroke-miterlimit:10;stroke-dasharray:none;stroke-opacity:1"
                 id="path234"
                 inkscape:connector-curvature="0" /></g><g
               id="g236" /><g
               id="g238"
               transform="translate(0.5,0.5)"><path
                 d="m 160,360 20,-20"
                 style="fill:none;stroke:#000000;stroke-width:1;stroke-linecap:butt;stroke-linejoin:miter;stroke-miterlimit:10;stroke-dasharray:none;stroke-opacity:1"
                 id="path240"
                 inkscape:connector-curvature="0" /></g><g
               id="g242" /><g
               id="g244"
               transform="translate(0.5,0.5)"><path
                 d="m 180,360 20,-20"
                 style="fill:none;stroke:#000000;stroke-width:1;stroke-linecap:butt;stroke-linejoin:miter;stroke-miterlimit:10;stroke-dasharray:none;stroke-opacity:1"
                 id="path246"
                 inkscape:connector-curvature="0" /></g><g
               id="g248" /><g
               id="g250"
               transform="translate(0.5,0.5)"><path
                 d="m 200,360 20,-20"
                 style="fill:none;stroke:#000000;stroke-width:1;stroke-linecap:butt;stroke-linejoin:miter;stroke-miterlimit:10;stroke-dasharray:none;stroke-opacity:1"
                 id="path252"
                 inkscape:connector-curvature="0" /></g><g
               id="g254" /><g
               id="g256"
               transform="translate(0.5,0.5)"><path
                 d="m 220,360 20,-20"
                 style="fill:none;stroke:#000000;stroke-width:1;stroke-linecap:butt;stroke-linejoin:miter;stroke-miterlimit:10;stroke-dasharray:none;stroke-opacity:1"
                 id="path258"
                 inkscape:connector-curvature="0" /></g><g
               id="g260" /><g
               id="g262"
               transform="translate(0.5,0.5)"><path
                 d="m 240,360 20,-20"
                 style="fill:none;stroke:#000000;stroke-width:1;stroke-linecap:butt;stroke-linejoin:miter;stroke-miterlimit:10;stroke-dasharray:none;stroke-opacity:1"
                 id="path264"
                 inkscape:connector-curvature="0" /></g><g
               id="g266" /><g
               id="g268"
               transform="translate(0.5,0.5)"><path
                 d="m 260,360 20,-20"
                 style="fill:none;stroke:#000000;stroke-width:1;stroke-linecap:butt;stroke-linejoin:miter;stroke-miterlimit:10;stroke-dasharray:none;stroke-opacity:1"
                 id="path270"
                 inkscape:connector-curvature="0" /></g><g
               id="g272" /><g
               id="g274"
               transform="translate(0.5,0.5)"><path
                 d="m 280,360 20,-20"
                 style="fill:none;stroke:#000000;stroke-width:1;stroke-linecap:butt;stroke-linejoin:miter;stroke-miterlimit:10;stroke-dasharray:none;stroke-opacity:1"
                 id="path276"
                 inkscape:connector-curvature="0" /></g><g
               id="g278" /><g
               id="g280"
               transform="translate(0.5,0.5)"><path
                 d="m 300,360 20,-20"
                 style="fill:none;stroke:#000000;stroke-width:1;stroke-linecap:butt;stroke-linejoin:miter;stroke-miterlimit:10;stroke-dasharray:none;stroke-opacity:1"
                 id="path282"
                 inkscape:connector-curvature="0" /></g><g
               id="g284" /><g
               id="g286"
               transform="translate(0.5,0.5)"><path
                 d="m 320,360 20,-20"
                 style="fill:none;stroke:#000000;stroke-width:1;stroke-linecap:butt;stroke-linejoin:miter;stroke-miterlimit:10;stroke-dasharray:none;stroke-opacity:1"
                 id="path288"
                 inkscape:connector-curvature="0" /></g><g
               id="g290" /><g
               id="g292"
               transform="translate(0.5,0.5)"><path
                 d="m 340,360 20,-20"
                 style="fill:none;stroke:#000000;stroke-width:1;stroke-linecap:butt;stroke-linejoin:miter;stroke-miterlimit:10;stroke-dasharray:none;stroke-opacity:1"
                 id="path294"
                 inkscape:connector-curvature="0" /></g><g
               id="g296" /><g
               id="g298"
               transform="translate(0.5,0.5)"><path
                 d="m 360,360 20,-20"
                 style="fill:none;stroke:#000000;stroke-width:1;stroke-linecap:butt;stroke-linejoin:miter;stroke-miterlimit:10;stroke-dasharray:none;stroke-opacity:1"
                 id="path300"
                 inkscape:connector-curvature="0" /></g><g
               id="g302" /><g
               id="g304"
               transform="translate(0.5,0.5)"><path
                 d="m 380,360 20,-20"
                 style="fill:none;stroke:#000000;stroke-width:1;stroke-linecap:butt;stroke-linejoin:miter;stroke-miterlimit:10;stroke-dasharray:none;stroke-opacity:1"
                 id="path306"
                 inkscape:connector-curvature="0" /></g><g
               id="g308" /><g
               id="g310"
               transform="translate(0.5,0.5)"><path
                 d="m 400,360 20,-20"
                 style="fill:none;stroke:#000000;stroke-width:1;stroke-linecap:butt;stroke-linejoin:miter;stroke-miterlimit:10;stroke-dasharray:none;stroke-opacity:1"
                 id="path312"
                 inkscape:connector-curvature="0" /></g><g
               id="g314" /><g
               id="g316"
               transform="translate(0.5,0.5)"><path
                 d="m 420,360 20,-20"
                 style="fill:none;stroke:#000000;stroke-width:1;stroke-linecap:butt;stroke-linejoin:miter;stroke-miterlimit:10;stroke-dasharray:none;stroke-opacity:1"
                 id="path318"
                 inkscape:connector-curvature="0" /></g><g
               id="g320" /><g
               id="g322"
               transform="translate(0.5,0.5)"><path
                 d="m 439.60001,360 20,-20"
                 style="fill:none;stroke:#000000;stroke-width:1;stroke-linecap:butt;stroke-linejoin:miter;stroke-miterlimit:10;stroke-dasharray:none;stroke-opacity:1"
                 id="path324"
                 inkscape:connector-curvature="0" /></g><g
               id="g326" /><g
               id="g328"
               transform="translate(0.5,0.5)"><path
                 d="m 459.60001,360 20,-20"
                 style="fill:none;stroke:#000000;stroke-width:1;stroke-linecap:butt;stroke-linejoin:miter;stroke-miterlimit:10;stroke-dasharray:none;stroke-opacity:1"
                 id="path330"
                 inkscape:connector-curvature="0" /></g><g
               id="g332" /><g
               id="g334"
               transform="translate(0.5,0.5)"><path
                 d="m 479.60001,360 20,-20"
                 style="fill:none;stroke:#000000;stroke-width:1;stroke-linecap:butt;stroke-linejoin:miter;stroke-miterlimit:10;stroke-dasharray:none;stroke-opacity:1"
                 id="path336"
                 inkscape:connector-curvature="0" /></g><g
               id="g338" /><g
               id="g340"
               transform="translate(0.5,0.5)"><path
                 d="m 499.60001,360 19.99997,-20"
                 style="fill:none;stroke:#000000;stroke-width:1;stroke-linecap:butt;stroke-linejoin:miter;stroke-miterlimit:10;stroke-dasharray:none;stroke-opacity:1"
                 id="path342"
                 inkscape:connector-curvature="0" /></g><g
               id="g344" /><g
               id="g346"
               transform="translate(0.5,0.5)"><path
                 d="m 519.59998,360 20,-20"
                 style="fill:none;stroke:#000000;stroke-width:1;stroke-linecap:butt;stroke-linejoin:miter;stroke-miterlimit:10;stroke-dasharray:none;stroke-opacity:1"
                 id="path348"
                 inkscape:connector-curvature="0" /></g><g
               id="g350" /><g
               id="g352"
               transform="translate(0.5,0.5)"><path
                 d="m 539.59998,360 20,-20"
                 style="fill:none;stroke:#000000;stroke-width:1;stroke-linecap:butt;stroke-linejoin:miter;stroke-miterlimit:10;stroke-dasharray:none;stroke-opacity:1"
                 id="path354"
                 inkscape:connector-curvature="0" /></g><g
               id="g356" /><g
               id="g358"
               transform="translate(0.5,0.5)"><path
                 d="m 559.59998,360 20,-20"
                 style="fill:none;stroke:#000000;stroke-width:1;stroke-linecap:butt;stroke-linejoin:miter;stroke-miterlimit:10;stroke-dasharray:none;stroke-opacity:1"
                 id="path360"
                 inkscape:connector-curvature="0" /></g><g
               id="g362" /><g
               id="g364"
               transform="translate(0.5,0.5)"><path
                 d="m 579.59998,360 20,-20"
                 style="fill:none;stroke:#000000;stroke-width:1;stroke-linecap:butt;stroke-linejoin:miter;stroke-miterlimit:10;stroke-dasharray:none;stroke-opacity:1"
                 id="path366"
                 inkscape:connector-curvature="0" /></g><g
               id="g368" /><g
               id="g370"
               transform="translate(0.5,0.5)" /><g
               id="g372" /><g
               id="g374"
               transform="translate(282,363)"><g
                 id="g376" /></g><g
               id="g378"><path
                 d="m 283.67578,370.22266 c 0.0273,0.48828 0.14258,0.88476 0.3457,1.18945 0.38672,0.57031 1.06836,0.85547 2.04493,0.85547 0.4375,0 0.83593,-0.0625 1.19531,-0.1875 0.69531,-0.24219 1.04297,-0.67578 1.04297,-1.30078 0,-0.46875 -0.14649,-0.80274 -0.43946,-1.00196 -0.29687,-0.19531 -0.76172,-0.36523 -1.39453,-0.50976 l -1.16601,-0.26367 c -0.76172,-0.17188 -1.30078,-0.36133 -1.61719,-0.56836 -0.54687,-0.35938 -0.82031,-0.89649 -0.82031,-1.61133 0,-0.77344 0.26758,-1.40821 0.80273,-1.9043 0.53516,-0.49609 1.29297,-0.74414 2.27344,-0.74414 0.90234,0 1.66894,0.21777 2.2998,0.65332 0.63086,0.43555 0.94629,1.13184 0.94629,2.08887 h -1.0957 c -0.0586,-0.46094 -0.18359,-0.81446 -0.375,-1.06055 -0.35547,-0.44922 -0.95898,-0.67383 -1.81055,-0.67383 -0.6875,0 -1.18164,0.14453 -1.48242,0.4336 -0.30078,0.28906 -0.45117,0.625 -0.45117,1.00781 0,0.42187 0.17578,0.73047 0.52734,0.92578 0.23047,0.125 0.75196,0.28125 1.56446,0.46875 l 1.20703,0.27539 c 0.58203,0.13281 1.03125,0.31445 1.34765,0.54492 0.54688,0.40235 0.82032,0.98633 0.82032,1.75196 0,0.95312 -0.34668,1.63476 -1.04004,2.04492 -0.69336,0.41015 -1.49903,0.61523 -2.417,0.61523 -1.07031,0 -1.9082,-0.27344 -2.51367,-0.82031 -0.60547,-0.54297 -0.90234,-1.2793 -0.89062,-2.20898 z m 11.02637,1.30371 c 0.25976,-0.5293 0.38965,-1.11817 0.38965,-1.7666 0,-0.58594 -0.0937,-1.0625 -0.28125,-1.42969 -0.29688,-0.57813 -0.8086,-0.86719 -1.53516,-0.86719 -0.64453,0 -1.11328,0.24609 -1.40625,0.73828 -0.29297,0.49219 -0.43945,1.08594 -0.43945,1.78125 0,0.66797 0.14648,1.22461 0.43945,1.66992 0.29297,0.44532 0.75781,0.66797 1.39453,0.66797 0.69922,0 1.17871,-0.26465 1.43848,-0.79394 z m 0.65332,-4.17481 c 0.55859,0.53906 0.83789,1.33203 0.83789,2.37891 0,1.01172 -0.24609,1.84765 -0.73828,2.50781 -0.49219,0.66016 -1.25586,0.99023 -2.29102,0.99023 -0.86328,0 -1.54883,-0.29199 -2.05664,-0.87597 -0.50781,-0.58399 -0.76172,-1.36817 -0.76172,-2.35254 0,-1.05469 0.26758,-1.89453 0.80274,-2.51953 0.53515,-0.625 1.2539,-0.9375 2.15625,-0.9375 0.80859,0 1.49218,0.26953 2.05078,0.80859 z m 2.08984,-0.59765 h 1.07227 V 373 h -1.07227 z m 0,-2.36133 h 1.07227 v 1.19531 h -1.07227 z m 2.68555,0 h 1.05469 V 373 h -1.05469 z"
                 style="fill:#000000;fill-opacity:1;fill-rule:nonzero;stroke:none"
                 id="path380"
                 inkscape:connector-curvature="0" /></g><g
               id="g382"
               transform="translate(282,363)"><g
                 id="g384" /></g><g
               id="g386" /><g
               id="g388"
               transform="translate(0.5,0.5)" /><g
               id="g390" /><g
               id="g392"
               transform="translate(442,253)"><g
                 id="g394" /></g><g
               id="g396"><path
                 d="m 446.27734,256.97656 c 0.19922,0.13672 0.40235,0.33594 0.60938,0.59766 v -0.79102 h 0.97265 v 5.70703 c 0,0.79688 -0.11718,1.42578 -0.35156,1.88672 -0.4375,0.85156 -1.26367,1.27735 -2.47851,1.27735 -0.67579,0 -1.24414,-0.15137 -1.70508,-0.45411 -0.46094,-0.30273 -0.71875,-0.77636 -0.77344,-1.42089 h 1.07227 c 0.0508,0.28125 0.15234,0.49804 0.30468,0.65039 0.23828,0.23437 0.61328,0.35156 1.125,0.35156 0.8086,0 1.33789,-0.28516 1.5879,-0.85547 0.14843,-0.33594 0.21679,-0.93555 0.20507,-1.79883 -0.21093,0.32032 -0.46484,0.5586 -0.76172,0.71485 -0.29687,0.15625 -0.68945,0.23437 -1.17773,0.23437 -0.67969,0 -1.27442,-0.24121 -1.78418,-0.72363 -0.50977,-0.48242 -0.76465,-1.28027 -0.76465,-2.39356 0,-1.05078 0.25684,-1.87109 0.77051,-2.46093 0.51367,-0.58985 1.13379,-0.88477 1.86035,-0.88477 0.49219,0 0.92188,0.12109 1.28906,0.36328 z m 0.12891,1.13086 c -0.32031,-0.375 -0.72852,-0.5625 -1.22461,-0.5625 -0.74219,0 -1.25,0.34766 -1.52344,1.04297 -0.14453,0.37109 -0.21679,0.85742 -0.21679,1.45898 0,0.70704 0.14355,1.24512 0.43066,1.61426 0.28711,0.36914 0.67285,0.55371 1.15723,0.55371 0.75781,0 1.29101,-0.34179 1.59961,-1.02539 0.17187,-0.38672 0.25781,-0.83789 0.25781,-1.35351 0,-0.77735 -0.16016,-1.35352 -0.48047,-1.72852 z m 3.03906,-1.38281 h 1.04297 v 0.89062 c 0.25,-0.30859 0.47656,-0.5332 0.67969,-0.67382 0.34765,-0.23829 0.74219,-0.35743 1.18359,-0.35743 0.5,0 0.90235,0.12305 1.20703,0.36914 0.17188,0.14063 0.32813,0.34766 0.46875,0.6211 0.23438,-0.33594 0.50977,-0.58496 0.82617,-0.74707 0.31641,-0.16211 0.67188,-0.24317 1.06641,-0.24317 0.84375,0 1.41797,0.30469 1.72266,0.91407 0.16406,0.32812 0.24609,0.76953 0.24609,1.32422 V 263 h -1.0957 v -4.35937 c 0,-0.41797 -0.10449,-0.70508 -0.31348,-0.86133 -0.20898,-0.15625 -0.46387,-0.23438 -0.76465,-0.23438 -0.41406,0 -0.77051,0.13867 -1.06933,0.41602 -0.29883,0.27734 -0.44824,0.74023 -0.44824,1.38867 V 263 H 453.125 v -4.0957 c 0,-0.42579 -0.0508,-0.73633 -0.15234,-0.93164 -0.16016,-0.29297 -0.45899,-0.43946 -0.89649,-0.43946 -0.39844,0 -0.76074,0.1543 -1.08691,0.46289 -0.32617,0.3086 -0.48926,0.86719 -0.48926,1.67578 V 263 h -1.05469 z"
                 style="fill:#000000;fill-opacity:1;fill-rule:nonzero;stroke:none"
                 id="path398"
                 inkscape:connector-curvature="0" /></g><g
               id="g400"
               transform="translate(442,253)"><g
                 id="g402" /><g
                 id="g404" /></g><g
               id="g406"><path
                 d="m 459.70605,260.77051 1.00586,4.12109 1.02051,-4.12109 h 0.98633 l 1.02539,4.09668 1.06934,-4.09668 h 0.8789 L 464.17383,266 h -0.91309 L 462.19629,261.95215 461.16601,266 h -0.91308 l -1.50879,-5.22949 z m 10.04346,4.12353 c 0.27181,-0.34342 0.40772,-0.85693 0.40772,-1.54053 0,-0.41666 -0.0602,-0.77473 -0.18067,-1.07421 -0.22786,-0.57618 -0.64453,-0.86426 -1.25,-0.86426 -0.60872,0 -1.02539,0.30436 -1.25,0.91308 -0.12044,0.32553 -0.18066,0.73894 -0.18066,1.24024 0,0.40364 0.0602,0.74707 0.18066,1.03027 0.22787,0.54037 0.64453,0.81055 1.25,0.81055 0.41016,0 0.75114,-0.17171 1.02295,-0.51514 z m -3.29834,-4.09912 h 0.85449 v 0.69336 c 0.17578,-0.23763 0.36784,-0.42155 0.57617,-0.55176 0.29623,-0.19531 0.64454,-0.29297 1.04493,-0.29297 0.59244,0 1.09537,0.22705 1.50879,0.68116 0.41341,0.4541 0.62011,1.1027 0.62011,1.9458 0,1.13932 -0.29785,1.95312 -0.89355,2.4414 -0.37761,0.30925 -0.81706,0.46387 -1.31836,0.46387 -0.39388,0 -0.72428,-0.0863 -0.99121,-0.25879 -0.15625,-0.0977 -0.33041,-0.2653 -0.52246,-0.50293 v 2.6709 h -0.87891 z"
                 style="fill:#000000;fill-opacity:1;fill-rule:nonzero;stroke:none"
                 id="path408"
                 inkscape:connector-curvature="0" /></g><g
               id="g410"
               transform="translate(442,253)"><g
                 id="g412" /></g><g
               id="g414" /><g
               id="g416"
               transform="translate(0.5,0.5)"><path
                 d="m 443,340 h 50.63"
                 style="fill:none;stroke:#000000;stroke-width:1;stroke-linecap:butt;stroke-linejoin:miter;stroke-miterlimit:10;stroke-dasharray:none;stroke-opacity:1"
                 id="path418"
                 inkscape:connector-curvature="0" /></g><g
               id="g420"><path
                 d="m 443.5,340.5 c 0,1.65685 -1.34315,3 -3,3 -1.65686,0 -3,-1.34315 -3,-3 0,-1.65686 1.34314,-3 3,-3 1.65685,0 3,1.34314 3,3 z"
                 style="fill:#000000;fill-opacity:1;fill-rule:nonzero;stroke:none"
                 id="path422"
                 inkscape:connector-curvature="0" /></g><g
               id="g424"
               transform="translate(0.5,0.5)"><path
                 d="m 443,340 c 0,1.65685 -1.34315,3 -3,3 -1.65686,0 -3,-1.34315 -3,-3 0,-1.65686 1.34314,-3 3,-3 1.65685,0 3,1.34314 3,3 z"
                 style="fill:none;stroke:#000000;stroke-width:1;stroke-linecap:butt;stroke-linejoin:miter;stroke-miterlimit:10;stroke-dasharray:none;stroke-opacity:1"
                 id="path426"
                 inkscape:connector-curvature="0" /></g><g
               id="g428"><path
                 d="m 499.38,340.5 -7,3.5 1.75,-3.5 -1.75,-3.5 z"
                 style="fill:#000000;fill-opacity:1;fill-rule:nonzero;stroke:none"
                 id="path430"
                 inkscape:connector-curvature="0" /></g><g
               id="g432"
               transform="translate(0.5,0.5)"><path
                 d="m 498.88,340 -7,3.5 1.75,-3.5 -1.75,-3.5 z"
                 style="fill:none;stroke:#000000;stroke-width:1;stroke-linecap:butt;stroke-linejoin:miter;stroke-miterlimit:10;stroke-dasharray:none;stroke-opacity:1"
                 id="path434"
                 inkscape:connector-curvature="0" /></g><g
               id="g436" /><g
               id="g438"
               transform="translate(0.5,0.5)" /><g
               id="g440" /><g
               id="g442"
               transform="translate(494,323)"><g
                 id="g444" /></g><g
               id="g446"><path
                 d="m 495.02539,324.39258 h 5.9707 v 1.05469 h -4.80468 v 2.61328 h 4.2246 v 1.02539 h -4.2246 V 333 h -1.16602 z"
                 style="fill:#000000;fill-opacity:1;fill-rule:nonzero;stroke:none"
                 id="path448"
                 inkscape:connector-curvature="0" /></g><g
               id="g450"
               transform="translate(494,323)"><g
                 id="g452" /><g
                 id="g454" /></g><g
               id="g456"><path
                 d="m 502.38281,329.17383 c 0.20508,-0.29948 0.60059,-0.44922 1.18652,-0.44922 0.0553,0 0.11231,0.002 0.1709,0.005 0.0586,0.003 0.12533,0.008 0.2002,0.0147 v 0.80078 c -0.0911,-0.007 -0.15707,-0.0106 -0.19775,-0.0122 -0.0407,-0.002 -0.0789,-0.002 -0.11475,-0.002 -0.26693,0 -0.42643,0.0692 -0.47852,0.20752 -0.0521,0.13835 -0.0781,0.49072 -0.0781,1.05713 h 0.86914 v 0.69336 h -0.87891 v 4.51172 h -0.86914 v -4.51172 h -0.72754 v -0.69336 h 0.72754 v -0.82031 c 0.013,-0.36458 0.0765,-0.63151 0.19043,-0.80078 z m 2.54102,7.84668 c 0.22461,-0.0391 0.38248,-0.19694 0.47363,-0.47364 0.0488,-0.14648 0.0732,-0.28808 0.0732,-0.4248 0,-0.0228 -8.1e-4,-0.0431 -0.002,-0.061 -0.002,-0.0179 -0.006,-0.0382 -0.0122,-0.061 h -0.53222 v -1.06445 h 1.04492 v 0.98632 c 0,0.38737 -0.0781,0.72754 -0.23438,1.02051 -0.15625,0.29297 -0.42643,0.47363 -0.81054,0.54199 v -0.46386 z m 2.60449,-8.19336 h 0.87891 V 336 h -0.87891 z m 3.14648,6.38183 c 0.18555,0.14649 0.40528,0.21973 0.65918,0.21973 0.30925,0 0.60873,-0.0716 0.89844,-0.21484 0.48828,-0.23763 0.73242,-0.62663 0.73242,-1.167 v -0.708 c -0.10742,0.0684 -0.24576,0.12532 -0.41504,0.1709 -0.16927,0.0456 -0.33528,0.0781 -0.49804,0.0976 l -0.53223,0.0684 c -0.31901,0.0423 -0.55827,0.10905 -0.71777,0.2002 -0.27019,0.15299 -0.40528,0.39713 -0.40528,0.73242 0,0.2539 0.0928,0.4541 0.27832,0.60058 z m 1.85059,-2.37793 c 0.20182,-0.026 0.33691,-0.11067 0.40527,-0.2539 0.0391,-0.0781 0.0586,-0.19043 0.0586,-0.33692 0,-0.29948 -0.10661,-0.51676 -0.31983,-0.65185 -0.21321,-0.13509 -0.51839,-0.20264 -0.91552,-0.20264 -0.45899,0 -0.78451,0.1237 -0.97657,0.37109 -0.10742,0.13672 -0.17741,0.34017 -0.20996,0.61036 h -0.82031 c 0.0163,-0.64453 0.22542,-1.09294 0.62744,-1.34522 0.40202,-0.25228 0.86833,-0.37842 1.39893,-0.37842 0.61523,0 1.11491,0.11719 1.49902,0.35157 0.38086,0.23437 0.57129,0.59895 0.57129,1.09375 v 3.01269 c 0,0.0911 0.0187,0.16439 0.0562,0.21973 0.0374,0.0553 0.11638,0.083 0.23682,0.083 0.0391,0 0.083,-0.002 0.13183,-0.007 0.0488,-0.005 0.10092,-0.0122 0.15625,-0.022 v 0.64941 c -0.13671,0.0391 -0.24088,0.0635 -0.3125,0.0733 -0.0716,0.01 -0.16927,0.0146 -0.29296,0.0146 -0.30274,0 -0.52246,-0.10742 -0.65918,-0.32226 -0.0716,-0.11393 -0.12207,-0.27507 -0.15137,-0.4834 -0.17904,0.23437 -0.4362,0.43783 -0.77149,0.61035 -0.33528,0.17253 -0.70475,0.25879 -1.10839,0.25879 -0.48503,0 -0.88135,-0.1473 -1.18897,-0.44189 -0.30762,-0.2946 -0.46143,-0.66325 -0.46143,-1.10596 0,-0.48503 0.15137,-0.861 0.45411,-1.12793 0.30273,-0.26693 0.69987,-0.43132 1.1914,-0.49317 l 1.40137,-0.17578 z m 2.91992,-3.5205 h 0.88867 v 1.45996 h 0.83496 v 0.71777 h -0.83496 v 3.41309 c 0,0.18229 0.0619,0.30436 0.18555,0.36621 0.0684,0.0358 0.18229,0.0537 0.3418,0.0537 0.0423,0 0.0879,-8.2e-4 0.13672,-0.002 0.0488,-0.002 0.10579,-0.006 0.17089,-0.0122 v 0.69336 c -0.10091,0.0293 -0.20589,0.0505 -0.31494,0.0635 -0.10905,0.013 -0.22705,0.0195 -0.354,0.0195 -0.41016,0 -0.68848,-0.10498 -0.83496,-0.31494 -0.14649,-0.20997 -0.21973,-0.48259 -0.21973,-0.81788 v -3.46191 h -0.70801 v -0.71777 h 0.70801 v -1.45996 z"
                 style="fill:#000000;fill-opacity:1;fill-rule:nonzero;stroke:none"
                 id="path458"
                 inkscape:connector-curvature="0" /></g><g
               id="g460"
               transform="translate(494,323)"><g
                 id="g462" /></g><g
               id="g464" /><g
               id="g466"
               transform="translate(0.5,0.5)" /><g
               id="g468" /><g
               id="g470"
               transform="translate(162,253)"><g
                 id="g472" /></g><g
               id="g474"><path
                 d="m 166.27734,256.97656 c 0.19922,0.13672 0.40235,0.33594 0.60938,0.59766 v -0.79102 h 0.97265 v 5.70703 c 0,0.79688 -0.11718,1.42578 -0.35156,1.88672 -0.4375,0.85156 -1.26367,1.27735 -2.47851,1.27735 -0.67579,0 -1.24414,-0.15137 -1.70508,-0.45411 -0.46094,-0.30273 -0.71875,-0.77636 -0.77344,-1.42089 h 1.07227 c 0.0508,0.28125 0.15234,0.49804 0.30468,0.65039 0.23828,0.23437 0.61328,0.35156 1.125,0.35156 0.8086,0 1.33789,-0.28516 1.58789,-0.85547 0.14844,-0.33594 0.2168,-0.93555 0.20508,-1.79883 -0.21094,0.32032 -0.46484,0.5586 -0.76172,0.71485 -0.29687,0.15625 -0.68945,0.23437 -1.17773,0.23437 -0.67969,0 -1.27442,-0.24121 -1.78418,-0.72363 -0.50977,-0.48242 -0.76465,-1.28027 -0.76465,-2.39356 0,-1.05078 0.25684,-1.87109 0.77051,-2.46093 0.51367,-0.58985 1.13379,-0.88477 1.86035,-0.88477 0.49219,0 0.92188,0.12109 1.28906,0.36328 z m 0.12891,1.13086 c -0.32031,-0.375 -0.72852,-0.5625 -1.22461,-0.5625 -0.74219,0 -1.25,0.34766 -1.52344,1.04297 -0.14453,0.37109 -0.21679,0.85742 -0.21679,1.45898 0,0.70704 0.14355,1.24512 0.43066,1.61426 0.28711,0.36914 0.67285,0.55371 1.15723,0.55371 0.75781,0 1.29101,-0.34179 1.59961,-1.02539 0.17187,-0.38672 0.25781,-0.83789 0.25781,-1.35351 0,-0.77735 -0.16016,-1.35352 -0.48047,-1.72852 z m 3.03906,-1.38281 h 1.04297 v 0.89062 c 0.25,-0.30859 0.47656,-0.5332 0.67969,-0.67382 0.34765,-0.23829 0.74219,-0.35743 1.18359,-0.35743 0.5,0 0.90235,0.12305 1.20703,0.36914 0.17188,0.14063 0.32813,0.34766 0.46875,0.6211 0.23438,-0.33594 0.50977,-0.58496 0.82617,-0.74707 0.31641,-0.16211 0.67188,-0.24317 1.06641,-0.24317 0.84375,0 1.41797,0.30469 1.72266,0.91407 0.16406,0.32812 0.24609,0.76953 0.24609,1.32422 V 263 h -1.0957 v -4.35937 c 0,-0.41797 -0.10449,-0.70508 -0.31348,-0.86133 -0.20898,-0.15625 -0.46387,-0.23438 -0.76465,-0.23438 -0.41406,0 -0.77051,0.13867 -1.06933,0.41602 -0.29883,0.27734 -0.44825,0.74023 -0.44825,1.38867 V 263 H 173.125 v -4.0957 c 0,-0.42579 -0.0508,-0.73633 -0.15234,-0.93164 -0.16016,-0.29297 -0.45899,-0.43946 -0.89649,-0.43946 -0.39844,0 -0.76074,0.1543 -1.08691,0.46289 -0.32618,0.3086 -0.48926,0.86719 -0.48926,1.67578 V 263 h -1.05469 z"
                 style="fill:#000000;fill-opacity:1;fill-rule:nonzero;stroke:none"
                 id="path476"
                 inkscape:connector-curvature="0" /></g><g
               id="g478"
               transform="translate(162,253)"><g
                 id="g480" /><g
                 id="g482" /></g><g
               id="g484"><path
                 d="m 179.70605,260.77051 1.00586,4.12109 1.02051,-4.12109 h 0.98633 l 1.02539,4.09668 1.06934,-4.09668 h 0.8789 L 184.17383,266 h -0.91309 L 182.19629,261.95215 181.16601,266 h -0.91308 l -1.50879,-5.22949 z m 10.04346,4.12353 c 0.27181,-0.34342 0.40772,-0.85693 0.40772,-1.54053 0,-0.41666 -0.0602,-0.77473 -0.18067,-1.07421 -0.22786,-0.57618 -0.64453,-0.86426 -1.25,-0.86426 -0.60872,0 -1.02539,0.30436 -1.25,0.91308 -0.12044,0.32553 -0.18066,0.73894 -0.18066,1.24024 0,0.40364 0.0602,0.74707 0.18066,1.03027 0.22787,0.54037 0.64453,0.81055 1.25,0.81055 0.41016,0 0.75114,-0.17171 1.02295,-0.51514 z m -3.29834,-4.09912 h 0.85449 v 0.69336 c 0.17579,-0.23763 0.36784,-0.42155 0.57618,-0.55176 0.29622,-0.19531 0.64453,-0.29297 1.04492,-0.29297 0.59244,0 1.09538,0.22705 1.50879,0.68116 0.41341,0.4541 0.62011,1.1027 0.62011,1.9458 0,1.13932 -0.29785,1.95312 -0.89355,2.4414 -0.37761,0.30925 -0.81706,0.46387 -1.31836,0.46387 -0.39388,0 -0.72428,-0.0863 -0.99121,-0.25879 -0.15625,-0.0977 -0.3304,-0.2653 -0.52246,-0.50293 v 2.6709 h -0.87891 z"
                 style="fill:#000000;fill-opacity:1;fill-rule:nonzero;stroke:none"
                 id="path486"
                 inkscape:connector-curvature="0" /></g><g
               id="g488"
               transform="translate(162,253)"><g
                 id="g490" /></g><g
               id="g492" /><g
               id="g494"
               transform="translate(0.5,0.5)"><path
                 d="M 160,220 H 337.76001"
                 style="fill:none;stroke:#000000;stroke-width:1;stroke-linecap:butt;stroke-linejoin:miter;stroke-miterlimit:10;stroke-dasharray:none;stroke-opacity:1"
                 id="path496"
                 inkscape:connector-curvature="0" /><path
                 d="m 331.88,222.33 7,-2.33 -7,-2.33"
                 style="fill:none;stroke:#000000;stroke-width:1;stroke-linecap:butt;stroke-linejoin:miter;stroke-miterlimit:10;stroke-dasharray:none;stroke-opacity:1"
                 id="path498"
                 inkscape:connector-curvature="0" /></g><g
               id="g500" /><g
               id="g502"
               transform="translate(0.5,0.5)" /><g
               id="g504" /><g
               id="g506"
               transform="translate(332,221)"><g
                 id="g508" /></g><g
               id="g510"><path
                 d="m 332.17578,224.72461 h 1.36523 l 1.44141,2.20898 1.45899,-2.20898 1.2832,0.0293 -2.11524,3.02929 2.20899,3.2168 H 336.4707 L 334.91211,228.64453 333.40039,231 h -1.33594 l 2.20899,-3.2168 z"
                 style="fill:#000000;fill-opacity:1;fill-rule:nonzero;stroke:none"
                 id="path512"
                 inkscape:connector-curvature="0" /></g><g
               id="g514"
               transform="translate(332,221)"><g
                 id="g516" /></g><g
               id="g518" /><g
               id="g520"
               transform="translate(0.5,0.5)"><path
                 d="M 160,223.14 V 42.240002"
                 style="fill:none;stroke:#000000;stroke-width:1;stroke-linecap:butt;stroke-linejoin:miter;stroke-miterlimit:10;stroke-dasharray:none;stroke-opacity:1"
                 id="path522"
                 inkscape:connector-curvature="0" /><path
                 d="m 162.33,48.119999 -2.33,-7 -2.33,7"
                 style="fill:none;stroke:#000000;stroke-width:1;stroke-linecap:butt;stroke-linejoin:miter;stroke-miterlimit:10;stroke-dasharray:none;stroke-opacity:1"
                 id="path524"
                 inkscape:connector-curvature="0" /></g><g
               id="g526" /><g
               id="g528"
               transform="translate(0.5,0.5)" /><g
               id="g530" /><g
               id="g532"
               transform="translate(166,43)"><g
                 id="g534" /></g><g
               id="g536"><path
                 d="m 166.30469,52.167969 3.7207,-4.5 h -3.44531 v -0.94336 h 4.86328 v 0.861328 l -3.69727,4.470704 h 3.8086 V 53 h -5.25 z"
                 style="fill:#000000;fill-opacity:1;fill-rule:nonzero;stroke:none"
                 id="path538"
                 inkscape:connector-curvature="0" /></g><g
               id="g540"
               transform="translate(166,43)"><g
                 id="g542" /></g><g
               id="g544" /><g
               id="g546"
               transform="translate(0.5,0.5)"><path
                 d="M 440,223.14 V 42.240002"
                 style="fill:none;stroke:#000000;stroke-width:1;stroke-linecap:butt;stroke-linejoin:miter;stroke-miterlimit:10;stroke-dasharray:none;stroke-opacity:1"
                 id="path548"
                 inkscape:connector-curvature="0" /><path
                 d="m 442.32999,48.119999 -2.32999,-7 -2.32999,7"
                 style="fill:none;stroke:#000000;stroke-width:1;stroke-linecap:butt;stroke-linejoin:miter;stroke-miterlimit:10;stroke-dasharray:none;stroke-opacity:1"
                 id="path550"
                 inkscape:connector-curvature="0" /></g><g
               id="g552" /><g
               id="g554"
               transform="translate(0.5,0.5)" /><g
               id="g556" /><g
               id="g558"
               transform="translate(446,43)"><g
                 id="g560" /></g><g
               id="g562"><path
                 d="m 446.30469,52.167969 3.7207,-4.5 h -3.44531 v -0.94336 h 4.86328 v 0.861328 l -3.69727,4.470704 h 3.8086 V 53 h -5.25 z"
                 style="fill:#000000;fill-opacity:1;fill-rule:nonzero;stroke:none"
                 id="path564"
                 inkscape:connector-curvature="0" /></g><g
               id="g566"
               transform="translate(446,43)"><g
                 id="g568" /></g><g
               id="g570" /><g
               id="g572"
               transform="translate(0.5,0.5)"><path
                 d="m 440,220 h 79.76001"
                 style="fill:none;stroke:#000000;stroke-width:1;stroke-linecap:butt;stroke-linejoin:miter;stroke-miterlimit:10;stroke-dasharray:none;stroke-opacity:1"
                 id="path574"
                 inkscape:connector-curvature="0" /><path
                 d="m 513.88,222.33 7,-2.33 -7,-2.33"
                 style="fill:none;stroke:#000000;stroke-width:1;stroke-linecap:butt;stroke-linejoin:miter;stroke-miterlimit:10;stroke-dasharray:none;stroke-opacity:1"
                 id="path576"
                 inkscape:connector-curvature="0" /></g><g
               id="g578" /><g
               id="g580"
               transform="translate(0.5,0.5)" /><g
               id="g582" /><g
               id="g584"
               transform="translate(522,223)"><g
                 id="g586" /></g><g
               id="g588"><path
                 d="m 526.69336,226.72461 h 1.16601 c -0.14843,0.40234 -0.47851,1.32031 -0.99023,2.7539 -0.38281,1.07813 -0.70313,1.95704 -0.96094,2.63672 -0.60937,1.60157 -1.03906,2.57813 -1.28906,2.92969 -0.25,0.35156 -0.67969,0.52734 -1.28906,0.52734 -0.14844,0 -0.2627,-0.006 -0.34278,-0.0176 -0.0801,-0.0117 -0.17871,-0.0332 -0.29589,-0.0645 v -0.96093 c 0.18359,0.0508 0.3164,0.082 0.39843,0.0937 0.082,0.0117 0.1543,0.0176 0.2168,0.0176 0.19531,0 0.33887,-0.0322 0.43066,-0.0967 0.0918,-0.0644 0.16895,-0.14355 0.23145,-0.2373 0.0195,-0.0312 0.0898,-0.19141 0.21094,-0.48047 0.12109,-0.28906 0.20898,-0.5039 0.26367,-0.64453 l -2.32031,-6.45703 h 1.19531 l 1.68164,5.10937 1.69336,-5.10937 z"
                 style="fill:#000000;fill-opacity:1;fill-rule:nonzero;stroke:none"
                 id="path590"
                 inkscape:connector-curvature="0" /></g><g
               id="g592"
               transform="translate(522,223)"><g
                 id="g594" /></g><g
               id="g596" /><g
               id="g598"
               transform="translate(0.5,0.5)"><path
                 d="M 160,340 H 138.36999"
                 style="fill:none;stroke:#000000;stroke-width:1;stroke-linecap:butt;stroke-linejoin:miter;stroke-miterlimit:10;stroke-dasharray:none;stroke-opacity:1"
                 id="path600"
                 inkscape:connector-curvature="0" /></g><g
               id="g602"><path
                 d="m 133.61999,340.5 7,-3.5 -1.75,3.5 1.75,3.5 z"
                 style="fill:#000000;fill-opacity:1;fill-rule:nonzero;stroke:none"
                 id="path604"
                 inkscape:connector-curvature="0" /></g><g
               id="g606"
               transform="translate(0.5,0.5)"><path
                 d="m 133.11999,340 7,-3.5 -1.75,3.5 1.75,3.5 z"
                 style="fill:none;stroke:#000000;stroke-width:1;stroke-linecap:butt;stroke-linejoin:miter;stroke-miterlimit:10;stroke-dasharray:none;stroke-opacity:1"
                 id="path608"
                 inkscape:connector-curvature="0" /></g><g
               id="g610" /><g
               id="g612"
               transform="translate(0.5,0.5)"><path
                 d="m 163,230.84 h -2.5 c -1.66666,1e-5 -3.33333,-0.49999 -5,-1.5 l -1.25,-0.75 c -0.83333,-0.49999 -1.58333,-1.24999 -2.25,-2.25 l -0.5,-0.75 c -0.33333,-0.49999 -0.66666,-1.41666 -1,-2.75 l -0.25,-1 c -0.16666,-0.66666 -0.0833,-1.66666 0.25,-3 l 0.25,-1 c 0.16667,-0.66666 0.58334,-1.49999 1.25,-2.5 l 0.5,-0.75 c 0.33334,-0.49999 0.83334,-1.08332 1.5,-1.75 l 0.5,-0.5 c 0.33334,-0.33332 1.16667,-0.66666 2.5,-1 l 1,-0.25 c 0.66667,-0.16666 1.83334,-0.0833 3.5,0.25 l 1.25,0.25 c 0.83334,0.16668 1.06668,0.11334 0.7,-0.16001 L 162.91,211.02"
                 style="fill:none;stroke:#000000;stroke-width:1;stroke-linecap:butt;stroke-linejoin:miter;stroke-miterlimit:10;stroke-dasharray:none;stroke-opacity:1"
                 id="path614"
                 inkscape:connector-curvature="0" /></g><g
               id="g616"><path
                 d="m 167.61,214.67 -7,-2.33 2.8,-0.82 v -2.91 z"
                 style="fill:#000000;fill-opacity:1;fill-rule:nonzero;stroke:none"
                 id="path618"
                 inkscape:connector-curvature="0" /></g><g
               id="g620"
               transform="translate(0.5,0.5)"><path
                 d="m 167.11,214.17 -7,-2.33 2.8,-0.82 v -2.91 z"
                 style="fill:none;stroke:#000000;stroke-width:1;stroke-linecap:butt;stroke-linejoin:miter;stroke-miterlimit:10;stroke-dasharray:none;stroke-opacity:1"
                 id="path622"
                 inkscape:connector-curvature="0" /></g><g
               id="g624" /><g
               id="g626"
               transform="translate(0.5,0.5)" /><g
               id="g628" /><g
               id="g630"
               transform="translate(164,226)"><g
                 id="g632" /></g><g
               id="g634"><path
                 d="m 171.17773,227.39258 v 1.02539 h -2.90039 V 236 h -1.18359 v -7.58203 h -2.90039 v -1.02539 z"
                 style="fill:#000000;fill-opacity:1;fill-rule:nonzero;stroke:none"
                 id="path636"
                 inkscape:connector-curvature="0" /></g><g
               id="g638"
               transform="translate(164,226)"><g
                 id="g640" /><g
                 id="g642" /></g><g
               id="g644"><path
                 d="m 171.97266,233.77051 h 0.86914 v 0.74218 c 0.20833,-0.25716 0.39713,-0.44433 0.5664,-0.56152 0.28972,-0.19857 0.61849,-0.29785 0.98633,-0.29785 0.41667,0 0.75195,0.10254 1.00586,0.30762 0.14323,0.11718 0.27344,0.28971 0.39062,0.51757 0.19532,-0.27994 0.42481,-0.48746 0.68848,-0.62255 0.26367,-0.1351 0.5599,-0.20264 0.88867,-0.20264 0.70313,0 1.18164,0.25391 1.43555,0.76172 0.13672,0.27344 0.20508,0.64127 0.20508,1.10351 V 239 h -0.91309 v -3.63281 c 0,-0.34831 -0.0871,-0.58757 -0.26123,-0.71778 -0.17415,-0.13021 -0.38655,-0.19531 -0.63721,-0.19531 -0.34505,0 -0.64209,0.11556 -0.89111,0.34668 -0.24902,0.23112 -0.37353,0.61686 -0.37353,1.15723 V 239 h -0.89356 v -3.41309 c 0,-0.35481 -0.0423,-0.6136 -0.12695,-0.77636 -0.13347,-0.24414 -0.38249,-0.36622 -0.74707,-0.36622 -0.33203,0 -0.63395,0.12859 -0.90576,0.38575 -0.27181,0.25716 -0.40772,0.72265 -0.40772,1.39648 V 239 h -0.8789 z m 11.60205,4.00146 c 0.21647,-0.44108 0.3247,-0.9318 0.3247,-1.47217 0,-0.48828 -0.0781,-0.88541 -0.23437,-1.1914 -0.2474,-0.48177 -0.67383,-0.72266 -1.2793,-0.72266 -0.53711,0 -0.92773,0.20508 -1.17187,0.61524 -0.24414,0.41015 -0.36621,0.90494 -0.36621,1.48437 0,0.55664 0.12207,1.02051 0.36621,1.3916 0.24414,0.3711 0.63151,0.55664 1.16211,0.55664 0.58268,0 0.98226,-0.22054 1.19873,-0.66162 z m 0.54443,-3.479 c 0.46549,0.44922 0.69824,1.11002 0.69824,1.98242 0,0.8431 -0.20508,1.53971 -0.61523,2.08984 -0.41016,0.55013 -1.04655,0.8252 -1.90918,0.8252 -0.7194,0 -1.29069,-0.24333 -1.71387,-0.72998 -0.42318,-0.48666 -0.63477,-1.14014 -0.63477,-1.96045 0,-0.87891 0.22299,-1.57878 0.66895,-2.09961 0.44596,-0.52083 1.04492,-0.78125 1.79688,-0.78125 0.67382,0 1.24348,0.22461 1.70898,0.67383 z m 1.9043,-1.98242 h 0.88867 v 1.45996 h 0.83496 v 0.71777 h -0.83496 v 3.41309 c 0,0.18229 0.0618,0.30436 0.18555,0.36621 0.0684,0.0358 0.18229,0.0537 0.34179,0.0537 0.0423,0 0.0879,-8.1e-4 0.13672,-0.002 0.0488,-0.002 0.1058,-0.006 0.1709,-0.0122 v 0.69336 c -0.10091,0.0293 -0.20589,0.0505 -0.31494,0.0635 -0.10905,0.013 -0.22705,0.0195 -0.35401,0.0195 -0.41015,0 -0.68847,-0.10498 -0.83496,-0.31494 -0.14648,-0.20997 -0.21972,-0.48259 -0.21972,-0.81788 v -3.46191 h -0.70801 v -0.71777 h 0.70801 v -1.45996 z m 5.86377,5.46142 c 0.21647,-0.44108 0.3247,-0.9318 0.3247,-1.47217 0,-0.48828 -0.0781,-0.88541 -0.23437,-1.1914 -0.2474,-0.48177 -0.67383,-0.72266 -1.2793,-0.72266 -0.53711,0 -0.92773,0.20508 -1.17187,0.61524 -0.24414,0.41015 -0.36621,0.90494 -0.36621,1.48437 0,0.55664 0.12207,1.02051 0.36621,1.3916 0.24414,0.3711 0.63151,0.55664 1.16211,0.55664 0.58268,0 0.98225,-0.22054 1.19873,-0.66162 z m 0.54443,-3.479 c 0.4655,0.44922 0.69824,1.11002 0.69824,1.98242 0,0.8431 -0.20508,1.53971 -0.61523,2.08984 -0.41016,0.55013 -1.04655,0.8252 -1.90918,0.8252 -0.7194,0 -1.29069,-0.24333 -1.71387,-0.72998 -0.42318,-0.48666 -0.63477,-1.14014 -0.63477,-1.96045 0,-0.87891 0.22299,-1.57878 0.66895,-2.09961 0.44596,-0.52083 1.04492,-0.78125 1.79688,-0.78125 0.67382,0 1.24348,0.22461 1.70898,0.67383 z m 1.75293,-0.52246 h 0.83496 v 0.90332 c 0.0684,-0.17578 0.236,-0.38981 0.50293,-0.64209 0.26693,-0.25228 0.57454,-0.37842 0.92285,-0.37842 0.0163,0 0.0439,0.002 0.083,0.005 0.0391,0.003 0.10579,0.01 0.20019,0.0195 v 0.92774 c -0.0521,-0.01 -0.10009,-0.0163 -0.14404,-0.0195 -0.0439,-0.003 -0.092,-0.005 -0.14404,-0.005 -0.44271,0 -0.78288,0.14242 -1.02051,0.42725 -0.23763,0.28483 -0.35644,0.61279 -0.35644,0.98389 v 3.00781 h -0.87891 v -5.22949 z"
                 style="fill:#000000;fill-opacity:1;fill-rule:nonzero;stroke:none"
                 id="path646"
                 inkscape:connector-curvature="0" /></g><g
               id="g648"
               transform="translate(164,226)"><g
                 id="g650" /></g><g
               id="g652" /><g
               id="g654"
               transform="translate(0.5,0.5)" /><g
               id="g656" /><g
               id="g658"
               transform="translate(82,324)"><g
                 id="g660" /></g><g
               id="g662"><path
                 d="m 83.025391,325.39258 h 5.970703 v 1.05469 h -4.804688 v 2.61328 h 4.22461 v 1.02539 h -4.22461 V 334 h -1.166015 z"
                 style="fill:#000000;fill-opacity:1;fill-rule:nonzero;stroke:none"
                 id="path664"
                 inkscape:connector-curvature="0" /></g><g
               id="g666"
               transform="translate(82,324)"><g
                 id="g668" /><g
                 id="g670" /></g><g
               id="g672"><path
                 d="m 90.066406,331.22168 c 0.143555,-0.20964 0.42041,-0.31445 0.830567,-0.31445 0.03874,0 0.07861,10e-4 0.119629,0.003 0.04101,0.002 0.08773,0.006 0.140136,0.0103 v 0.56054 c -0.0638,-0.005 -0.109944,-0.007 -0.138428,-0.009 -0.02848,-10e-4 -0.05526,-0.002 -0.08032,-0.002 -0.186849,0 -0.298502,0.0484 -0.334961,0.14526 -0.03646,0.0969 -0.05469,0.34351 -0.05469,0.73999 h 0.608398 v 0.48536 h -0.615234 v 3.1582 h -0.608399 v -3.1582 h -0.509277 v -0.48536 h 0.509277 v -0.57421 c 0.0091,-0.25521 0.05355,-0.44206 0.133301,-0.56055 z m 1.780274,5.49267 c 0.157226,-0.0273 0.267741,-0.13785 0.331543,-0.33154 0.03418,-0.10254 0.05127,-0.20166 0.05127,-0.29736 0,-0.0159 -5.7e-4,-0.0302 -0.0017,-0.0427 -0.0011,-0.0125 -0.004,-0.0268 -0.0085,-0.0427 h -0.372558 v -0.74512 h 0.731445 v 0.69043 c 0,0.27116 -0.05469,0.50928 -0.164062,0.71436 -0.109376,0.20508 -0.298503,0.33154 -0.567383,0.37939 v -0.32471 z m 1.824707,-4.375 h 0.584472 v 0.63233 c 0.04785,-0.12305 0.165202,-0.27287 0.352051,-0.44946 0.186849,-0.1766 0.402181,-0.2649 0.645996,-0.2649 0.01139,0 0.03076,0.001 0.05811,0.003 0.02734,0.002 0.07406,0.007 0.140136,0.0137 v 0.64942 c -0.03646,-0.007 -0.07007,-0.0114 -0.10083,-0.0137 -0.03076,-0.002 -0.06437,-0.003 -0.10083,-0.003 -0.309896,0 -0.548014,0.0997 -0.714355,0.29907 -0.166341,0.19938 -0.249512,0.42896 -0.249512,0.68872 V 336 h -0.615234 v -3.66065 z m 2.328125,0 h 0.584472 v 0.63233 c 0.04785,-0.12305 0.165202,-0.27287 0.352051,-0.44946 0.186849,-0.1766 0.402181,-0.2649 0.645996,-0.2649 0.01139,0 0.03076,0.001 0.05811,0.003 0.02734,0.002 0.07406,0.007 0.140136,0.0137 v 0.64942 c -0.03646,-0.007 -0.07007,-0.0114 -0.10083,-0.0137 -0.03076,-0.002 -0.06437,-0.003 -0.10083,-0.003 -0.309896,0 -0.548014,0.0997 -0.714355,0.29907 -0.166341,0.19938 -0.249512,0.42896 -0.249512,0.68872 V 336 h -0.615234 v -3.66065 z"
                 style="fill:#000000;fill-opacity:1;fill-rule:nonzero;stroke:none"
                 id="path674"
                 inkscape:connector-curvature="0" /></g><g
               id="g676"
               transform="translate(82,324)"><g
                 id="g678" /></g><g
               id="g680" /><g
               id="g682"
               transform="translate(0.5,0.5)"><path
                 d="M 160,306.37 V 337"
                 style="fill:none;stroke:#000000;stroke-width:1;stroke-linecap:butt;stroke-linejoin:miter;stroke-miterlimit:10;stroke-dasharray:none;stroke-opacity:1"
                 id="path684"
                 inkscape:connector-curvature="0" /></g><g
               id="g686"><path
                 d="m 160.5,301.62 3.5,7 -3.5,-1.75 -3.5,1.75 z"
                 style="fill:#000000;fill-opacity:1;fill-rule:nonzero;stroke:none"
                 id="path688"
                 inkscape:connector-curvature="0" /></g><g
               id="g690"
               transform="translate(0.5,0.5)"><path
                 d="m 160,301.12 3.5,7 -3.5,-1.75 -3.5,1.75 z"
                 style="fill:none;stroke:#000000;stroke-width:1;stroke-linecap:butt;stroke-linejoin:miter;stroke-miterlimit:10;stroke-dasharray:none;stroke-opacity:1"
                 id="path692"
                 inkscape:connector-curvature="0" /></g><g
               id="g694"><path
                 d="m 163.5,340.5 c 0,1.65685 -1.34315,3 -3,3 -1.65686,0 -3,-1.34315 -3,-3 0,-1.65686 1.34314,-3 3,-3 1.65685,0 3,1.34314 3,3 z"
                 style="fill:#000000;fill-opacity:1;fill-rule:nonzero;stroke:none"
                 id="path696"
                 inkscape:connector-curvature="0" /></g><g
               id="g698"
               transform="translate(0.5,0.5)"><path
                 d="m 163,340 c 0,1.65685 -1.34315,3 -3,3 -1.65686,0 -3,-1.34315 -3,-3 0,-1.65686 1.34314,-3 3,-3 1.65685,0 3,1.34314 3,3 z"
                 style="fill:none;stroke:#000000;stroke-width:1;stroke-linecap:butt;stroke-linejoin:miter;stroke-miterlimit:10;stroke-dasharray:none;stroke-opacity:1"
                 id="path700"
                 inkscape:connector-curvature="0" /></g><g
               id="g702" /><g
               id="g704"
               transform="translate(164,291)" /><g
               id="g706"><g
                 id="g708"
                 transform="translate(164,291)"><path
                   d="M 0,0 H 9 V 14 H 0 Z"
                   style="fill:#ffffff;fill-opacity:1;fill-rule:nonzero;stroke:none"
                   id="path710"
                   inkscape:connector-curvature="0" /></g></g><g
               id="g712"
               transform="translate(164,291)"><g
                 id="g714" /></g><g
               id="g716"><path
                 d="m 164.91406,292.39258 h 1.37695 l 4.34766,6.97265 v -6.97265 h 1.10742 V 301 h -1.30664 l -4.41211,-6.9668 V 301 h -1.11328 z"
                 style="fill:#000000;fill-opacity:1;fill-rule:nonzero;stroke:none"
                 id="path718"
                 inkscape:connector-curvature="0" /></g><g
               id="g720"
               transform="translate(164,291)"><g
                 id="g722" /></g><g
               id="g724" /><g
               id="g726"
               transform="translate(0.5,0.5)"><path
                 d="M 440,306.37 V 337"
                 style="fill:none;stroke:#000000;stroke-width:1;stroke-linecap:butt;stroke-linejoin:miter;stroke-miterlimit:10;stroke-dasharray:none;stroke-opacity:1"
                 id="path728"
                 inkscape:connector-curvature="0" /></g><g
               id="g730"><path
                 d="m 440.5,301.62 3.5,7 -3.5,-1.75 -3.5,1.75 z"
                 style="fill:#000000;fill-opacity:1;fill-rule:nonzero;stroke:none"
                 id="path732"
                 inkscape:connector-curvature="0" /></g><g
               id="g734"
               transform="translate(0.5,0.5)"><path
                 d="m 440,301.12 3.5,7 -3.5,-1.75 -3.5,1.75 z"
                 style="fill:none;stroke:#000000;stroke-width:1;stroke-linecap:butt;stroke-linejoin:miter;stroke-miterlimit:10;stroke-dasharray:none;stroke-opacity:1"
                 id="path736"
                 inkscape:connector-curvature="0" /></g><g
               id="g738"><path
                 d="m 443.5,340.5 c 0,1.65685 -1.34315,3 -3,3 -1.65686,0 -3,-1.34315 -3,-3 0,-1.65686 1.34314,-3 3,-3 1.65685,0 3,1.34314 3,3 z"
                 style="fill:#000000;fill-opacity:1;fill-rule:nonzero;stroke:none"
                 id="path740"
                 inkscape:connector-curvature="0" /></g><g
               id="g742"
               transform="translate(0.5,0.5)"><path
                 d="m 443,340 c 0,1.65685 -1.34315,3 -3,3 -1.65686,0 -3,-1.34315 -3,-3 0,-1.65686 1.34314,-3 3,-3 1.65685,0 3,1.34314 3,3 z"
                 style="fill:none;stroke:#000000;stroke-width:1;stroke-linecap:butt;stroke-linejoin:miter;stroke-miterlimit:10;stroke-dasharray:none;stroke-opacity:1"
                 id="path744"
                 inkscape:connector-curvature="0" /></g><g
               id="g746" /><g
               id="g748"
               transform="translate(444,291)" /><g
               id="g750"><g
                 id="g752"
                 transform="translate(444,291)"><path
                   d="M 0,0 H 9 V 14 H 0 Z"
                   style="fill:#ffffff;fill-opacity:1;fill-rule:nonzero;stroke:none"
                   id="path754"
                   inkscape:connector-curvature="0" /></g></g><g
               id="g756"
               transform="translate(444,291)"><g
                 id="g758" /></g><g
               id="g760"><path
                 d="m 444.91406,292.39258 h 1.37695 l 4.34766,6.97265 v -6.97265 h 1.10742 V 301 h -1.30664 l -4.41211,-6.9668 V 301 h -1.11328 z"
                 style="fill:#000000;fill-opacity:1;fill-rule:nonzero;stroke:none"
                 id="path762"
                 inkscape:connector-curvature="0" /></g><g
               id="g764"
               transform="translate(444,291)"><g
                 id="g766" /></g><g
               id="g768" /><g
               id="g770"
               transform="translate(0.5,0.5)"><path
                 d="M 160,340 H 102.37"
                 style="fill:none;stroke:#000000;stroke-width:1;stroke-linecap:butt;stroke-linejoin:miter;stroke-miterlimit:10;stroke-dasharray:none;stroke-opacity:1"
                 id="path772"
                 inkscape:connector-curvature="0" /></g><g
               id="g774"><path
                 d="M 97.620003,340.5 104.62,337 l -1.75,3.5 1.75,3.5 z"
                 style="fill:#000000;fill-opacity:1;fill-rule:nonzero;stroke:none"
                 id="path776"
                 inkscape:connector-curvature="0" /></g><g
               id="g778"
               transform="translate(0.5,0.5)"><path
                 d="m 97.120003,340 6.999997,-3.5 -1.75,3.5 1.75,3.5 z"
                 style="fill:none;stroke:#000000;stroke-width:1;stroke-linecap:butt;stroke-linejoin:miter;stroke-miterlimit:10;stroke-dasharray:none;stroke-opacity:1"
                 id="path780"
                 inkscape:connector-curvature="0" /></g><g
               id="g782" /><g
               id="g784"
               transform="translate(0.5,0.5)" /><g
               id="g786" /><g
               id="g788"
               transform="translate(14,323)"><g
                 id="g790" /></g><g
               id="g792"><path
                 d="m 15.025391,324.39258 h 5.970703 v 1.05469 h -4.804688 v 2.61328 h 4.22461 v 1.02539 h -4.22461 V 333 h -1.166015 z"
                 style="fill:#000000;fill-opacity:1;fill-rule:nonzero;stroke:none"
                 id="path794"
                 inkscape:connector-curvature="0" /></g><g
               id="g796"
               transform="translate(14,323)"><g
                 id="g798" /><g
                 id="g800" /></g><g
               id="g802"><path
                 d="m 22.171875,330.53906 c 0.164062,-0.23958 0.480469,-0.35937 0.949219,-0.35937 0.04427,0 0.08984,0.001 0.136718,0.004 0.04687,0.003 0.100261,0.007 0.160157,0.0117 v 0.64063 c -0.07292,-0.005 -0.125651,-0.008 -0.158203,-0.01 -0.03255,-0.001 -0.06315,-0.002 -0.0918,-0.002 -0.213542,0 -0.341146,0.0553 -0.382813,0.16601 -0.04167,0.11068 -0.0625,0.39258 -0.0625,0.84571 h 0.695313 v 0.55468 h -0.703125 v 3.60938 h -0.695313 v -3.60938 h -0.582031 v -0.55468 h 0.582031 v -0.65625 c 0.01042,-0.29167 0.0612,-0.50521 0.152344,-0.64063 z m 2.039062,6.27735 c 0.179688,-0.0312 0.30599,-0.15756 0.378907,-0.37891 0.03906,-0.11719 0.05859,-0.23047 0.05859,-0.33984 0,-0.0182 -6.51e-4,-0.0345 -0.002,-0.0488 -0.0013,-0.0143 -0.0046,-0.0306 -0.0098,-0.0488 h -0.425782 v -0.85156 h 0.835938 v 0.78906 c 0,0.30989 -0.0625,0.58203 -0.1875,0.81641 -0.125,0.23437 -0.341146,0.3789 -0.648438,0.43359 v -0.37109 z m 2.070313,-4.98047 h 0.714844 V 336 H 26.28125 Z m 0,-1.57422 h 0.714844 v 0.79687 H 26.28125 Z m 1.765625,1.55469 h 0.667969 v 0.59375 c 0.197916,-0.2448 0.407552,-0.42058 0.628906,-0.52735 0.221354,-0.10677 0.467448,-0.16015 0.738281,-0.16015 0.59375,0 0.994792,0.20703 1.203125,0.62109 0.114583,0.22656 0.171875,0.55078 0.171875,0.97266 V 336 h -0.714844 v -2.63672 c 0,-0.25521 -0.03776,-0.46094 -0.113281,-0.61719 -0.125,-0.26041 -0.351562,-0.39062 -0.679687,-0.39062 -0.166667,0 -0.303386,0.0169 -0.410157,0.0508 -0.192708,0.0573 -0.361979,0.17187 -0.507812,0.34375 -0.117188,0.13802 -0.193359,0.2806 -0.228516,0.42773 -0.03516,0.14714 -0.05273,0.35743 -0.05273,0.63086 v 2.19141 h -0.703125 v -4.18359 z m 7.042969,0.11523 c 0.278645,0.13932 0.490885,0.31966 0.636719,0.54102 0.140624,0.21093 0.234374,0.45703 0.281249,0.73828 0.04167,0.1927 0.0625,0.5 0.0625,0.92187 h -3.066407 c 0.01302,0.42448 0.113281,0.76498 0.300781,1.02149 0.1875,0.25651 0.477865,0.38476 0.871094,0.38476 0.367188,0 0.660156,-0.12109 0.878906,-0.36328 0.125,-0.14062 0.213542,-0.30339 0.265626,-0.48828 h 0.691406 c -0.01823,0.15364 -0.07878,0.32487 -0.181641,0.51367 -0.102864,0.1888 -0.218099,0.3431 -0.345703,0.46289 -0.213542,0.20833 -0.477865,0.34896 -0.792969,0.42188 -0.169271,0.0417 -0.360677,0.0625 -0.574219,0.0625 -0.520833,0 -0.962239,-0.18946 -1.324218,-0.56836 -0.36198,-0.37891 -0.542969,-0.90951 -0.542969,-1.5918 0,-0.67187 0.182292,-1.21745 0.546875,-1.63672 0.364583,-0.41927 0.841146,-0.6289 1.429688,-0.6289 0.296874,0 0.584635,0.0697 0.863282,0.20898 z m 0.257812,1.64258 c -0.02865,-0.30469 -0.09505,-0.54818 -0.199219,-0.73047 -0.192708,-0.33854 -0.514322,-0.50781 -0.964843,-0.50781 -0.322917,0 -0.59375,0.11653 -0.8125,0.34961 -0.21875,0.23307 -0.334636,0.52929 -0.347657,0.88867 z m 1.59375,-1.75781 h 0.667969 v 0.72265 c 0.05469,-0.14062 0.188802,-0.31185 0.402344,-0.51367 0.213541,-0.20182 0.459635,-0.30273 0.738281,-0.30273 0.01302,0 0.03516,10e-4 0.06641,0.004 0.03125,0.003 0.08464,0.008 0.160156,0.0156 v 0.74218 c -0.04167,-0.008 -0.08008,-0.013 -0.115234,-0.0156 -0.03516,-0.003 -0.07357,-0.004 -0.115234,-0.004 -0.354167,0 -0.626302,0.11394 -0.816407,0.3418 -0.190104,0.22786 -0.285156,0.49023 -0.285156,0.78711 V 336 H 36.94141 v -4.18359 z m 2.777344,-1.16797 h 0.710937 v 1.16797 h 0.667969 v 0.57421 h -0.667969 v 2.73047 c 0,0.14584 0.04948,0.24349 0.148438,0.29297 0.05469,0.0286 0.145833,0.043 0.273437,0.043 0.03385,0 0.07031,-6.5e-4 0.109375,-0.002 0.03906,-10e-4 0.08464,-0.005 0.136719,-0.01 v 0.55469 c -0.08073,0.0234 -0.164713,0.0404 -0.251953,0.0508 -0.08724,0.0104 -0.181641,0.0156 -0.283203,0.0156 -0.328125,0 -0.550781,-0.084 -0.667969,-0.25196 -0.117187,-0.16797 -0.175781,-0.38607 -0.175781,-0.65429 v -2.76954 h -0.566406 v -0.57421 h 0.566406 v -1.16797 z m 2.078125,1.1875 h 0.714844 V 336 h -0.714844 z m 0,-1.57422 h 0.714844 v 0.79687 h -0.714844 z m 2.527344,5.10547 c 0.148437,0.11718 0.324218,0.17578 0.527343,0.17578 0.247396,0 0.48698,-0.0573 0.718751,-0.17188 0.390624,-0.1901 0.585937,-0.5013 0.585937,-0.93359 v -0.56641 c -0.08594,0.0547 -0.196615,0.10026 -0.332031,0.13672 -0.135417,0.0365 -0.26823,0.0625 -0.398438,0.0781 L 45,334.14063 c -0.255208,0.0339 -0.446615,0.0872 -0.574219,0.16015 -0.216146,0.1224 -0.324219,0.31771 -0.324219,0.58594 0,0.20312 0.07422,0.36328 0.222657,0.48047 z m 1.480468,-1.90235 c 0.161459,-0.0208 0.269532,-0.0885 0.324219,-0.20312 0.03125,-0.0625 0.04687,-0.15235 0.04687,-0.26953 0,-0.23959 -0.08529,-0.41341 -0.255859,-0.52149 -0.170573,-0.10807 -0.414714,-0.16211 -0.732422,-0.16211 -0.367187,0 -0.627604,0.099 -0.78125,0.29688 -0.08594,0.10937 -0.141927,0.27213 -0.167969,0.48828 h -0.65625 c 0.01302,-0.51563 0.180339,-0.87435 0.501953,-1.07617 0.321615,-0.20183 0.694662,-0.30274 1.119141,-0.30274 0.492188,0 0.891927,0.0937 1.199219,0.28125 0.304687,0.1875 0.457031,0.47917 0.457031,0.875 v 2.41016 c 0,0.0729 0.01497,0.13151 0.04492,0.17578 0.02995,0.0443 0.0931,0.0664 0.189453,0.0664 0.03125,0 0.06641,-0.002 0.105469,-0.006 0.03906,-0.004 0.08073,-0.01 0.125,-0.0176 v 0.51953 c -0.109375,0.0312 -0.192709,0.0508 -0.25,0.0586 -0.05729,0.008 -0.135417,0.0117 -0.234375,0.0117 -0.242188,0 -0.417969,-0.0859 -0.527344,-0.25781 -0.05729,-0.0911 -0.09766,-0.22005 -0.121094,-0.38672 -0.143229,0.1875 -0.348958,0.35026 -0.617187,0.48828 -0.26823,0.13802 -0.563802,0.20704 -0.886719,0.20704 -0.388021,0 -0.705078,-0.11784 -0.951172,-0.35352 -0.246094,-0.23568 -0.369141,-0.5306 -0.369141,-0.88477 0,-0.38802 0.121094,-0.6888 0.363282,-0.90234 0.242187,-0.21354 0.559896,-0.34505 0.953125,-0.39453 l 1.121093,-0.14063 z"
                 style="fill:#000000;fill-opacity:1;fill-rule:nonzero;stroke:none"
                 id="path804"
                 inkscape:connector-curvature="0" /></g><g
               id="g806"
               transform="translate(14,323)"><g
                 id="g808" /></g><g
               id="g810" /><g
               id="g812"
               transform="translate(0.5,0.5)"><path
                 d="M 161,340 H 60.689999"
                 style="fill:none;stroke:#000000;stroke-width:1;stroke-linecap:butt;stroke-linejoin:miter;stroke-miterlimit:10;stroke-dasharray:none;stroke-opacity:1"
                 id="path814"
                 inkscape:connector-curvature="0" /></g><g
               id="g816"><path
                 d="m 55.939999,340.5 7,-3.5 -1.75,3.5 1.75,3.5 z"
                 style="fill:#000000;fill-opacity:1;fill-rule:nonzero;stroke:none"
                 id="path818"
                 inkscape:connector-curvature="0" /></g><g
               id="g820"
               transform="translate(0.5,0.5)"><path
                 d="m 55.439999,340 7,-3.5 -1.75,3.5 1.75,3.5 z"
                 style="fill:none;stroke:#000000;stroke-width:1;stroke-linecap:butt;stroke-linejoin:miter;stroke-miterlimit:10;stroke-dasharray:none;stroke-opacity:1"
                 id="path822"
                 inkscape:connector-curvature="0" /></g><g
               id="g824" /><g
               id="g826"
               transform="translate(0.5,0.5)" /><g
               id="g828" /><g
               id="g830"
               transform="translate(114,317)"><g
                 id="g832" /></g><g
               id="g834"><path
                 d="m 115.02539,318.39258 h 5.9707 v 1.05469 h -4.80468 v 2.61328 h 4.22461 v 1.02539 h -4.22461 V 327 h -1.16602 z"
                 style="fill:#000000;fill-opacity:1;fill-rule:nonzero;stroke:none"
                 id="path836"
                 inkscape:connector-curvature="0" /></g><g
               id="g838"
               transform="translate(114,317)"><g
                 id="g840" /><g
                 id="g842" /></g><g
               id="g844"><path
                 d="m 122.17187,324.53906 c 0.16407,-0.23958 0.48047,-0.35937 0.94922,-0.35937 0.0443,0 0.0898,0.001 0.13672,0.004 0.0469,0.003 0.10026,0.007 0.16016,0.0117 v 0.64063 c -0.0729,-0.005 -0.12565,-0.008 -0.1582,-0.01 -0.0326,-0.001 -0.0632,-0.002 -0.0918,-0.002 -0.21354,0 -0.34115,0.0553 -0.38281,0.16601 -0.0417,0.11068 -0.0625,0.39258 -0.0625,0.84571 h 0.69531 v 0.55468 h -0.70313 v 3.60938 h -0.69531 v -3.60938 h -0.58203 v -0.55468 h 0.58203 v -0.65625 c 0.0104,-0.29167 0.0612,-0.50521 0.15234,-0.64063 z m 2.03907,6.27735 c 0.17969,-0.0312 0.30599,-0.15756 0.3789,-0.37891 0.0391,-0.11719 0.0586,-0.23047 0.0586,-0.33984 0,-0.0182 -6.5e-4,-0.0345 -0.002,-0.0488 -0.001,-0.0143 -0.005,-0.0306 -0.01,-0.0488 h -0.42578 v -0.85156 h 0.83594 v 0.78906 c 0,0.30989 -0.0625,0.58203 -0.18751,0.81641 -0.12499,0.23437 -0.34114,0.3789 -0.64843,0.43359 v -0.37109 z m 2.07031,-4.98047 h 0.71484 V 330 h -0.71484 z m 0,-1.57422 h 0.71484 v 0.79687 h -0.71484 z m 1.76562,1.55469 h 0.66797 v 0.59375 c 0.19792,-0.2448 0.40755,-0.42058 0.62891,-0.52735 0.22135,-0.10677 0.46745,-0.16015 0.73828,-0.16015 0.59375,0 0.99479,0.20703 1.20313,0.62109 0.11458,0.22656 0.17187,0.55078 0.17187,0.97266 V 330 h -0.71484 v -2.63672 c 0,-0.25521 -0.0378,-0.46094 -0.11328,-0.61719 -0.125,-0.26041 -0.35157,-0.39062 -0.67969,-0.39062 -0.16667,0 -0.30339,0.0169 -0.41016,0.0508 -0.19271,0.0573 -0.36198,0.17187 -0.50781,0.34375 -0.11719,0.13802 -0.19336,0.2806 -0.22852,0.42773 -0.0351,0.14714 -0.0527,0.35743 -0.0527,0.63086 v 2.19141 h -0.70313 v -4.18359 z m 4.57813,-1.16797 h 0.71094 v 1.16797 h 0.66797 v 0.57421 h -0.66797 v 2.73047 c 0,0.14584 0.0495,0.24349 0.14843,0.29297 0.0547,0.0286 0.14584,0.043 0.27344,0.043 0.0339,0 0.0703,-6.5e-4 0.10938,-0.002 0.0391,-10e-4 0.0846,-0.005 0.13672,-0.01 v 0.55469 c -0.0807,0.0234 -0.16472,0.0404 -0.25196,0.0508 -0.0872,0.0104 -0.18164,0.0156 -0.2832,0.0156 -0.32813,0 -0.55078,-0.084 -0.66797,-0.25196 -0.11719,-0.16797 -0.17578,-0.38607 -0.17578,-0.65429 v -2.76954 h -0.56641 v -0.57421 h 0.56641 v -1.16797 z m 4.68359,1.2832 c 0.27865,0.13932 0.49089,0.31966 0.63672,0.54102 0.14063,0.21093 0.23438,0.45703 0.28125,0.73828 0.0417,0.1927 0.0625,0.5 0.0625,0.92187 h -3.0664 c 0.013,0.42448 0.11328,0.76498 0.30078,1.02149 0.1875,0.25651 0.47786,0.38476 0.87109,0.38476 0.36719,0 0.66016,-0.12109 0.87891,-0.36328 0.125,-0.14062 0.21354,-0.30339 0.26562,-0.48828 h 0.69141 c -0.0182,0.15364 -0.0788,0.32487 -0.18164,0.51367 -0.10287,0.1888 -0.2181,0.3431 -0.34571,0.46289 -0.21354,0.20833 -0.47786,0.34896 -0.79296,0.42188 -0.16928,0.0417 -0.36068,0.0625 -0.57422,0.0625 -0.52084,0 -0.96224,-0.18946 -1.32422,-0.56836 -0.36198,-0.37891 -0.54297,-0.90951 -0.54297,-1.5918 0,-0.67187 0.18229,-1.21745 0.54687,-1.63672 0.36459,-0.41927 0.84115,-0.6289 1.42969,-0.6289 0.29688,0 0.58464,0.0697 0.86328,0.20898 z m 0.25782,1.64258 c -0.0286,-0.30469 -0.0951,-0.54818 -0.19922,-0.73047 -0.19271,-0.33854 -0.51433,-0.50781 -0.96485,-0.50781 -0.32291,0 -0.59375,0.11653 -0.8125,0.34961 -0.21875,0.23307 -0.33463,0.52929 -0.34765,0.88867 z m 1.59375,-1.75781 h 0.66797 v 0.72265 c 0.0547,-0.14062 0.1888,-0.31185 0.40234,-0.51367 0.21354,-0.20182 0.45963,-0.30273 0.73828,-0.30273 0.013,0 0.0352,10e-4 0.0664,0.004 0.0312,0.003 0.0846,0.008 0.16015,0.0156 v 0.74218 c -0.0417,-0.008 -0.0801,-0.013 -0.11523,-0.0156 -0.0352,-0.003 -0.0736,-0.004 -0.11524,-0.004 -0.35416,0 -0.6263,0.11394 -0.8164,0.3418 -0.19011,0.22786 -0.28516,0.49023 -0.28516,0.78711 V 330 h -0.70312 v -4.18359 z m 2.63671,0 h 0.66797 v 0.59375 c 0.19792,-0.2448 0.40755,-0.42058 0.62891,-0.52735 0.22135,-0.10677 0.46745,-0.16015 0.73828,-0.16015 0.59375,0 0.99479,0.20703 1.20313,0.62109 0.11458,0.22656 0.17187,0.55078 0.17187,0.97266 V 330 h -0.71484 v -2.63672 c 0,-0.25521 -0.0378,-0.46094 -0.11328,-0.61719 -0.125,-0.26041 -0.35157,-0.39062 -0.67969,-0.39062 -0.16667,0 -0.30339,0.0169 -0.41016,0.0508 -0.19271,0.0573 -0.36198,0.17187 -0.50781,0.34375 -0.11719,0.13802 -0.19336,0.2806 -0.22852,0.42773 -0.0351,0.14714 -0.0527,0.35743 -0.0527,0.63086 v 2.19141 h -0.70313 v -4.18359 z m 5.19922,3.55078 c 0.14844,0.11718 0.32422,0.17578 0.52735,0.17578 0.24739,0 0.48698,-0.0573 0.71875,-0.17188 0.39062,-0.1901 0.58594,-0.5013 0.58594,-0.93359 v -0.56641 c -0.0859,0.0547 -0.19662,0.10026 -0.33204,0.13672 -0.13541,0.0365 -0.26823,0.0625 -0.39843,0.0781 l -0.42579,0.0547 c -0.2552,0.0339 -0.44661,0.0872 -0.57421,0.16015 -0.21615,0.1224 -0.32422,0.31771 -0.32422,0.58594 0,0.20312 0.0742,0.36328 0.22265,0.48047 z m 1.48047,-1.90235 c 0.16146,-0.0208 0.26953,-0.0885 0.32422,-0.20312 0.0312,-0.0625 0.0469,-0.15235 0.0469,-0.26953 0,-0.23959 -0.0853,-0.41341 -0.25586,-0.52149 -0.17058,-0.10807 -0.41472,-0.16211 -0.73243,-0.16211 -0.36718,0 -0.6276,0.099 -0.78125,0.29688 -0.0859,0.10937 -0.14192,0.27213 -0.16796,0.48828 h -0.65625 c 0.013,-0.51563 0.18033,-0.87435 0.50195,-1.07617 0.32161,-0.20183 0.69466,-0.30274 1.11914,-0.30274 0.49219,0 0.89193,0.0937 1.19922,0.28125 0.30469,0.1875 0.45703,0.47917 0.45703,0.875 v 2.41016 c 0,0.0729 0.015,0.13151 0.0449,0.17578 0.03,0.0443 0.0931,0.0664 0.18945,0.0664 0.0312,0 0.0664,-0.002 0.10547,-0.006 0.0391,-0.004 0.0807,-0.01 0.125,-0.0176 v 0.51953 c -0.10937,0.0312 -0.19271,0.0508 -0.25,0.0586 -0.0573,0.008 -0.13541,0.0117 -0.23437,0.0117 -0.24219,0 -0.41797,-0.0859 -0.52735,-0.25781 -0.0573,-0.0911 -0.0977,-0.22005 -0.12109,-0.38672 -0.14323,0.1875 -0.34896,0.35026 -0.61719,0.48828 -0.26823,0.13802 -0.5638,0.20704 -0.88672,0.20704 -0.38802,0 -0.70507,-0.11784 -0.95117,-0.35352 -0.24609,-0.23568 -0.36914,-0.5306 -0.36914,-0.88477 0,-0.38802 0.1211,-0.6888 0.36328,-0.90234 0.24219,-0.21354 0.5599,-0.34505 0.95313,-0.39453 l 1.12109,-0.14063 z m 2.21485,-3.20312 h 0.70312 V 330 h -0.70312 z"
                 style="fill:#000000;fill-opacity:1;fill-rule:nonzero;stroke:none"
                 id="path846"
                 inkscape:connector-curvature="0" /></g><g
               id="g848"
               transform="translate(114,317)"><g
                 id="g850" /></g><g
               id="g852" /><g
               id="g854"
               transform="translate(0.5,0.5)"><path
                 d="m 161,220 h 74.83"
                 style="fill:none;stroke:#000000;stroke-width:1;stroke-linecap:butt;stroke-linejoin:miter;stroke-miterlimit:10;stroke-dasharray:none;stroke-opacity:1"
                 id="path856"
                 inkscape:connector-curvature="0" /></g><g
               id="g858"><path
                 d="m 241.58,220.5 -7,3.5 1.75,-3.5 -1.75,-3.5 z"
                 style="fill:#000000;fill-opacity:1;fill-rule:nonzero;stroke:none"
                 id="path860"
                 inkscape:connector-curvature="0" /></g><g
               id="g862"
               transform="translate(0.5,0.5)"><path
                 d="m 241.08,220 -7,3.5 1.75,-3.5 -1.75,-3.5 z"
                 style="fill:none;stroke:#000000;stroke-width:1;stroke-linecap:butt;stroke-linejoin:miter;stroke-miterlimit:10;stroke-dasharray:none;stroke-opacity:1"
                 id="path864"
                 inkscape:connector-curvature="0" /></g><g
               id="g866" /><g
               id="g868"
               transform="translate(0.5,0.5)" /><g
               id="g870" /><g
               id="g872"
               transform="translate(229,226)"><g
                 id="g874" /></g><g
               id="g876"><path
                 d="m 230.59375,227.39258 2.47266,7.33008 2.44335,-7.33008 h 1.30665 L 233.67578,236 h -1.23633 l -3.13476,-8.60742 z"
                 style="fill:#000000;fill-opacity:1;fill-rule:nonzero;stroke:none"
                 id="path878"
                 inkscape:connector-curvature="0" /></g><g
               id="g880"
               transform="translate(229,226)"><g
                 id="g882" /><g
                 id="g884" /></g><g
               id="g886"><path
                 d="m 238.0498,233.77051 1.00586,4.12109 1.02051,-4.12109 h 0.98633 l 1.02539,4.09668 1.06934,-4.09668 h 0.8789 L 242.51758,239 h -0.91309 L 240.54004,234.95215 239.50976,239 h -0.91308 l -1.50879,-5.22949 z m 6.81348,-1.96778 h 0.87891 v 2.67578 c 0.20833,-0.26367 0.3955,-0.44921 0.56152,-0.55664 0.2832,-0.18554 0.63639,-0.27832 1.05957,-0.27832 0.75846,0 1.27279,0.2653 1.54297,0.7959 0.14648,0.28972 0.21973,0.69173 0.21973,1.20606 V 239 h -0.90332 v -3.2959 c 0,-0.38411 -0.0488,-0.66569 -0.14649,-0.84473 -0.1595,-0.28645 -0.45898,-0.42968 -0.89844,-0.42968 -0.36458,0 -0.69498,0.12532 -0.99121,0.37597 -0.29622,0.25065 -0.44433,0.72429 -0.44433,1.4209 V 239 h -0.87891 z m 8.80371,2.11182 c 0.34831,0.17415 0.61361,0.39958 0.7959,0.67627 0.17578,0.26367 0.29297,0.57129 0.35156,0.92285 0.0521,0.24089 0.0781,0.625 0.0781,1.15234 h -3.83301 c 0.0163,0.5306 0.1416,0.95622 0.37598,1.27686 0.23437,0.32064 0.59733,0.48096 1.08886,0.48096 0.45899,0 0.8252,-0.15137 1.09864,-0.4541 0.15625,-0.17579 0.26692,-0.37924 0.33203,-0.61036 h 0.86425 c -0.0228,0.19206 -0.0985,0.40609 -0.22705,0.64209 -0.12858,0.23601 -0.27262,0.42888 -0.43212,0.57862 -0.26693,0.26041 -0.59734,0.4362 -0.99122,0.52734 -0.21158,0.0521 -0.45084,0.0781 -0.71777,0.0781 -0.65104,0 -1.2028,-0.23682 -1.65527,-0.71045 -0.45248,-0.47364 -0.67871,-1.13688 -0.67871,-1.98975 0,-0.83984 0.22786,-1.52181 0.68359,-2.0459 0.45573,-0.52409 1.05143,-0.78613 1.78711,-0.78613 0.37109,0 0.73079,0.0871 1.0791,0.26123 z m 0.32227,2.05322 c -0.0358,-0.38086 -0.11882,-0.68522 -0.24903,-0.91308 -0.24088,-0.42318 -0.6429,-0.63477 -1.20605,-0.63477 -0.40365,0 -0.74219,0.14567 -1.01563,0.43701 -0.27343,0.29134 -0.41829,0.66162 -0.43457,1.11084 z m 5.22461,-2.05322 c 0.3483,0.17415 0.6136,0.39958 0.7959,0.67627 0.17578,0.26367 0.29296,0.57129 0.35156,0.92285 0.0521,0.24089 0.0781,0.625 0.0781,1.15234 h -3.83301 c 0.0163,0.5306 0.14161,0.95622 0.37598,1.27686 0.23438,0.32064 0.59733,0.48096 1.08887,0.48096 0.45898,0 0.82519,-0.15137 1.09863,-0.4541 0.15625,-0.17579 0.26693,-0.37924 0.33203,-0.61036 h 0.86426 c -0.0228,0.19206 -0.0985,0.40609 -0.22705,0.64209 -0.12858,0.23601 -0.27262,0.42888 -0.43213,0.57862 -0.26693,0.26041 -0.59733,0.4362 -0.99121,0.52734 -0.21159,0.0521 -0.45085,0.0781 -0.71777,0.0781 -0.65104,0 -1.2028,-0.23682 -1.65528,-0.71045 -0.45247,-0.47364 -0.67871,-1.13688 -0.67871,-1.98975 0,-0.83984 0.22787,-1.52181 0.6836,-2.0459 0.45572,-0.52409 1.05143,-0.78613 1.78711,-0.78613 0.37109,0 0.73079,0.0871 1.0791,0.26123 z m 0.32226,2.05322 c -0.0358,-0.38086 -0.11881,-0.68522 -0.24902,-0.91308 -0.24089,-0.42318 -0.6429,-0.63477 -1.20606,-0.63477 -0.40364,0 -0.74218,0.14567 -1.01562,0.43701 -0.27344,0.29134 -0.4183,0.66162 -0.43457,1.11084 z m 1.99219,-4.14062 h 0.87891 V 239 h -0.87891 z"
                 style="fill:#000000;fill-opacity:1;fill-rule:nonzero;stroke:none"
                 id="path888"
                 inkscape:connector-curvature="0" /></g><g
               id="g890"
               transform="translate(229,226)"><g
                 id="g892" /></g><g
               id="g894" /></g></g></g><g
         id="g896"><g
           id="g898" /></g><g
         id="g900"><g
           id="g902"
           clip-path="url(#clipPath906)"><g
             id="g908" /><g
             id="g910" /></g></g><g
         id="g912"><g
           id="g914"
           clip-path="url(#clipPath918)"><g
             id="g920"
             clip-path="url(#clipPath924)"><g
               id="g926" /></g></g></g><g
         id="g928"><g
           id="g930" /></g><g
         id="g932"><g
           id="g934"
           clip-path="url(#clipPath938)"><g
             id="g940" /><g
             id="g942" /></g></g><g
         id="g944"><g
           id="g946" /></g></g></g></svg>