# Simple headlight: housing along +X with an emissive lens at x=0
# (generated, public domain). Units: meters.
mtllib headlight.mtl
v -0.02500 0.03000 0.00000
v -0.02500 0.02942 0.00585
v -0.02500 0.02772 0.01148
v -0.02500 0.02494 0.01667
v -0.02500 0.02121 0.02121
v -0.02500 0.01667 0.02494
v -0.02500 0.01148 0.02772
v -0.02500 0.00585 0.02942
v -0.02500 0.00000 0.03000
v -0.02500 -0.00585 0.02942
v -0.02500 -0.01148 0.02772
v -0.02500 -0.01667 0.02494
v -0.02500 -0.02121 0.02121
v -0.02500 -0.02494 0.01667
v -0.02500 -0.02772 0.01148
v -0.02500 -0.02942 0.00585
v -0.02500 -0.03000 0.00000
v -0.02500 -0.02942 -0.00585
v -0.02500 -0.02772 -0.01148
v -0.02500 -0.02494 -0.01667
v -0.02500 -0.02121 -0.02121
v -0.02500 -0.01667 -0.02494
v -0.02500 -0.01148 -0.02772
v -0.02500 -0.00585 -0.02942
v -0.02500 -0.00000 -0.03000
v -0.02500 0.00585 -0.02942
v -0.02500 0.01148 -0.02772
v -0.02500 0.01667 -0.02494
v -0.02500 0.02121 -0.02121
v -0.02500 0.02494 -0.01667
v -0.02500 0.02772 -0.01148
v -0.02500 0.02942 -0.00585
v 0.00000 0.03000 0.00000
v 0.00000 0.02942 0.00585
v 0.00000 0.02772 0.01148
v 0.00000 0.02494 0.01667
v 0.00000 0.02121 0.02121
v 0.00000 0.01667 0.02494
v 0.00000 0.01148 0.02772
v 0.00000 0.00585 0.02942
v 0.00000 0.00000 0.03000
v 0.00000 -0.00585 0.02942
v 0.00000 -0.01148 0.02772
v 0.00000 -0.01667 0.02494
v 0.00000 -0.02121 0.02121
v 0.00000 -0.02494 0.01667
v 0.00000 -0.02772 0.01148
v 0.00000 -0.02942 0.00585
v 0.00000 -0.03000 0.00000
v 0.00000 -0.02942 -0.00585
v 0.00000 -0.02772 -0.01148
v 0.00000 -0.02494 -0.01667
v 0.00000 -0.02121 -0.02121
v 0.00000 -0.01667 -0.02494
v 0.00000 -0.01148 -0.02772
v 0.00000 -0.00585 -0.02942
v 0.00000 -0.00000 -0.03000
v 0.00000 0.00585 -0.02942
v 0.00000 0.01148 -0.02772
v 0.00000 0.01667 -0.02494
v 0.00000 0.02121 -0.02121
v 0.00000 0.02494 -0.01667
v 0.00000 0.02772 -0.01148
v 0.00000 0.02942 -0.00585
v 0.00200 0.02500 0.00000
v 0.00200 0.02452 0.00488
v 0.00200 0.02310 0.00957
v 0.00200 0.02079 0.01389
v 0.00200 0.01768 0.01768
v 0.00200 0.01389 0.02079
v 0.00200 0.00957 0.02310
v 0.00200 0.00488 0.02452
v 0.00200 0.00000 0.02500
v 0.00200 -0.00488 0.02452
v 0.00200 -0.00957 0.02310
v 0.00200 -0.01389 0.02079
v 0.00200 -0.01768 0.01768
v 0.00200 -0.02079 0.01389
v 0.00200 -0.02310 0.00957
v 0.00200 -0.02452 0.00488
v 0.00200 -0.02500 0.00000
v 0.00200 -0.02452 -0.00488
v 0.00200 -0.02310 -0.00957
v 0.00200 -0.02079 -0.01389
v 0.00200 -0.01768 -0.01768
v 0.00200 -0.01389 -0.02079
v 0.00200 -0.00957 -0.02310
v 0.00200 -0.00488 -0.02452
v 0.00200 -0.00000 -0.02500
v 0.00200 0.00488 -0.02452
v 0.00200 0.00957 -0.02310
v 0.00200 0.01389 -0.02079
v 0.00200 0.01768 -0.01768
v 0.00200 0.02079 -0.01389
v 0.00200 0.02310 -0.00957
v 0.00200 0.02452 -0.00488
v -0.02500 0.00000 0.00000
v 0.00200 0.00000 0.00000
o housing
usemtl housing
f 1 2 34 33
f 97 2 1
f 33 34 66 65
f 2 3 35 34
f 97 3 2
f 34 35 67 66
f 3 4 36 35
f 97 4 3
f 35 36 68 67
f 4 5 37 36
f 97 5 4
f 36 37 69 68
f 5 6 38 37
f 97 6 5
f 37 38 70 69
f 6 7 39 38
f 97 7 6
f 38 39 71 70
f 7 8 40 39
f 97 8 7
f 39 40 72 71
f 8 9 41 40
f 97 9 8
f 40 41 73 72
f 9 10 42 41
f 97 10 9
f 41 42 74 73
f 10 11 43 42
f 97 11 10
f 42 43 75 74
f 11 12 44 43
f 97 12 11
f 43 44 76 75
f 12 13 45 44
f 97 13 12
f 44 45 77 76
f 13 14 46 45
f 97 14 13
f 45 46 78 77
f 14 15 47 46
f 97 15 14
f 46 47 79 78
f 15 16 48 47
f 97 16 15
f 47 48 80 79
f 16 17 49 48
f 97 17 16
f 48 49 81 80
f 17 18 50 49
f 97 18 17
f 49 50 82 81
f 18 19 51 50
f 97 19 18
f 50 51 83 82
f 19 20 52 51
f 97 20 19
f 51 52 84 83
f 20 21 53 52
f 97 21 20
f 52 53 85 84
f 21 22 54 53
f 97 22 21
f 53 54 86 85
f 22 23 55 54
f 97 23 22
f 54 55 87 86
f 23 24 56 55
f 97 24 23
f 55 56 88 87
f 24 25 57 56
f 97 25 24
f 56 57 89 88
f 25 26 58 57
f 97 26 25
f 57 58 90 89
f 26 27 59 58
f 97 27 26
f 58 59 91 90
f 27 28 60 59
f 97 28 27
f 59 60 92 91
f 28 29 61 60
f 97 29 28
f 60 61 93 92
f 29 30 62 61
f 97 30 29
f 61 62 94 93
f 30 31 63 62
f 97 31 30
f 62 63 95 94
f 31 32 64 63
f 97 32 31
f 63 64 96 95
f 32 1 33 64
f 97 1 32
f 64 33 65 96
o lens
usemtl lens
f 98 65 66
f 98 66 67
f 98 67 68
f 98 68 69
f 98 69 70
f 98 70 71
f 98 71 72
f 98 72 73
f 98 73 74
f 98 74 75
f 98 75 76
f 98 76 77
f 98 77 78
f 98 78 79
f 98 79 80
f 98 80 81
f 98 81 82
f 98 82 83
f 98 83 84
f 98 84 85
f 98 85 86
f 98 86 87
f 98 87 88
f 98 88 89
f 98 89 90
f 98 90 91
f 98 91 92
f 98 92 93
f 98 93 94
f 98 94 95
f 98 95 96
f 98 96 65
